  0
SECTION
  2
HEADER
  9
$ANGBASE
  50
0.0
  9
$ANGDIR
  70
1
  9
$MEASUREMENT
  70
1
  0
ENDSEC
  0
SECTION
  2
TABLES
  0
TABLE
  2
LTYPE
  70
4
  0
LTYPE
  5
40F
  2
CONTINUOUS
  70
0
  3
Solid line
  72
65
  73
0
  40
0.0
  0
LTYPE
  5
410
  2
DASHDOT
 70
0
  3
Dash Dot ____ _ ____ _
 72
65
 73
4
 40
2.0
 49
1.25
 49
-0.25
 49
0.25
 49
-0.25
  0
LTYPE
  5
411
  2
DASHED
 70
0
  3
Dashed __ __ __ __ __
 72
65
 73
2
 40
0.75
 49
0.5
 49
-0.25
  0
LTYPE
  5
43B
  2
DOTTED
 70
0
  3
Dotted .  .  .  .
 72
65
 73
2
 40
0.2
 49
0.0
 49
-0.2
  0
ENDTAB
  0
TABLE
  2
STYLE
  70
4
  0
STYLE
  2
KICAD
  70
0
  40
0
  41
1
  42
1
  50
0
  71
0
  3
isocp.shx
  0
STYLE
  2
KICADB
  70
0
  40
0
  41
1
  42
1
  50
0
  71
0
  3
isocp.shx
  0
STYLE
  2
KICADI
  70
0
  40
0
  41
1
  42
1
  50
15
  71
0
  3
isocp.shx
  0
STYLE
  2
KICADBI
  70
0
  40
0
  41
1
  42
1
  50
15
  71
0
  3
isocp.shx
  0
ENDTAB
  0
TABLE
  2
LAYER
  70
1
  0
LAYER
  2
BLACK
  70
0
  62
7
  6
CONTINUOUS
  0
ENDTAB
  0
ENDSEC
  0
SECTION
  2
ENTITIES
0
LINE
8
BLACK
6
CONTINUOUS
10
233.9626399999999933
20
-13.0684529999999999
11
234.2580989999999872
21
-13.1085789999999989
0
LINE
8
BLACK
6
CONTINUOUS
10
234.2580989999999872
20
-13.1085789999999989
11
234.5464229999999759
21
-13.184571
0
LINE
8
BLACK
6
CONTINUOUS
10
234.5464229999999759
20
-13.184571
11
234.8232769999999903
21
-13.295285999999999
0
LINE
8
BLACK
6
CONTINUOUS
10
234.8232769999999903
20
-13.295285999999999
11
235.0844960000000015
21
-13.4390579999999993
0
LINE
8
BLACK
6
CONTINUOUS
10
235.0844960000000015
20
-13.4390579999999993
11
235.3261509999999817
21
-13.6137239999999995
0
LINE
8
BLACK
6
CONTINUOUS
10
235.3261509999999817
20
-13.6137239999999995
11
235.5446079999999824
21
-13.8166589999999996
0
LINE
8
BLACK
6
CONTINUOUS
10
235.5446079999999824
20
-13.8166589999999996
11
235.7365799999999751
21
-14.0448079999999997
0
LINE
8
BLACK
6
CONTINUOUS
10
235.7365799999999751
20
-14.0448079999999997
11
235.8991809999999987
21
-14.2947419999999994
0
LINE
8
BLACK
6
CONTINUOUS
10
235.8991809999999987
20
-14.2947419999999994
11
236.0299639999999783
21
-14.5626999999999995
0
LINE
8
BLACK
6
CONTINUOUS
10
236.0299639999999783
20
-14.5626999999999995
11
236.1269629999999893
21
-14.844652
0
LINE
8
BLACK
6
CONTINUOUS
10
236.1269629999999893
20
-14.844652
11
236.1887189999999919
21
-15.1363569999999985
0
LINE
8
BLACK
6
CONTINUOUS
10
236.1887189999999919
20
-15.1363569999999985
11
236.2143019999999751
21
-15.4334279999999993
0
LINE
8
BLACK
6
CONTINUOUS
10
236.2143019999999751
20
-15.4334279999999993
11
236.2033279999999991
21
-15.7313969999999994
0
LINE
8
BLACK
6
CONTINUOUS
10
236.2033279999999991
20
-15.7313969999999994
11
236.1559609999999907
21
-16.0257809999999985
0
LINE
8
BLACK
6
CONTINUOUS
10
236.1559609999999907
20
-16.0257809999999985
11
236.0729159999999922
21
-16.3121529999999986
0
LINE
8
BLACK
6
CONTINUOUS
10
236.0729159999999922
20
-16.3121529999999986
11
235.9554389999999842
21
-16.5862060000000007
0
LINE
8
BLACK
6
CONTINUOUS
10
235.9554389999999842
20
-16.5862060000000007
11
235.8052989999999909
21
-16.8438179999999988
0
LINE
8
BLACK
6
CONTINUOUS
10
235.8052989999999909
20
-16.8438179999999988
11
235.6247539999999958
21
-17.0811129999999984
0
LINE
8
BLACK
6
CONTINUOUS
10
235.6247539999999958
20
-17.0811129999999984
11
235.4165189999999939
21
-17.2945239999999991
0
LINE
8
BLACK
6
CONTINUOUS
10
235.4165189999999939
20
-17.2945239999999991
11
235.1837259999999787
21
-17.4808389999999996
0
LINE
8
BLACK
6
CONTINUOUS
10
235.1837259999999787
20
-17.4808389999999996
11
234.9298780000000022
21
-17.6372560000000007
0
LINE
8
BLACK
6
CONTINUOUS
10
234.9298780000000022
20
-17.6372560000000007
11
234.658789999999982
21
-17.7614230000000006
0
LINE
8
BLACK
6
CONTINUOUS
10
234.658789999999982
20
-17.7614230000000006
11
234.3745429999999885
21
-17.8514729999999986
0
LINE
8
BLACK
6
CONTINUOUS
10
234.3745429999999885
20
-17.8514729999999986
11
234.0814089999999794
21
-17.9060500000000005
0
LINE
8
BLACK
6
CONTINUOUS
10
234.0814089999999794
20
-17.9060500000000005
11
233.7840759999999989
21
-17.9243169999999985
0
LINE
8
BLACK
6
CONTINUOUS
10
233.7840759999999989
20
-17.9243169999999985
11
233.7837999999999852
21
-17.9243719999999982
0
LINE
8
BLACK
6
CONTINUOUS
10
233.7837999999999852
20
-17.9243719999999982
11
213.9399999999999977
21
-17.9243780000000008
0
LINE
8
BLACK
6
CONTINUOUS
10
213.9399999999999977
20
-17.9243780000000008
11
213.9399999999999977
21
-17.9243999999999986
0
LINE
8
BLACK
6
CONTINUOUS
10
213.9399999999999977
20
-17.9243999999999986
11
213.8737889999999879
21
-17.9243999999999986
0
LINE
8
BLACK
6
CONTINUOUS
10
213.8737889999999879
20
-17.9243999999999986
11
213.7452140000000043
21
-17.9560910000000007
0
LINE
8
BLACK
6
CONTINUOUS
10
213.7452140000000043
20
-17.9560910000000007
11
213.6279590000000042
21
-18.017630999999998
0
LINE
8
BLACK
6
CONTINUOUS
10
213.6279590000000042
20
-18.017630999999998
11
213.5288389999999765
21
-18.1054429999999975
0
LINE
8
BLACK
6
CONTINUOUS
10
213.5288389999999765
20
-18.1054429999999975
11
213.453614999999985
21
-18.2144249999999985
0
LINE
8
BLACK
6
CONTINUOUS
10
213.453614999999985
20
-18.2144249999999985
11
213.4066569999999956
21
-18.3382429999999985
0
LINE
8
BLACK
6
CONTINUOUS
10
213.4066569999999956
20
-18.3382429999999985
11
213.3906949999999938
21
-18.4696999999999996
0
LINE
8
BLACK
6
CONTINUOUS
10
213.3906949999999938
20
-18.4696999999999996
11
213.4066569999999956
21
-18.6011570000000006
0
LINE
8
BLACK
6
CONTINUOUS
10
213.4066569999999956
20
-18.6011570000000006
11
213.453614999999985
21
-18.7249750000000006
0
LINE
8
BLACK
6
CONTINUOUS
10
213.453614999999985
20
-18.7249750000000006
11
213.5288389999999765
21
-18.8339569999999981
0
LINE
8
BLACK
6
CONTINUOUS
10
213.5288389999999765
20
-18.8339569999999981
11
213.6279590000000042
21
-18.9217689999999976
0
LINE
8
BLACK
6
CONTINUOUS
10
213.6279590000000042
20
-18.9217689999999976
11
213.7452140000000043
21
-18.9833089999999984
0
LINE
8
BLACK
6
CONTINUOUS
10
213.7452140000000043
20
-18.9833089999999984
11
213.8737889999999879
21
-19.0150000000000006
0
LINE
8
BLACK
6
CONTINUOUS
10
213.8737889999999879
20
-19.0150000000000006
11
213.9399999999999977
21
-19.0150000000000006
0
LINE
8
BLACK
6
CONTINUOUS
10
213.9399999999999977
20
-19.0150000000000006
11
213.9693889999999783
21
-19.0245490000000004
0
LINE
8
BLACK
6
CONTINUOUS
10
213.9693889999999783
20
-19.0245490000000004
11
213.9806150000000002
21
-19.0399999999999991
0
LINE
8
BLACK
6
CONTINUOUS
10
213.9806150000000002
20
-19.0399999999999991
11
239.5149999999999864
21
-19.0399999999999991
0
LINE
8
BLACK
6
CONTINUOUS
10
239.5149999999999864
20
-19.0399999999999991
11
239.831198999999998
21
-19.0565709999999982
0
LINE
8
BLACK
6
CONTINUOUS
10
239.831198999999998
20
-19.0565709999999982
11
240.1439329999999757
21
-19.1061039999999984
0
LINE
8
BLACK
6
CONTINUOUS
10
240.1439329999999757
20
-19.1061039999999984
11
240.4497759999999857
21
-19.1880539999999975
0
LINE
8
BLACK
6
CONTINUOUS
10
240.4497759999999857
20
-19.1880539999999975
11
240.7453779999999881
21
-19.301524999999998
0
LINE
8
BLACK
6
CONTINUOUS
10
240.7453779999999881
20
-19.301524999999998
11
241.027499999999975
21
-19.4452730000000003
0
LINE
8
BLACK
6
CONTINUOUS
10
241.027499999999975
20
-19.4452730000000003
11
241.2930499999999938
21
-19.6177239999999991
0
LINE
8
BLACK
6
CONTINUOUS
10
241.2930499999999938
20
-19.6177239999999991
11
241.5391199999999969
21
-19.8169869999999975
0
LINE
8
BLACK
6
CONTINUOUS
10
241.5391199999999969
20
-19.8169869999999975
11
241.7630130000000008
21
-20.0408799999999978
0
LINE
8
BLACK
6
CONTINUOUS
10
241.7630130000000008
20
-20.0408799999999978
11
241.9622760000000028
21
-20.2869499999999974
0
LINE
8
BLACK
6
CONTINUOUS
10
241.9622760000000028
20
-20.2869499999999974
11
242.134726999999998
21
-20.5524999999999984
0
LINE
8
BLACK
6
CONTINUOUS
10
242.134726999999998
20
-20.5524999999999984
11
242.278474999999986
21
-20.8346219999999995
0
LINE
8
BLACK
6
CONTINUOUS
10
242.278474999999986
20
-20.8346219999999995
11
242.3919459999999901
21
-21.1302239999999983
0
LINE
8
BLACK
6
CONTINUOUS
10
242.3919459999999901
20
-21.1302239999999983
11
242.4738959999999963
21
-21.4360669999999978
0
LINE
8
BLACK
6
CONTINUOUS
10
242.4738959999999963
20
-21.4360669999999978
11
242.523428999999993
21
-21.7488010000000003
0
LINE
8
BLACK
6
CONTINUOUS
10
242.523428999999993
20
-21.7488010000000003
11
242.539999999999992
21
-22.0649999999999977
0
LINE
8
BLACK
6
CONTINUOUS
10
242.539999999999992
20
-22.0649999999999977
11
242.539999999999992
21
-92.2650000000000006
0
LINE
8
BLACK
6
CONTINUOUS
10
242.539999999999992
20
-92.2650000000000006
11
242.523428999999993
21
-92.581198999999998
0
LINE
8
BLACK
6
CONTINUOUS
10
242.523428999999993
20
-92.581198999999998
11
242.4738959999999963
21
-92.8939329999999899
0
LINE
8
BLACK
6
CONTINUOUS
10
242.4738959999999963
20
-92.8939329999999899
11
242.3919459999999901
21
-93.199776
0
LINE
8
BLACK
6
CONTINUOUS
10
242.3919459999999901
20
-93.199776
11
242.278474999999986
21
-93.4953780000000023
0
LINE
8
BLACK
6
CONTINUOUS
10
242.278474999999986
20
-93.4953780000000023
11
242.134726999999998
21
-93.7774999999999892
0
LINE
8
BLACK
6
CONTINUOUS
10
242.134726999999998
20
-93.7774999999999892
11
241.9622760000000028
21
-94.0430499999999938
0
LINE
8
BLACK
6
CONTINUOUS
10
241.9622760000000028
20
-94.0430499999999938
11
241.7630130000000008
21
-94.2891199999999969
0
LINE
8
BLACK
6
CONTINUOUS
10
241.7630130000000008
20
-94.2891199999999969
11
241.5391199999999969
21
-94.5130130000000008
0
LINE
8
BLACK
6
CONTINUOUS
10
241.5391199999999969
20
-94.5130130000000008
11
241.2930499999999938
21
-94.7122760000000028
0
LINE
8
BLACK
6
CONTINUOUS
10
241.2930499999999938
20
-94.7122760000000028
11
241.027499999999975
21
-94.884726999999998
0
LINE
8
BLACK
6
CONTINUOUS
10
241.027499999999975
20
-94.884726999999998
11
240.7453779999999881
21
-95.0284750000000003
0
LINE
8
BLACK
6
CONTINUOUS
10
240.7453779999999881
20
-95.0284750000000003
11
240.4497759999999857
21
-95.1419459999999901
0
LINE
8
BLACK
6
CONTINUOUS
10
240.4497759999999857
20
-95.1419459999999901
11
240.1439329999999757
21
-95.2238959999999963
0
LINE
8
BLACK
6
CONTINUOUS
10
240.1439329999999757
20
-95.2238959999999963
11
239.831198999999998
21
-95.273428999999993
0
LINE
8
BLACK
6
CONTINUOUS
10
239.831198999999998
20
-95.273428999999993
11
239.5149999999999864
21
-95.289999999999992
0
LINE
8
BLACK
6
CONTINUOUS
10
239.5149999999999864
20
-95.289999999999992
11
213.9806150000000002
21
-95.2900020000000012
0
LINE
8
BLACK
6
CONTINUOUS
10
213.9806150000000002
20
-95.2900020000000012
11
213.9693889999999783
21
-95.3054539999999974
0
LINE
8
BLACK
6
CONTINUOUS
10
213.9693889999999783
20
-95.3054539999999974
11
213.9399999999999977
21
-95.3150029999999902
0
LINE
8
BLACK
6
CONTINUOUS
10
213.9399999999999977
20
-95.3150029999999902
11
213.9399999999999977
21
-95.3149749999999898
0
LINE
8
BLACK
6
CONTINUOUS
10
213.9399999999999977
20
-95.3149749999999898
11
213.8737859999999955
21
-95.3149749999999898
0
LINE
8
BLACK
6
CONTINUOUS
10
213.8737859999999955
20
-95.3149749999999898
11
213.7452049999999986
21
-95.346667999999994
0
LINE
8
BLACK
6
CONTINUOUS
10
213.7452049999999986
20
-95.346667999999994
11
213.6279449999999827
21
-95.4082099999999969
0
LINE
8
BLACK
6
CONTINUOUS
10
213.6279449999999827
20
-95.4082099999999969
11
213.5288209999999935
21
-95.496026999999998
0
LINE
8
BLACK
6
CONTINUOUS
10
213.5288209999999935
20
-95.496026999999998
11
213.4535919999999862
21
-95.6050139999999971
0
LINE
8
BLACK
6
CONTINUOUS
10
213.4535919999999862
20
-95.6050139999999971
11
213.4066329999999994
21
-95.7288369999999986
0
LINE
8
BLACK
6
CONTINUOUS
10
213.4066329999999994
20
-95.7288369999999986
11
213.3906700000000001
21
-95.8602999999999952
0
LINE
8
BLACK
6
CONTINUOUS
10
213.3906700000000001
20
-95.8602999999999952
11
213.4066329999999994
21
-95.9917629999999917
0
LINE
8
BLACK
6
CONTINUOUS
10
213.4066329999999994
20
-95.9917629999999917
11
213.4535919999999862
21
-96.1155859999999933
0
LINE
8
BLACK
6
CONTINUOUS
10
213.4535919999999862
20
-96.1155859999999933
11
213.5288209999999935
21
-96.2245729999999924
0
LINE
8
BLACK
6
CONTINUOUS
10
213.5288209999999935
20
-96.2245729999999924
11
213.6279449999999827
21
-96.3123899999999935
0
LINE
8
BLACK
6
CONTINUOUS
10
213.6279449999999827
20
-96.3123899999999935
11
213.7452049999999986
21
-96.3739319999999964
0
LINE
8
BLACK
6
CONTINUOUS
10
213.7452049999999986
20
-96.3739319999999964
11
213.8737859999999955
21
-96.4056250000000006
0
LINE
8
BLACK
6
CONTINUOUS
10
213.8737859999999955
20
-96.4056250000000006
11
213.9399999999999977
21
-96.4056250000000006
0
LINE
8
BLACK
6
CONTINUOUS
10
213.9399999999999977
20
-96.4056250000000006
11
233.7837999999999852
21
-96.4056309999999996
0
LINE
8
BLACK
6
CONTINUOUS
10
233.7837999999999852
20
-96.4056309999999996
11
234.0814139999999952
21
-96.4239149999999938
0
LINE
8
BLACK
6
CONTINUOUS
10
234.0814139999999952
20
-96.4239149999999938
11
234.3745509999999967
21
-96.4784930000000003
0
LINE
8
BLACK
6
CONTINUOUS
10
234.3745509999999967
20
-96.4784930000000003
11
234.6588029999999776
21
-96.5685439999999886
0
LINE
8
BLACK
6
CONTINUOUS
10
234.6588029999999776
20
-96.5685439999999886
11
234.9298939999999902
21
-96.6927129999999977
0
LINE
8
BLACK
6
CONTINUOUS
10
234.9298939999999902
20
-96.6927129999999977
11
235.1837459999999851
21
-96.8491329999999948
0
LINE
8
BLACK
6
CONTINUOUS
10
235.1837459999999851
20
-96.8491329999999948
11
235.4165419999999926
21
-97.0354499999999973
0
LINE
8
BLACK
6
CONTINUOUS
10
235.4165419999999926
20
-97.0354499999999973
11
235.624779999999987
21
-97.2488630000000001
0
LINE
8
BLACK
6
CONTINUOUS
10
235.624779999999987
20
-97.2488630000000001
11
235.8053280000000029
21
-97.4861619999999931
0
LINE
8
BLACK
6
CONTINUOUS
10
235.8053280000000029
20
-97.4861619999999931
11
235.9554699999999912
21
-97.7437769999999944
0
LINE
8
BLACK
6
CONTINUOUS
10
235.9554699999999912
20
-97.7437769999999944
11
236.0729479999999967
21
-98.0178339999999935
0
LINE
8
BLACK
6
CONTINUOUS
10
236.0729479999999967
20
-98.0178339999999935
11
236.1559949999999901
21
-98.3042109999999951
0
LINE
8
BLACK
6
CONTINUOUS
10
236.1559949999999901
20
-98.3042109999999951
11
236.2033619999999985
21
-98.598598999999993
0
LINE
8
BLACK
6
CONTINUOUS
10
236.2033619999999985
20
-98.598598999999993
11
236.2143370000000004
21
-98.8965719999999919
0
LINE
8
BLACK
6
CONTINUOUS
10
236.2143370000000004
20
-98.8965719999999919
11
236.1887529999999913
21
-99.1936469999999986
0
LINE
8
BLACK
6
CONTINUOUS
10
236.1887529999999913
20
-99.1936469999999986
11
236.1269969999999887
21
-99.4853569999999934
0
LINE
8
BLACK
6
CONTINUOUS
10
236.1269969999999887
20
-99.4853569999999934
11
236.0299969999999803
21
-99.7673130000000015
0
LINE
8
BLACK
6
CONTINUOUS
10
236.0299969999999803
20
-99.7673130000000015
11
235.8992119999999773
21
-100.0352740000000011
0
LINE
8
BLACK
6
CONTINUOUS
10
235.8992119999999773
20
-100.0352740000000011
11
235.7366089999999872
21
-100.2852109999999897
0
LINE
8
BLACK
6
CONTINUOUS
10
235.7366089999999872
20
-100.2852109999999897
11
235.5446340000000021
21
-100.5133639999999957
0
LINE
8
BLACK
6
CONTINUOUS
10
235.5446340000000021
20
-100.5133639999999957
11
235.3261739999999804
21
-100.7163019999999989
0
LINE
8
BLACK
6
CONTINUOUS
10
235.3261739999999804
20
-100.7163019999999989
11
235.0845159999999794
21
-100.8909709999999933
0
LINE
8
BLACK
6
CONTINUOUS
10
235.0845159999999794
20
-100.8909709999999933
11
234.8232929999999783
21
-101.0347450000000009
0
LINE
8
BLACK
6
CONTINUOUS
10
234.8232929999999783
20
-101.0347450000000009
11
234.5464350000000024
21
-101.1454619999999949
0
LINE
8
BLACK
6
CONTINUOUS
10
234.5464350000000024
20
-101.1454619999999949
11
234.2581069999999954
21
-101.2214549999999917
0
LINE
8
BLACK
6
CONTINUOUS
10
234.2581069999999954
20
-101.2214549999999917
11
233.9626449999999807
21
-101.26158199999999
0
LINE
8
BLACK
6
CONTINUOUS
10
233.9626449999999807
20
-101.26158199999999
11
233.6644919999999956
21
-101.2652399999999915
0
LINE
8
BLACK
6
CONTINUOUS
10
233.6644919999999956
20
-101.2652399999999915
11
233.3681339999999977
21
-101.2323729999999955
0
LINE
8
BLACK
6
CONTINUOUS
10
233.3681339999999977
20
-101.2323729999999955
11
233.0780279999999891
21
-101.1634759999999886
0
LINE
8
BLACK
6
CONTINUOUS
10
233.0780279999999891
20
-101.1634759999999886
11
232.7985379999999793
21
-101.0595849999999984
0
LINE
8
BLACK
6
CONTINUOUS
10
232.7985379999999793
20
-101.0595849999999984
11
232.5338669999999865
21
-100.9222619999999893
0
LINE
8
BLACK
6
CONTINUOUS
10
232.5338669999999865
20
-100.9222619999999893
11
232.2879959999999926
21
-100.7535740000000004
0
LINE
8
BLACK
6
CONTINUOUS
10
232.2879959999999926
20
-100.7535740000000004
11
232.0646239999999807
21
-100.5560569999999956
0
LINE
8
BLACK
6
CONTINUOUS
10
232.0646239999999807
20
-100.5560569999999956
11
232.064645999999982
21
-100.5560339999999968
0
LINE
8
BLACK
6
CONTINUOUS
10
232.064645999999982
20
-100.5560339999999968
11
232.064643999999987
21
-100.5560309999999902
0
LINE
8
BLACK
6
CONTINUOUS
10
232.064643999999987
20
-100.5560309999999902
11
231.2380709999999908
21
-99.7294579999999939
0
LINE
8
BLACK
6
CONTINUOUS
10
231.2380709999999908
20
-99.7294579999999939
11
231.2380369999999914
21
-99.7294069999999948
0
LINE
8
BLACK
6
CONTINUOUS
10
231.2380369999999914
20
-99.7294069999999948
11
231.1441339999999798
21
-99.6394609999999972
0
LINE
8
BLACK
6
CONTINUOUS
10
231.1441339999999798
20
-99.6394609999999972
11
230.9330750000000023
21
-99.4835789999999918
0
LINE
8
BLACK
6
CONTINUOUS
10
230.9330750000000023
20
-99.4835789999999918
11
230.7039429999999811
21
-99.3557380000000023
0
LINE
8
BLACK
6
CONTINUOUS
10
230.7039429999999811
20
-99.3557380000000023
11
230.460441000000003
21
-99.2580059999999946
0
LINE
8
BLACK
6
CONTINUOUS
10
230.460441000000003
20
-99.2580059999999946
11
230.2065059999999903
21
-99.1919619999999895
0
LINE
8
BLACK
6
CONTINUOUS
10
230.2065059999999903
20
-99.1919619999999895
11
229.9462429999999813
21
-99.1586739999999907
0
LINE
8
BLACK
6
CONTINUOUS
10
229.9462429999999813
20
-99.1586739999999907
11
229.8150509999999827
21
-99.1587430000000012
0
LINE
8
BLACK
6
CONTINUOUS
10
229.8150509999999827
20
-99.1587430000000012
11
229.8150459999999953
21
-99.158740999999992
0
LINE
8
BLACK
6
CONTINUOUS
10
229.8150459999999953
20
-99.158740999999992
11
229.815039999999982
21
-99.1587430000000012
0
LINE
8
BLACK
6
CONTINUOUS
10
229.815039999999982
20
-99.1587430000000012
11
212.7770449999999869
21
-99.1587430000000012
0
LINE
8
BLACK
6
CONTINUOUS
10
212.7770449999999869
20
-99.1587430000000012
11
212.7770439999999894
21
-99.1587419999999895
0
LINE
8
BLACK
6
CONTINUOUS
10
212.7770439999999894
20
-99.1587419999999895
11
212.7770439999999894
21
-99.1587430000000012
0
LINE
8
BLACK
6
CONTINUOUS
10
212.7770439999999894
20
-99.1587430000000012
11
212.4826159999999788
21
-99.1422019999999975
0
LINE
8
BLACK
6
CONTINUOUS
10
212.4826159999999788
20
-99.1422019999999975
11
212.1918900000000008
21
-99.0928009999999944
0
LINE
8
BLACK
6
CONTINUOUS
10
212.1918900000000008
20
-99.0928009999999944
11
211.9085239999999999
21
-99.0111610000000013
0
LINE
8
BLACK
6
CONTINUOUS
10
211.9085239999999999
20
-99.0111610000000013
11
211.6360799999999927
21
-98.8983080000000001
0
LINE
8
BLACK
6
CONTINUOUS
10
211.6360799999999927
20
-98.8983080000000001
11
211.3779839999999979
21
-98.7556620000000009
0
LINE
8
BLACK
6
CONTINUOUS
10
211.3779839999999979
20
-98.7556620000000009
11
211.1374819999999772
21
-98.5850149999999985
0
LINE
8
BLACK
6
CONTINUOUS
10
211.1374819999999772
20
-98.5850149999999985
11
210.9176599999999837
21
-98.3885709999999989
0
LINE
8
BLACK
6
CONTINUOUS
10
210.9176599999999837
20
-98.3885709999999989
11
210.9175889999999924
21
-98.3885239999999897
0
LINE
8
BLACK
6
CONTINUOUS
10
210.9175889999999924
20
-98.3885239999999897
11
208.5849969999999871
21
-96.0559310000000011
0
LINE
8
BLACK
6
CONTINUOUS
10
208.5849969999999871
20
-96.0559310000000011
11
208.5849949999999922
21
-96.0559299999999894
0
LINE
8
BLACK
6
CONTINUOUS
10
208.5849949999999922
20
-96.0559299999999894
11
208.5849809999999991
21
-96.0559449999999941
0
LINE
8
BLACK
6
CONTINUOUS
10
208.5849809999999991
20
-96.0559449999999941
11
208.4845279999999832
21
-95.9554899999999975
0
LINE
8
BLACK
6
CONTINUOUS
10
208.4845279999999832
20
-95.9554899999999975
11
208.2623919999999771
21
-95.7783390000000026
0
LINE
8
BLACK
6
CONTINUOUS
10
208.2623919999999771
20
-95.7783390000000026
11
208.0218169999999986
21
-95.6271729999999991
0
LINE
8
BLACK
6
CONTINUOUS
10
208.0218169999999986
20
-95.6271729999999991
11
207.7658309999999915
21
-95.5038919999999933
0
LINE
8
BLACK
6
CONTINUOUS
10
207.7658309999999915
20
-95.5038919999999933
11
207.4976509999999905
21
-95.4100479999999891
0
LINE
8
BLACK
6
CONTINUOUS
10
207.4976509999999905
20
-95.4100479999999891
11
207.2206499999999778
21
-95.3468199999999939
0
LINE
8
BLACK
6
CONTINUOUS
10
207.2206499999999778
20
-95.3468199999999939
11
206.9383119999999963
21
-95.3150029999999902
0
LINE
8
BLACK
6
CONTINUOUS
10
206.9383119999999963
20
-95.3150029999999902
11
206.7962489999999889
21
-95.3149999999999977
0
LINE
8
BLACK
6
CONTINUOUS
10
206.7962489999999889
20
-95.3149999999999977
11
206.7668599999999799
21
-95.3054499999999933
0
LINE
8
BLACK
6
CONTINUOUS
10
206.7668599999999799
20
-95.3054499999999933
11
206.7556349999999838
21
-95.2899989999999946
0
LINE
8
BLACK
6
CONTINUOUS
10
206.7556349999999838
20
-95.2899989999999946
11
156.8306340000000034
21
-95.2899759999999958
0
LINE
8
BLACK
6
CONTINUOUS
10
156.8306340000000034
20
-95.2899759999999958
11
156.819389000000001
21
-95.3054539999999974
0
LINE
8
BLACK
6
CONTINUOUS
10
156.819389000000001
20
-95.3054539999999974
11
156.789999999999992
21
-95.3150029999999902
0
LINE
8
BLACK
6
CONTINUOUS
10
156.789999999999992
20
-95.3150029999999902
11
156.789999999999992
21
-95.3149749999999898
0
LINE
8
BLACK
6
CONTINUOUS
10
156.789999999999992
20
-95.3149749999999898
11
156.7237859999999898
21
-95.3149749999999898
0
LINE
8
BLACK
6
CONTINUOUS
10
156.7237859999999898
20
-95.3149749999999898
11
156.5952049999999929
21
-95.346667999999994
0
LINE
8
BLACK
6
CONTINUOUS
10
156.5952049999999929
20
-95.346667999999994
11
156.4779450000000054
21
-95.4082099999999969
0
LINE
8
BLACK
6
CONTINUOUS
10
156.4779450000000054
20
-95.4082099999999969
11
156.3788209999999879
21
-95.496026999999998
0
LINE
8
BLACK
6
CONTINUOUS
10
156.3788209999999879
20
-95.496026999999998
11
156.3035919999999805
21
-95.6050139999999971
0
LINE
8
BLACK
6
CONTINUOUS
10
156.3035919999999805
20
-95.6050139999999971
11
156.2566329999999937
21
-95.7288369999999986
0
LINE
8
BLACK
6
CONTINUOUS
10
156.2566329999999937
20
-95.7288369999999986
11
156.2406699999999944
21
-95.8602999999999952
0
LINE
8
BLACK
6
CONTINUOUS
10
156.2406699999999944
20
-95.8602999999999952
11
156.2566329999999937
21
-95.9917629999999917
0
LINE
8
BLACK
6
CONTINUOUS
10
156.2566329999999937
20
-95.9917629999999917
11
156.3035919999999805
21
-96.1155859999999933
0
LINE
8
BLACK
6
CONTINUOUS
10
156.3035919999999805
20
-96.1155859999999933
11
156.3788209999999879
21
-96.2245729999999924
0
LINE
8
BLACK
6
CONTINUOUS
10
156.3788209999999879
20
-96.2245729999999924
11
156.4779450000000054
21
-96.3123899999999935
0
LINE
8
BLACK
6
CONTINUOUS
10
156.4779450000000054
20
-96.3123899999999935
11
156.5952049999999929
21
-96.3739319999999964
0
LINE
8
BLACK
6
CONTINUOUS
10
156.5952049999999929
20
-96.3739319999999964
11
156.7237859999999898
21
-96.4056250000000006
0
LINE
8
BLACK
6
CONTINUOUS
10
156.7237859999999898
20
-96.4056250000000006
11
156.789999999999992
21
-96.4056250000000006
0
LINE
8
BLACK
6
CONTINUOUS
10
156.789999999999992
20
-96.4056250000000006
11
176.6337999999999795
21
-96.4056309999999996
0
LINE
8
BLACK
6
CONTINUOUS
10
176.6337999999999795
20
-96.4056309999999996
11
176.9314139999999895
21
-96.4239149999999938
0
LINE
8
BLACK
6
CONTINUOUS
10
176.9314139999999895
20
-96.4239149999999938
11
177.2245509999999911
21
-96.4784930000000003
0
LINE
8
BLACK
6
CONTINUOUS
10
177.2245509999999911
20
-96.4784930000000003
11
177.5088030000000003
21
-96.5685439999999886
0
LINE
8
BLACK
6
CONTINUOUS
10
177.5088030000000003
20
-96.5685439999999886
11
177.7798939999999845
21
-96.6927129999999977
0
LINE
8
BLACK
6
CONTINUOUS
10
177.7798939999999845
20
-96.6927129999999977
11
178.0337459999999794
21
-96.8491329999999948
0
LINE
8
BLACK
6
CONTINUOUS
10
178.0337459999999794
20
-96.8491329999999948
11
178.266541999999987
21
-97.0354499999999973
0
LINE
8
BLACK
6
CONTINUOUS
10
178.266541999999987
20
-97.0354499999999973
11
178.4747799999999813
21
-97.2488630000000001
0
LINE
8
BLACK
6
CONTINUOUS
10
178.4747799999999813
20
-97.2488630000000001
11
178.6553279999999972
21
-97.4861619999999931
0
LINE
8
BLACK
6
CONTINUOUS
10
178.6553279999999972
20
-97.4861619999999931
11
178.8054699999999855
21
-97.7437769999999944
0
LINE
8
BLACK
6
CONTINUOUS
10
178.8054699999999855
20
-97.7437769999999944
11
178.922947999999991
21
-98.0178339999999935
0
LINE
8
BLACK
6
CONTINUOUS
10
178.922947999999991
20
-98.0178339999999935
11
179.0059949999999844
21
-98.3042109999999951
0
LINE
8
BLACK
6
CONTINUOUS
10
179.0059949999999844
20
-98.3042109999999951
11
179.0533619999999928
21
-98.598598999999993
0
LINE
8
BLACK
6
CONTINUOUS
10
179.0533619999999928
20
-98.598598999999993
11
179.0643369999999948
21
-98.8965719999999919
0
LINE
8
BLACK
6
CONTINUOUS
10
179.0643369999999948
20
-98.8965719999999919
11
179.0387529999999856
21
-99.1936469999999986
0
LINE
8
BLACK
6
CONTINUOUS
10
179.0387529999999856
20
-99.1936469999999986
11
178.976996999999983
21
-99.4853569999999934
0
LINE
8
BLACK
6
CONTINUOUS
10
178.976996999999983
20
-99.4853569999999934
11
178.879997000000003
21
-99.7673130000000015
0
LINE
8
BLACK
6
CONTINUOUS
10
178.879997000000003
20
-99.7673130000000015
11
178.749212
21
-100.0352740000000011
0
LINE
8
BLACK
6
CONTINUOUS
10
178.749212
20
-100.0352740000000011
11
178.5866089999999815
21
-100.2852109999999897
0
LINE
8
BLACK
6
CONTINUOUS
10
178.5866089999999815
20
-100.2852109999999897
11
178.3946339999999964
21
-100.5133639999999957
0
LINE
8
BLACK
6
CONTINUOUS
10
178.3946339999999964
20
-100.5133639999999957
11
178.1761740000000032
21
-100.7163019999999989
0
LINE
8
BLACK
6
CONTINUOUS
10
178.1761740000000032
20
-100.7163019999999989
11
177.9345160000000021
21
-100.8909709999999933
0
LINE
8
BLACK
6
CONTINUOUS
10
177.9345160000000021
20
-100.8909709999999933
11
177.673293000000001
21
-101.0347450000000009
0
LINE
8
BLACK
6
CONTINUOUS
10
177.673293000000001
20
-101.0347450000000009
11
177.3964349999999968
21
-101.1454619999999949
0
LINE
8
BLACK
6
CONTINUOUS
10
177.3964349999999968
20
-101.1454619999999949
11
177.1081069999999897
21
-101.2214549999999917
0
LINE
8
BLACK
6
CONTINUOUS
10
177.1081069999999897
20
-101.2214549999999917
11
176.8126450000000034
21
-101.26158199999999
0
LINE
8
BLACK
6
CONTINUOUS
10
176.8126450000000034
20
-101.26158199999999
11
176.51449199999999
21
-101.2652399999999915
0
LINE
8
BLACK
6
CONTINUOUS
10
176.51449199999999
20
-101.2652399999999915
11
176.2181339999999921
21
-101.2323729999999955
0
LINE
8
BLACK
6
CONTINUOUS
10
176.2181339999999921
20
-101.2323729999999955
11
175.9280279999999834
21
-101.1634759999999886
0
LINE
8
BLACK
6
CONTINUOUS
10
175.9280279999999834
20
-101.1634759999999886
11
175.6485380000000021
21
-101.0595849999999984
0
LINE
8
BLACK
6
CONTINUOUS
10
175.6485380000000021
20
-101.0595849999999984
11
175.3838669999999809
21
-100.9222619999999893
0
LINE
8
BLACK
6
CONTINUOUS
10
175.3838669999999809
20
-100.9222619999999893
11
175.1379959999999869
21
-100.7535740000000004
0
LINE
8
BLACK
6
CONTINUOUS
10
175.1379959999999869
20
-100.7535740000000004
11
174.9146240000000034
21
-100.5560569999999956
0
LINE
8
BLACK
6
CONTINUOUS
10
174.9146240000000034
20
-100.5560569999999956
11
174.9146460000000047
21
-100.5560339999999968
0
LINE
8
BLACK
6
CONTINUOUS
10
174.9146460000000047
20
-100.5560339999999968
11
174.9146439999999814
21
-100.5560309999999902
0
LINE
8
BLACK
6
CONTINUOUS
10
174.9146439999999814
20
-100.5560309999999902
11
174.0880709999999851
21
-99.7294579999999939
0
LINE
8
BLACK
6
CONTINUOUS
10
174.0880709999999851
20
-99.7294579999999939
11
174.0880369999999857
21
-99.7294069999999948
0
LINE
8
BLACK
6
CONTINUOUS
10
174.0880369999999857
20
-99.7294069999999948
11
173.9941340000000025
21
-99.6394609999999972
0
LINE
8
BLACK
6
CONTINUOUS
10
173.9941340000000025
20
-99.6394609999999972
11
173.7830749999999966
21
-99.4835789999999918
0
LINE
8
BLACK
6
CONTINUOUS
10
173.7830749999999966
20
-99.4835789999999918
11
173.5539430000000038
21
-99.3557380000000023
0
LINE
8
BLACK
6
CONTINUOUS
10
173.5539430000000038
20
-99.3557380000000023
11
173.3104409999999973
21
-99.2580059999999946
0
LINE
8
BLACK
6
CONTINUOUS
10
173.3104409999999973
20
-99.2580059999999946
11
173.0565059999999846
21
-99.1919619999999895
0
LINE
8
BLACK
6
CONTINUOUS
10
173.0565059999999846
20
-99.1919619999999895
11
172.796243000000004
21
-99.1586739999999907
0
LINE
8
BLACK
6
CONTINUOUS
10
172.796243000000004
20
-99.1586739999999907
11
172.6650510000000054
21
-99.1587430000000012
0
LINE
8
BLACK
6
CONTINUOUS
10
172.6650510000000054
20
-99.1587430000000012
11
172.6650459999999896
21
-99.158740999999992
0
LINE
8
BLACK
6
CONTINUOUS
10
172.6650459999999896
20
-99.158740999999992
11
172.6650400000000047
21
-99.1587430000000012
0
LINE
8
BLACK
6
CONTINUOUS
10
172.6650400000000047
20
-99.1587430000000012
11
155.6270449999999812
21
-99.1587430000000012
0
LINE
8
BLACK
6
CONTINUOUS
10
155.6270449999999812
20
-99.1587430000000012
11
155.6270439999999837
21
-99.1587419999999895
0
LINE
8
BLACK
6
CONTINUOUS
10
155.6270439999999837
20
-99.1587419999999895
11
155.6270439999999837
21
-99.1587430000000012
0
LINE
8
BLACK
6
CONTINUOUS
10
155.6270439999999837
20
-99.1587430000000012
11
155.3326160000000016
21
-99.1422019999999975
0
LINE
8
BLACK
6
CONTINUOUS
10
155.3326160000000016
20
-99.1422019999999975
11
155.0418899999999951
21
-99.0928009999999944
0
LINE
8
BLACK
6
CONTINUOUS
10
155.0418899999999951
20
-99.0928009999999944
11
154.7585239999999942
21
-99.0111610000000013
0
LINE
8
BLACK
6
CONTINUOUS
10
154.7585239999999942
20
-99.0111610000000013
11
154.486079999999987
21
-98.8983080000000001
0
LINE
8
BLACK
6
CONTINUOUS
10
154.486079999999987
20
-98.8983080000000001
11
154.2279839999999922
21
-98.7556620000000009
0
LINE
8
BLACK
6
CONTINUOUS
10
154.2279839999999922
20
-98.7556620000000009
11
153.987482
21
-98.5850149999999985
0
LINE
8
BLACK
6
CONTINUOUS
10
153.987482
20
-98.5850149999999985
11
153.7676600000000064
21
-98.3885709999999989
0
LINE
8
BLACK
6
CONTINUOUS
10
153.7676600000000064
20
-98.3885709999999989
11
153.7675889999999868
21
-98.3885239999999897
0
LINE
8
BLACK
6
CONTINUOUS
10
153.7675889999999868
20
-98.3885239999999897
11
151.4349969999999814
21
-96.0559310000000011
0
LINE
8
BLACK
6
CONTINUOUS
10
151.4349969999999814
20
-96.0559310000000011
11
151.4349949999999865
21
-96.0559299999999894
0
LINE
8
BLACK
6
CONTINUOUS
10
151.4349949999999865
20
-96.0559299999999894
11
151.4349809999999934
21
-96.0559449999999941
0
LINE
8
BLACK
6
CONTINUOUS
10
151.4349809999999934
20
-96.0559449999999941
11
151.3345280000000059
21
-95.9554899999999975
0
LINE
8
BLACK
6
CONTINUOUS
10
151.3345280000000059
20
-95.9554899999999975
11
151.1123919999999998
21
-95.7783390000000026
0
LINE
8
BLACK
6
CONTINUOUS
10
151.1123919999999998
20
-95.7783390000000026
11
150.871816999999993
21
-95.6271729999999991
0
LINE
8
BLACK
6
CONTINUOUS
10
150.871816999999993
20
-95.6271729999999991
11
150.6158309999999858
21
-95.5038919999999933
0
LINE
8
BLACK
6
CONTINUOUS
10
150.6158309999999858
20
-95.5038919999999933
11
150.3476509999999848
21
-95.4100479999999891
0
LINE
8
BLACK
6
CONTINUOUS
10
150.3476509999999848
20
-95.4100479999999891
11
150.0706500000000005
21
-95.3468199999999939
0
LINE
8
BLACK
6
CONTINUOUS
10
150.0706500000000005
20
-95.3468199999999939
11
149.7883119999999906
21
-95.3150029999999902
0
LINE
8
BLACK
6
CONTINUOUS
10
149.7883119999999906
20
-95.3150029999999902
11
149.6462489999999832
21
-95.3149999999999977
0
LINE
8
BLACK
6
CONTINUOUS
10
149.6462489999999832
20
-95.3149999999999977
11
149.6168600000000026
21
-95.3054499999999933
0
LINE
8
BLACK
6
CONTINUOUS
10
149.6168600000000026
20
-95.3054499999999933
11
149.6056350000000066
21
-95.2899989999999946
0
LINE
8
BLACK
6
CONTINUOUS
10
149.6056350000000066
20
-95.2899989999999946
11
106.8243639999999886
21
-95.2899969999999996
0
LINE
8
BLACK
6
CONTINUOUS
10
106.8243639999999886
20
-95.2899969999999996
11
106.81313999999999
21
-95.3054470000000009
0
LINE
8
BLACK
6
CONTINUOUS
10
106.81313999999999
20
-95.3054470000000009
11
106.7837509999999952
21
-95.3149969999999911
0
LINE
8
BLACK
6
CONTINUOUS
10
106.7837509999999952
20
-95.3149969999999911
11
106.7837509999999952
21
-95.3149779999999964
0
LINE
8
BLACK
6
CONTINUOUS
10
106.7837509999999952
20
-95.3149779999999964
11
106.6416869999999903
21
-95.3149809999999889
0
LINE
8
BLACK
6
CONTINUOUS
10
106.6416869999999903
20
-95.3149809999999889
11
106.3593469999999996
21
-95.3467979999999926
0
LINE
8
BLACK
6
CONTINUOUS
10
106.3593469999999996
20
-95.3467979999999926
11
106.082343999999992
21
-95.410026000000002
0
LINE
8
BLACK
6
CONTINUOUS
10
106.082343999999992
20
-95.410026000000002
11
105.8141619999999961
21
-95.5038709999999895
0
LINE
8
BLACK
6
CONTINUOUS
10
105.8141619999999961
20
-95.5038709999999895
11
105.5581729999999965
21
-95.6271529999999927
0
LINE
8
BLACK
6
CONTINUOUS
10
105.5581729999999965
20
-95.6271529999999927
11
105.3175969999999921
21
-95.7783199999999937
0
LINE
8
BLACK
6
CONTINUOUS
10
105.3175969999999921
20
-95.7783199999999937
11
105.0954589999999911
21
-95.9554729999999978
0
LINE
8
BLACK
6
CONTINUOUS
10
105.0954589999999911
20
-95.9554729999999978
11
104.9950049999999919
21
-96.0559279999999944
0
LINE
8
BLACK
6
CONTINUOUS
10
104.9950049999999919
20
-96.0559279999999944
11
104.9950049999999919
21
-96.055926999999997
0
LINE
8
BLACK
6
CONTINUOUS
10
104.9950049999999919
20
-96.055926999999997
11
102.6624109999999916
21
-98.3885199999999998
0
LINE
8
BLACK
6
CONTINUOUS
10
102.6624109999999916
20
-98.3885199999999998
11
102.4425249999999892
21
-98.5850209999999976
0
LINE
8
BLACK
6
CONTINUOUS
10
102.4425249999999892
20
-98.5850209999999976
11
102.2020219999999995
21
-98.7556689999999975
0
LINE
8
BLACK
6
CONTINUOUS
10
102.2020219999999995
20
-98.7556689999999975
11
101.943924999999993
21
-98.8983159999999941
0
LINE
8
BLACK
6
CONTINUOUS
10
101.943924999999993
20
-98.8983159999999941
11
101.6714799999999883
21
-99.0111689999999953
0
LINE
8
BLACK
6
CONTINUOUS
10
101.6714799999999883
20
-99.0111689999999953
11
101.3881119999999925
21
-99.0928100000000001
0
LINE
8
BLACK
6
CONTINUOUS
10
101.3881119999999925
20
-99.0928100000000001
11
101.0973860000000002
21
-99.142210999999989
0
LINE
8
BLACK
6
CONTINUOUS
10
101.0973860000000002
20
-99.142210999999989
11
100.8029559999999947
21
-99.1587519999999927
0
LINE
8
BLACK
6
CONTINUOUS
10
100.8029559999999947
20
-99.1587519999999927
11
100.8029559999999947
21
-99.1587399999999946
0
LINE
8
BLACK
6
CONTINUOUS
10
100.8029559999999947
20
-99.1587399999999946
11
100.8029549999999972
21
-99.1587389999999971
0
LINE
8
BLACK
6
CONTINUOUS
10
100.8029549999999972
20
-99.1587389999999971
11
100.8029549999999972
21
-99.1587399999999946
0
LINE
8
BLACK
6
CONTINUOUS
10
100.8029549999999972
20
-99.1587399999999946
11
83.7649600000000021
21
-99.1587399999999946
0
LINE
8
BLACK
6
CONTINUOUS
10
83.7649600000000021
20
-99.1587399999999946
11
83.7649529999999913
21
-99.1587379999999996
0
LINE
8
BLACK
6
CONTINUOUS
10
83.7649529999999913
20
-99.1587379999999996
11
83.7649490000000014
21
-99.1587399999999946
0
LINE
8
BLACK
6
CONTINUOUS
10
83.7649490000000014
20
-99.1587399999999946
11
83.7649490000000014
21
-99.1587679999999949
0
LINE
8
BLACK
6
CONTINUOUS
10
83.7649490000000014
20
-99.1587679999999949
11
83.6337589999999977
21
-99.1586989999999986
0
LINE
8
BLACK
6
CONTINUOUS
10
83.6337589999999977
20
-99.1586989999999986
11
83.3734999999999928
21
-99.1919869999999975
0
LINE
8
BLACK
6
CONTINUOUS
10
83.3734999999999928
20
-99.1919869999999975
11
83.119568000000001
21
-99.2580299999999909
0
LINE
8
BLACK
6
CONTINUOUS
10
83.119568000000001
20
-99.2580299999999909
11
82.8760690000000011
21
-99.3557599999999894
0
LINE
8
BLACK
6
CONTINUOUS
10
82.8760690000000011
20
-99.3557599999999894
11
82.6469390000000033
21
-99.4835989999999981
0
LINE
8
BLACK
6
CONTINUOUS
10
82.6469390000000033
20
-99.4835989999999981
11
82.4358840000000015
21
-99.6394789999999944
0
LINE
8
BLACK
6
CONTINUOUS
10
82.4358840000000015
20
-99.6394789999999944
11
82.3414519999999897
21
-99.7299309999999934
0
LINE
8
BLACK
6
CONTINUOUS
10
82.3414519999999897
20
-99.7299309999999934
11
81.5153549999999996
21
-100.5560279999999977
0
LINE
8
BLACK
6
CONTINUOUS
10
81.5153549999999996
20
-100.5560279999999977
11
81.5153540000000021
21
-100.5560309999999902
0
LINE
8
BLACK
6
CONTINUOUS
10
81.5153540000000021
20
-100.5560309999999902
11
81.5153529999999904
21
-100.5560309999999902
0
LINE
8
BLACK
6
CONTINUOUS
10
81.5153529999999904
20
-100.5560309999999902
11
81.2919839999999994
21
-100.7535449999999884
0
LINE
8
BLACK
6
CONTINUOUS
10
81.2919839999999994
20
-100.7535449999999884
11
81.0461169999999953
21
-100.9222309999999965
0
LINE
8
BLACK
6
CONTINUOUS
10
81.0461169999999953
20
-100.9222309999999965
11
80.7814499999999924
21
-101.0595519999999965
0
LINE
8
BLACK
6
CONTINUOUS
10
80.7814499999999924
20
-101.0595519999999965
11
80.5019629999999893
21
-101.1634419999999892
0
LINE
8
BLACK
6
CONTINUOUS
10
80.5019629999999893
20
-101.1634419999999892
11
80.2118619999999964
21
-101.2323379999999986
0
LINE
8
BLACK
6
CONTINUOUS
10
80.2118619999999964
20
-101.2323379999999986
11
79.9155080000000027
21
-101.2652049999999946
0
LINE
8
BLACK
6
CONTINUOUS
10
79.9155080000000027
20
-101.2652049999999946
11
79.6173599999999908
21
-101.2615469999999931
0
LINE
8
BLACK
6
CONTINUOUS
10
79.6173599999999908
20
-101.2615469999999931
11
79.3219009999999969
21
-101.2214209999999923
0
LINE
8
BLACK
6
CONTINUOUS
10
79.3219009999999969
20
-101.2214209999999923
11
79.033576999999994
21
-101.1454289999999929
0
LINE
8
BLACK
6
CONTINUOUS
10
79.033576999999994
20
-101.1454289999999929
11
78.7567229999999938
21
-101.0347139999999939
0
LINE
8
BLACK
6
CONTINUOUS
10
78.7567229999999938
20
-101.0347139999999939
11
78.4955039999999968
21
-100.8909419999999955
0
LINE
8
BLACK
6
CONTINUOUS
10
78.4955039999999968
20
-100.8909419999999955
11
78.2538490000000024
21
-100.7162759999999935
0
LINE
8
BLACK
6
CONTINUOUS
10
78.2538490000000024
20
-100.7162759999999935
11
78.0353920000000016
21
-100.5133409999999969
0
LINE
8
BLACK
6
CONTINUOUS
10
78.0353920000000016
20
-100.5133409999999969
11
77.8434199999999947
21
-100.285191999999995
0
LINE
8
BLACK
6
CONTINUOUS
10
77.8434199999999947
20
-100.285191999999995
11
77.6808189999999996
21
-100.0352579999999989
0
LINE
8
BLACK
6
CONTINUOUS
10
77.6808189999999996
20
-100.0352579999999989
11
77.5500359999999915
21
-99.7672999999999917
0
LINE
8
BLACK
6
CONTINUOUS
10
77.5500359999999915
20
-99.7672999999999917
11
77.4530369999999948
21
-99.4853480000000019
0
LINE
8
BLACK
6
CONTINUOUS
10
77.4530369999999948
20
-99.4853480000000019
11
77.3912809999999922
21
-99.1936429999999945
0
LINE
8
BLACK
6
CONTINUOUS
10
77.3912809999999922
20
-99.1936429999999945
11
77.3656979999999947
21
-98.8965719999999919
0
LINE
8
BLACK
6
CONTINUOUS
10
77.3656979999999947
20
-98.8965719999999919
11
77.3766719999999992
21
-98.5986029999999971
0
LINE
8
BLACK
6
CONTINUOUS
10
77.3766719999999992
20
-98.5986029999999971
11
77.4240389999999934
21
-98.3042189999999891
0
LINE
8
BLACK
6
CONTINUOUS
10
77.4240389999999934
20
-98.3042189999999891
11
77.5070839999999919
21
-98.0178469999999891
0
LINE
8
BLACK
6
CONTINUOUS
10
77.5070839999999919
20
-98.0178469999999891
11
77.6245609999999999
21
-97.7437939999999941
0
LINE
8
BLACK
6
CONTINUOUS
10
77.6245609999999999
20
-97.7437939999999941
11
77.7747009999999932
21
-97.4861819999999994
0
LINE
8
BLACK
6
CONTINUOUS
10
77.7747009999999932
20
-97.4861819999999994
11
77.9552460000000025
21
-97.2488869999999963
0
LINE
8
BLACK
6
CONTINUOUS
10
77.9552460000000025
20
-97.2488869999999963
11
78.1634809999999902
21
-97.0354759999999885
0
LINE
8
BLACK
6
CONTINUOUS
10
78.1634809999999902
20
-97.0354759999999885
11
78.3962739999999911
21
-96.8491609999999952
0
LINE
8
BLACK
6
CONTINUOUS
10
78.3962739999999911
20
-96.8491609999999952
11
78.6501219999999961
21
-96.6927439999999905
0
LINE
8
BLACK
6
CONTINUOUS
10
78.6501219999999961
20
-96.6927439999999905
11
78.9212100000000021
21
-96.5685769999999906
0
LINE
8
BLACK
6
CONTINUOUS
10
78.9212100000000021
20
-96.5685769999999906
11
79.2054569999999956
21
-96.4785269999999997
0
LINE
8
BLACK
6
CONTINUOUS
10
79.2054569999999956
20
-96.4785269999999997
11
79.4985909999999905
21
-96.4239499999999907
0
LINE
8
BLACK
6
CONTINUOUS
10
79.4985909999999905
20
-96.4239499999999907
11
79.7959230000000019
21
-96.4056819999999988
0
LINE
8
BLACK
6
CONTINUOUS
10
79.7959230000000019
20
-96.4056819999999988
11
79.7961999999999989
21
-96.405627999999993
0
LINE
8
BLACK
6
CONTINUOUS
10
79.7961999999999989
20
-96.405627999999993
11
99.6400000000000006
21
-96.4056219999999939
0
LINE
8
BLACK
6
CONTINUOUS
10
99.6400000000000006
20
-96.4056219999999939
11
99.6400000000000006
21
-96.4055999999999926
0
LINE
8
BLACK
6
CONTINUOUS
10
99.6400000000000006
20
-96.4055999999999926
11
99.7062109999999961
21
-96.4055999999999926
0
LINE
8
BLACK
6
CONTINUOUS
10
99.7062109999999961
20
-96.4055999999999926
11
99.834785999999994
21
-96.3739089999999976
0
LINE
8
BLACK
6
CONTINUOUS
10
99.834785999999994
20
-96.3739089999999976
11
99.9520409999999941
21
-96.3123689999999897
0
LINE
8
BLACK
6
CONTINUOUS
10
99.9520409999999941
20
-96.3123689999999897
11
100.0511609999999934
21
-96.2245569999999901
0
LINE
8
BLACK
6
CONTINUOUS
10
100.0511609999999934
20
-96.2245569999999901
11
100.1263849999999991
21
-96.1155749999999927
0
LINE
8
BLACK
6
CONTINUOUS
10
100.1263849999999991
20
-96.1155749999999927
11
100.1733429999999885
21
-95.9917569999999927
0
LINE
8
BLACK
6
CONTINUOUS
10
100.1733429999999885
20
-95.9917569999999927
11
100.1893049999999903
21
-95.8602999999999952
0
LINE
8
BLACK
6
CONTINUOUS
10
100.1893049999999903
20
-95.8602999999999952
11
100.1733429999999885
21
-95.7288429999999977
0
LINE
8
BLACK
6
CONTINUOUS
10
100.1733429999999885
20
-95.7288429999999977
11
100.1263849999999991
21
-95.6050249999999977
0
LINE
8
BLACK
6
CONTINUOUS
10
100.1263849999999991
20
-95.6050249999999977
11
100.0511609999999934
21
-95.4960430000000002
0
LINE
8
BLACK
6
CONTINUOUS
10
100.0511609999999934
20
-95.4960430000000002
11
99.9520409999999941
21
-95.4082310000000007
0
LINE
8
BLACK
6
CONTINUOUS
10
99.9520409999999941
20
-95.4082310000000007
11
99.834785999999994
21
-95.3466909999999928
0
LINE
8
BLACK
6
CONTINUOUS
10
99.834785999999994
20
-95.3466909999999928
11
99.7062109999999961
21
-95.3149999999999977
0
LINE
8
BLACK
6
CONTINUOUS
10
99.7062109999999961
20
-95.3149999999999977
11
99.6400000000000006
21
-95.3149999999999977
0
LINE
8
BLACK
6
CONTINUOUS
10
99.6400000000000006
20
-95.3149999999999977
11
99.6106109999999916
21
-95.3054509999999908
0
LINE
8
BLACK
6
CONTINUOUS
10
99.6106109999999916
20
-95.3054509999999908
11
99.5993840000000006
21
-95.2899989999999946
0
LINE
8
BLACK
6
CONTINUOUS
10
99.5993840000000006
20
-95.2899989999999946
11
49.8181149999999988
21
-95.2899969999999996
0
LINE
8
BLACK
6
CONTINUOUS
10
49.8181149999999988
20
-95.2899969999999996
11
49.8068889999999982
21
-95.3054479999999984
0
LINE
8
BLACK
6
CONTINUOUS
10
49.8068889999999982
20
-95.3054479999999984
11
49.7774999999999963
21
-95.3149969999999911
0
LINE
8
BLACK
6
CONTINUOUS
10
49.7774999999999963
20
-95.3149969999999911
11
49.7774999999999963
21
-95.3150129999999933
0
LINE
8
BLACK
6
CONTINUOUS
10
49.7774999999999963
20
-95.3150129999999933
11
49.635436999999996
21
-95.3150129999999933
0
LINE
8
BLACK
6
CONTINUOUS
10
49.635436999999996
20
-95.3150129999999933
11
49.3530979999999957
21
-95.3468249999999955
0
LINE
8
BLACK
6
CONTINUOUS
10
49.3530979999999957
20
-95.3468249999999955
11
49.0760959999999997
21
-95.4100479999999891
0
LINE
8
BLACK
6
CONTINUOUS
10
49.0760959999999997
20
-95.4100479999999891
11
48.8079139999999967
21
-95.5038879999999892
0
LINE
8
BLACK
6
CONTINUOUS
10
48.8079139999999967
20
-95.5038879999999892
11
48.5519249999999971
21
-95.6271639999999934
0
LINE
8
BLACK
6
CONTINUOUS
10
48.5519249999999971
20
-95.6271639999999934
11
48.3113479999999953
21
-95.7783269999999902
0
LINE
8
BLACK
6
CONTINUOUS
10
48.3113479999999953
20
-95.7783269999999902
11
48.0892089999999968
21
-95.9554749999999927
0
LINE
8
BLACK
6
CONTINUOUS
10
48.0892089999999968
20
-95.9554749999999927
11
47.9887540000000001
21
-96.055926999999997
0
LINE
8
BLACK
6
CONTINUOUS
10
47.9887540000000001
20
-96.055926999999997
11
47.9887549999999976
21
-96.055926999999997
0
LINE
8
BLACK
6
CONTINUOUS
10
47.9887549999999976
20
-96.055926999999997
11
45.6561619999999948
21
-98.3885179999999906
0
LINE
8
BLACK
6
CONTINUOUS
10
45.6561619999999948
20
-98.3885179999999906
11
45.6561609999999973
21
-98.3885209999999972
0
LINE
8
BLACK
6
CONTINUOUS
10
45.6561609999999973
20
-98.3885209999999972
11
45.4362739999999974
21
-98.5850179999999909
0
LINE
8
BLACK
6
CONTINUOUS
10
45.4362739999999974
20
-98.5850179999999909
11
45.1957689999999985
21
-98.7556599999999918
0
LINE
8
BLACK
6
CONTINUOUS
10
45.1957689999999985
20
-98.7556599999999918
11
44.9376719999999992
21
-98.8983029999999985
0
LINE
8
BLACK
6
CONTINUOUS
10
44.9376719999999992
20
-98.8983029999999985
11
44.665225999999997
21
-99.0111509999999981
0
LINE
8
BLACK
6
CONTINUOUS
10
44.665225999999997
20
-99.0111509999999981
11
44.3818589999999986
21
-99.0927859999999896
0
LINE
8
BLACK
6
CONTINUOUS
10
44.3818589999999986
20
-99.0927859999999896
11
44.0911329999999992
21
-99.1421819999999911
0
LINE
8
BLACK
6
CONTINUOUS
10
44.0911329999999992
20
-99.1421819999999911
11
43.7968660000000014
21
-99.1587069999999926
0
LINE
8
BLACK
6
CONTINUOUS
10
43.7968660000000014
20
-99.1587069999999926
11
43.7967049999999958
21
-99.1587399999999946
0
LINE
8
BLACK
6
CONTINUOUS
10
43.7967049999999958
20
-99.1587399999999946
11
26.7587099999999971
21
-99.1587399999999946
0
LINE
8
BLACK
6
CONTINUOUS
10
26.7587099999999971
20
-99.1587399999999946
11
26.758702999999997
21
-99.1587379999999996
0
LINE
8
BLACK
6
CONTINUOUS
10
26.758702999999997
20
-99.1587379999999996
11
26.7586999999999975
21
-99.1587399999999946
0
LINE
8
BLACK
6
CONTINUOUS
10
26.7586999999999975
20
-99.1587399999999946
11
26.7586999999999975
21
-99.1587379999999996
0
LINE
8
BLACK
6
CONTINUOUS
10
26.7586999999999975
20
-99.1587379999999996
11
26.7586739999999992
21
-99.1587320000000005
0
LINE
8
BLACK
6
CONTINUOUS
10
26.7586739999999992
20
-99.1587320000000005
11
26.6275089999999999
21
-99.1586669999999941
0
LINE
8
BLACK
6
CONTINUOUS
10
26.6275089999999999
20
-99.1586669999999941
11
26.367248
21
-99.1919609999999921
0
LINE
8
BLACK
6
CONTINUOUS
10
26.367248
20
-99.1919609999999921
11
26.1133159999999975
21
-99.2580099999999987
0
LINE
8
BLACK
6
CONTINUOUS
10
26.1133159999999975
20
-99.2580099999999987
11
25.8698169999999976
21
-99.3557469999999938
0
LINE
8
BLACK
6
CONTINUOUS
10
25.8698169999999976
20
-99.3557469999999938
11
25.6406879999999973
21
-99.4835909999999899
0
LINE
8
BLACK
6
CONTINUOUS
10
25.6406879999999973
20
-99.4835909999999899
11
25.429632999999999
21
-99.6394760000000019
0
LINE
8
BLACK
6
CONTINUOUS
10
25.429632999999999
20
-99.6394760000000019
11
25.3352259999999987
21
-99.7299069999999972
0
LINE
8
BLACK
6
CONTINUOUS
10
25.3352259999999987
20
-99.7299069999999972
11
24.5091029999999996
21
-100.5560309999999902
0
LINE
8
BLACK
6
CONTINUOUS
10
24.5091029999999996
20
-100.5560309999999902
11
24.2857319999999994
21
-100.7535449999999884
0
LINE
8
BLACK
6
CONTINUOUS
10
24.2857319999999994
20
-100.7535449999999884
11
24.0398619999999994
21
-100.922229999999999
0
LINE
8
BLACK
6
CONTINUOUS
10
24.0398619999999994
20
-100.922229999999999
11
23.775192999999998
21
-101.0595500000000015
0
LINE
8
BLACK
6
CONTINUOUS
10
23.775192999999998
20
-101.0595500000000015
11
23.4957049999999974
21
-101.1634389999999968
0
LINE
8
BLACK
6
CONTINUOUS
10
23.4957049999999974
20
-101.1634389999999968
11
23.205601999999999
21
-101.2323339999999945
0
LINE
8
BLACK
6
CONTINUOUS
10
23.205601999999999
20
-101.2323339999999945
11
22.9092470000000006
21
-101.2651989999999955
0
LINE
8
BLACK
6
CONTINUOUS
10
22.9092470000000006
20
-101.2651989999999955
11
22.6110969999999973
21
-101.261540999999994
0
LINE
8
BLACK
6
CONTINUOUS
10
22.6110969999999973
20
-101.261540999999994
11
22.3156379999999999
21
-101.2214120000000008
0
LINE
8
BLACK
6
CONTINUOUS
10
22.3156379999999999
20
-101.2214120000000008
11
22.0273129999999995
21
-101.1454189999999898
0
LINE
8
BLACK
6
CONTINUOUS
10
22.0273129999999995
20
-101.1454189999999898
11
21.7504579999999983
21
-101.0347029999999933
0
LINE
8
BLACK
6
CONTINUOUS
10
21.7504579999999983
20
-101.0347029999999933
11
21.4892389999999978
21
-100.8909289999999999
0
LINE
8
BLACK
6
CONTINUOUS
10
21.4892389999999978
20
-100.8909289999999999
11
21.2475829999999988
21
-100.7162609999999887
0
LINE
8
BLACK
6
CONTINUOUS
10
21.2475829999999988
20
-100.7162609999999887
11
21.029125999999998
21
-100.5133249999999947
0
LINE
8
BLACK
6
CONTINUOUS
10
21.029125999999998
20
-100.5133249999999947
11
20.8371539999999982
21
-100.2851730000000003
0
LINE
8
BLACK
6
CONTINUOUS
10
20.8371539999999982
20
-100.2851730000000003
11
20.6745529999999995
21
-100.0352379999999926
0
LINE
8
BLACK
6
CONTINUOUS
10
20.6745529999999995
20
-100.0352379999999926
11
20.5437699999999985
21
-99.767279000000002
0
LINE
8
BLACK
6
CONTINUOUS
10
20.5437699999999985
20
-99.767279000000002
11
20.4467719999999993
21
-99.4853260000000006
0
LINE
8
BLACK
6
CONTINUOUS
10
20.4467719999999993
20
-99.4853260000000006
11
20.3850169999999977
21
-99.1936189999999982
0
LINE
8
BLACK
6
CONTINUOUS
10
20.3850169999999977
20
-99.1936189999999982
11
20.3594340000000003
21
-98.8965460000000007
0
LINE
8
BLACK
6
CONTINUOUS
10
20.3594340000000003
20
-98.8965460000000007
11
20.3704089999999987
21
-98.5985769999999917
0
LINE
8
BLACK
6
CONTINUOUS
10
20.3704089999999987
20
-98.5985769999999917
11
20.4177759999999999
21
-98.3041909999999888
0
LINE
8
BLACK
6
CONTINUOUS
10
20.4177759999999999
20
-98.3041909999999888
11
20.5008230000000005
21
-98.0178179999999912
0
LINE
8
BLACK
6
CONTINUOUS
10
20.5008230000000005
20
-98.0178179999999912
11
20.6182999999999979
21
-97.7437639999999988
0
LINE
8
BLACK
6
CONTINUOUS
10
20.6182999999999979
20
-97.7437639999999988
11
20.7684409999999993
21
-97.4861509999999925
0
LINE
8
BLACK
6
CONTINUOUS
10
20.7684409999999993
20
-97.4861509999999925
11
20.9489869999999989
21
-97.2488549999999918
0
LINE
8
BLACK
6
CONTINUOUS
10
20.9489869999999989
20
-97.2488549999999918
11
21.1572229999999983
21
-97.0354439999999983
0
LINE
8
BLACK
6
CONTINUOUS
10
21.1572229999999983
20
-97.0354439999999983
11
21.3900170000000003
21
-96.8491289999999907
0
LINE
8
BLACK
6
CONTINUOUS
10
21.3900170000000003
20
-96.8491289999999907
11
21.6438670000000002
21
-96.6927109999999885
0
LINE
8
BLACK
6
CONTINUOUS
10
21.6438670000000002
20
-96.6927109999999885
11
21.9149560000000001
21
-96.5685429999999911
0
LINE
8
BLACK
6
CONTINUOUS
10
21.9149560000000001
20
-96.5685429999999911
11
22.1992049999999992
21
-96.4784930000000003
0
LINE
8
BLACK
6
CONTINUOUS
10
22.1992049999999992
20
-96.4784930000000003
11
22.4923389999999976
21
-96.4239159999999913
0
LINE
8
BLACK
6
CONTINUOUS
10
22.4923389999999976
20
-96.4239159999999913
11
22.7899199999999986
21
-96.4056329999999946
0
LINE
8
BLACK
6
CONTINUOUS
10
22.7899199999999986
20
-96.4056329999999946
11
22.7899499999999975
21
-96.405627999999993
0
LINE
8
BLACK
6
CONTINUOUS
10
22.7899499999999975
20
-96.405627999999993
11
42.6337499999999991
21
-96.4056219999999939
0
LINE
8
BLACK
6
CONTINUOUS
10
42.6337499999999991
20
-96.4056219999999939
11
42.6337520000000012
21
-96.4056219999999939
0
LINE
8
BLACK
6
CONTINUOUS
10
42.6337520000000012
20
-96.4056219999999939
11
42.6337539999999962
21
-96.4056219999999939
0
LINE
8
BLACK
6
CONTINUOUS
10
42.6337539999999962
20
-96.4056219999999939
11
42.6337539999999962
21
-96.4055999999999926
0
LINE
8
BLACK
6
CONTINUOUS
10
42.6337539999999962
20
-96.4055999999999926
11
42.6999689999999958
21
-96.4056049999999942
0
LINE
8
BLACK
6
CONTINUOUS
10
42.6999689999999958
20
-96.4056049999999942
11
42.8285529999999994
21
-96.3739219999999932
0
LINE
8
BLACK
6
CONTINUOUS
10
42.8285529999999994
20
-96.3739219999999932
11
42.9458169999999981
21
-96.3123849999999919
0
LINE
8
BLACK
6
CONTINUOUS
10
42.9458169999999981
20
-96.3123849999999919
11
43.0449470000000005
21
-96.2245729999999924
0
LINE
8
BLACK
6
CONTINUOUS
10
43.0449470000000005
20
-96.2245729999999924
11
43.1201790000000003
21
-96.1155869999999908
0
LINE
8
BLACK
6
CONTINUOUS
10
43.1201790000000003
20
-96.1155869999999908
11
43.1671410000000009
21
-95.9917639999999892
0
LINE
8
BLACK
6
CONTINUOUS
10
43.1671410000000009
20
-95.9917639999999892
11
43.1831049999999976
21
-95.8602999999999952
0
LINE
8
BLACK
6
CONTINUOUS
10
43.1831049999999976
20
-95.8602999999999952
11
43.1671410000000009
21
-95.7288360000000011
0
LINE
8
BLACK
6
CONTINUOUS
10
43.1671410000000009
20
-95.7288360000000011
11
43.1201790000000003
21
-95.6050129999999996
0
LINE
8
BLACK
6
CONTINUOUS
10
43.1201790000000003
20
-95.6050129999999996
11
43.0449470000000005
21
-95.496026999999998
0
LINE
8
BLACK
6
CONTINUOUS
10
43.0449470000000005
20
-95.496026999999998
11
42.9458169999999981
21
-95.4082149999999984
0
LINE
8
BLACK
6
CONTINUOUS
10
42.9458169999999981
20
-95.4082149999999984
11
42.8285529999999994
21
-95.3466779999999972
0
LINE
8
BLACK
6
CONTINUOUS
10
42.8285529999999994
20
-95.3466779999999972
11
42.6999689999999958
21
-95.3149949999999961
0
LINE
8
BLACK
6
CONTINUOUS
10
42.6999689999999958
20
-95.3149949999999961
11
42.6337539999999962
21
-95.3149999999999977
0
LINE
8
BLACK
6
CONTINUOUS
10
42.6337539999999962
20
-95.3149999999999977
11
42.6043639999999968
21
-95.305453
0
LINE
8
BLACK
6
CONTINUOUS
10
42.6043639999999968
20
-95.305453
11
42.5931339999999992
21
-95.289999999999992
0
LINE
8
BLACK
6
CONTINUOUS
10
42.5931339999999992
20
-95.289999999999992
11
16.9149999999999991
21
-95.289999999999992
0
LINE
8
BLACK
6
CONTINUOUS
10
16.9149999999999991
20
-95.289999999999992
11
16.5988009999999981
21
-95.273428999999993
0
LINE
8
BLACK
6
CONTINUOUS
10
16.5988009999999981
20
-95.273428999999993
11
16.2860669999999992
21
-95.2238959999999963
0
LINE
8
BLACK
6
CONTINUOUS
10
16.2860669999999992
20
-95.2238959999999963
11
15.9802239999999998
21
-95.1419459999999901
0
LINE
8
BLACK
6
CONTINUOUS
10
15.9802239999999998
20
-95.1419459999999901
11
15.6846219999999992
21
-95.0284750000000003
0
LINE
8
BLACK
6
CONTINUOUS
10
15.6846219999999992
20
-95.0284750000000003
11
15.4024999999999999
21
-94.884726999999998
0
LINE
8
BLACK
6
CONTINUOUS
10
15.4024999999999999
20
-94.884726999999998
11
15.1369499999999988
21
-94.7122760000000028
0
LINE
8
BLACK
6
CONTINUOUS
10
15.1369499999999988
20
-94.7122760000000028
11
14.8908799999999992
21
-94.5130130000000008
0
LINE
8
BLACK
6
CONTINUOUS
10
14.8908799999999992
20
-94.5130130000000008
11
14.6669869999999989
21
-94.2891199999999969
0
LINE
8
BLACK
6
CONTINUOUS
10
14.6669869999999989
20
-94.2891199999999969
11
14.4677239999999987
21
-94.0430499999999938
0
LINE
8
BLACK
6
CONTINUOUS
10
14.4677239999999987
20
-94.0430499999999938
11
14.2952729999999999
21
-93.7774999999999892
0
LINE
8
BLACK
6
CONTINUOUS
10
14.2952729999999999
20
-93.7774999999999892
11
14.1515249999999995
21
-93.4953780000000023
0
LINE
8
BLACK
6
CONTINUOUS
10
14.1515249999999995
20
-93.4953780000000023
11
14.0380539999999989
21
-93.199776
0
LINE
8
BLACK
6
CONTINUOUS
10
14.0380539999999989
20
-93.199776
11
13.9561039999999998
21
-92.8939329999999899
0
LINE
8
BLACK
6
CONTINUOUS
10
13.9561039999999998
20
-92.8939329999999899
11
13.9065709999999996
21
-92.581198999999998
0
LINE
8
BLACK
6
CONTINUOUS
10
13.9065709999999996
20
-92.581198999999998
11
13.8899999999999988
21
-92.2650000000000006
0
LINE
8
BLACK
6
CONTINUOUS
10
13.8899999999999988
20
-92.2650000000000006
11
13.8899999999999988
21
-22.0649999999999977
0
LINE
8
BLACK
6
CONTINUOUS
10
13.8899999999999988
20
-22.0649999999999977
11
13.9065709999999996
21
-21.7488010000000003
0
LINE
8
BLACK
6
CONTINUOUS
10
13.9065709999999996
20
-21.7488010000000003
11
13.9561039999999998
21
-21.4360669999999978
0
LINE
8
BLACK
6
CONTINUOUS
10
13.9561039999999998
20
-21.4360669999999978
11
14.0380539999999989
21
-21.1302239999999983
0
LINE
8
BLACK
6
CONTINUOUS
10
14.0380539999999989
20
-21.1302239999999983
11
14.1515249999999995
21
-20.8346219999999995
0
LINE
8
BLACK
6
CONTINUOUS
10
14.1515249999999995
20
-20.8346219999999995
11
14.2952729999999999
21
-20.5524999999999984
0
LINE
8
BLACK
6
CONTINUOUS
10
14.2952729999999999
20
-20.5524999999999984
11
14.4677239999999987
21
-20.2869499999999974
0
LINE
8
BLACK
6
CONTINUOUS
10
14.4677239999999987
20
-20.2869499999999974
11
14.6669869999999989
21
-20.0408799999999978
0
LINE
8
BLACK
6
CONTINUOUS
10
14.6669869999999989
20
-20.0408799999999978
11
14.8908799999999992
21
-19.8169869999999975
0
LINE
8
BLACK
6
CONTINUOUS
10
14.8908799999999992
20
-19.8169869999999975
11
15.1369499999999988
21
-19.6177239999999991
0
LINE
8
BLACK
6
CONTINUOUS
10
15.1369499999999988
20
-19.6177239999999991
11
15.4024999999999999
21
-19.4452730000000003
0
LINE
8
BLACK
6
CONTINUOUS
10
15.4024999999999999
20
-19.4452730000000003
11
15.6846219999999992
21
-19.301524999999998
0
LINE
8
BLACK
6
CONTINUOUS
10
15.6846219999999992
20
-19.301524999999998
11
15.9802239999999998
21
-19.1880539999999975
0
LINE
8
BLACK
6
CONTINUOUS
10
15.9802239999999998
20
-19.1880539999999975
11
16.2860669999999992
21
-19.1061039999999984
0
LINE
8
BLACK
6
CONTINUOUS
10
16.2860669999999992
20
-19.1061039999999984
11
16.5988009999999981
21
-19.0565709999999982
0
LINE
8
BLACK
6
CONTINUOUS
10
16.5988009999999981
20
-19.0565709999999982
11
16.9149999999999991
21
-19.0399999999999991
0
LINE
8
BLACK
6
CONTINUOUS
10
16.9149999999999991
20
-19.0399999999999991
11
16.9150120000000008
21
-19.0400029999999987
0
LINE
8
BLACK
6
CONTINUOUS
10
16.9150120000000008
20
-19.0400029999999987
11
42.4493819999999999
21
-19.0399999999999991
0
LINE
8
BLACK
6
CONTINUOUS
10
42.4493819999999999
20
-19.0399999999999991
11
42.4606110000000001
21
-19.0245460000000008
0
LINE
8
BLACK
6
CONTINUOUS
10
42.4606110000000001
20
-19.0245460000000008
11
42.4899999999999949
21
-19.0149969999999975
0
LINE
8
BLACK
6
CONTINUOUS
10
42.4899999999999949
20
-19.0149969999999975
11
42.4899999999999949
21
-19.0150249999999978
0
LINE
8
BLACK
6
CONTINUOUS
10
42.4899999999999949
20
-19.0150249999999978
11
42.5562139999999971
21
-19.0150249999999978
0
LINE
8
BLACK
6
CONTINUOUS
10
42.5562139999999971
20
-19.0150249999999978
11
42.6847950000000012
21
-18.9833320000000008
0
LINE
8
BLACK
6
CONTINUOUS
10
42.6847950000000012
20
-18.9833320000000008
11
42.8020549999999957
21
-18.9217899999999979
0
LINE
8
BLACK
6
CONTINUOUS
10
42.8020549999999957
20
-18.9217899999999979
11
42.9011789999999991
21
-18.8339730000000003
0
LINE
8
BLACK
6
CONTINUOUS
10
42.9011789999999991
20
-18.8339730000000003
11
42.9764079999999993
21
-18.7249859999999977
0
LINE
8
BLACK
6
CONTINUOUS
10
42.9764079999999993
20
-18.7249859999999977
11
43.0233670000000004
21
-18.6011629999999997
0
LINE
8
BLACK
6
CONTINUOUS
10
43.0233670000000004
20
-18.6011629999999997
11
43.0393299999999996
21
-18.4696999999999996
0
LINE
8
BLACK
6
CONTINUOUS
10
43.0393299999999996
20
-18.4696999999999996
11
43.0233670000000004
21
-18.3382369999999995
0
LINE
8
BLACK
6
CONTINUOUS
10
43.0233670000000004
20
-18.3382369999999995
11
42.9764079999999993
21
-18.2144139999999979
0
LINE
8
BLACK
6
CONTINUOUS
10
42.9764079999999993
20
-18.2144139999999979
11
42.9011789999999991
21
-18.1054269999999988
0
LINE
8
BLACK
6
CONTINUOUS
10
42.9011789999999991
20
-18.1054269999999988
11
42.8020549999999957
21
-18.0176099999999977
0
LINE
8
BLACK
6
CONTINUOUS
10
42.8020549999999957
20
-18.0176099999999977
11
42.6847950000000012
21
-17.9560679999999984
0
LINE
8
BLACK
6
CONTINUOUS
10
42.6847950000000012
20
-17.9560679999999984
11
42.5562139999999971
21
-17.9243749999999977
0
LINE
8
BLACK
6
CONTINUOUS
10
42.5562139999999971
20
-17.9243749999999977
11
42.4899999999999949
21
-17.9243749999999977
0
LINE
8
BLACK
6
CONTINUOUS
10
42.4899999999999949
20
-17.9243749999999977
11
22.6462000000000003
21
-17.9243689999999987
0
LINE
8
BLACK
6
CONTINUOUS
10
22.6462000000000003
20
-17.9243689999999987
11
22.3485890000000005
21
-17.9060850000000009
0
LINE
8
BLACK
6
CONTINUOUS
10
22.3485890000000005
20
-17.9060850000000009
11
22.0554549999999985
21
-17.851507999999999
0
LINE
8
BLACK
6
CONTINUOUS
10
22.0554549999999985
20
-17.851507999999999
11
21.7712059999999994
21
-17.7614579999999975
0
LINE
8
BLACK
6
CONTINUOUS
10
21.7712059999999994
20
-17.7614579999999975
11
21.5001169999999995
21
-17.6372900000000001
0
LINE
8
BLACK
6
CONTINUOUS
10
21.5001169999999995
20
-17.6372900000000001
11
21.2462669999999996
21
-17.480871999999998
0
LINE
8
BLACK
6
CONTINUOUS
10
21.2462669999999996
20
-17.480871999999998
11
21.0134729999999976
21
-17.2945569999999975
0
LINE
8
BLACK
6
CONTINUOUS
10
21.0134729999999976
20
-17.2945569999999975
11
20.8052369999999982
21
-17.0811460000000004
0
LINE
8
BLACK
6
CONTINUOUS
10
20.8052369999999982
20
-17.0811460000000004
11
20.6246899999999975
21
-16.8438499999999998
0
LINE
8
BLACK
6
CONTINUOUS
10
20.6246899999999975
20
-16.8438499999999998
11
20.4745489999999997
21
-16.5862370000000006
0
LINE
8
BLACK
6
CONTINUOUS
10
20.4745489999999997
20
-16.5862370000000006
11
20.3570719999999987
21
-16.312183000000001
0
LINE
8
BLACK
6
CONTINUOUS
10
20.3570719999999987
20
-16.312183000000001
11
20.2740249999999982
21
-16.0258099999999999
0
LINE
8
BLACK
6
CONTINUOUS
10
20.2740249999999982
20
-16.0258099999999999
11
20.2266580000000005
21
-15.7314239999999987
0
LINE
8
BLACK
6
CONTINUOUS
10
20.2266580000000005
20
-15.7314239999999987
11
20.2156829999999985
21
-15.4334539999999993
0
LINE
8
BLACK
6
CONTINUOUS
10
20.2156829999999985
20
-15.4334539999999993
11
20.2412659999999995
21
-15.1363819999999993
0
LINE
8
BLACK
6
CONTINUOUS
10
20.2412659999999995
20
-15.1363819999999993
11
20.3030200000000001
21
-14.8446749999999987
0
LINE
8
BLACK
6
CONTINUOUS
10
20.3030200000000001
20
-14.8446749999999987
11
20.4000190000000003
21
-14.5627219999999991
0
LINE
8
BLACK
6
CONTINUOUS
10
20.4000190000000003
20
-14.5627219999999991
11
20.5308019999999978
21
-14.2947619999999986
0
LINE
8
BLACK
6
CONTINUOUS
10
20.5308019999999978
20
-14.2947619999999986
11
20.693401999999999
21
-14.0448269999999997
0
LINE
8
BLACK
6
CONTINUOUS
10
20.693401999999999
20
-14.0448269999999997
11
20.8853749999999998
21
-13.8166759999999993
0
LINE
8
BLACK
6
CONTINUOUS
10
20.8853749999999998
20
-13.8166759999999993
11
21.1038320000000006
21
-13.6137389999999989
0
LINE
8
BLACK
6
CONTINUOUS
10
21.1038320000000006
20
-13.6137389999999989
11
21.3454869999999985
21
-13.4390710000000002
0
LINE
8
BLACK
6
CONTINUOUS
10
21.3454869999999985
20
-13.4390710000000002
11
21.6067070000000001
21
-13.2952969999999997
0
LINE
8
BLACK
6
CONTINUOUS
10
21.6067070000000001
20
-13.2952969999999997
11
21.8835610000000003
21
-13.1845809999999997
0
LINE
8
BLACK
6
CONTINUOUS
10
21.8835610000000003
20
-13.1845809999999997
11
22.1718860000000006
21
-13.108587
0
LINE
8
BLACK
6
CONTINUOUS
10
22.1718860000000006
20
-13.108587
11
22.4673459999999992
21
-13.0684589999999989
0
LINE
8
BLACK
6
CONTINUOUS
10
22.4673459999999992
20
-13.0684589999999989
11
22.7654949999999978
21
-13.0648
0
LINE
8
BLACK
6
CONTINUOUS
10
22.7654949999999978
20
-13.0648
11
23.0618499999999997
21
-13.0976649999999992
0
LINE
8
BLACK
6
CONTINUOUS
10
23.0618499999999997
20
-13.0976649999999992
11
23.3519539999999992
21
-13.1665599999999987
0
LINE
8
BLACK
6
CONTINUOUS
10
23.3519539999999992
20
-13.1665599999999987
11
23.6314419999999998
21
-13.270448
0
LINE
8
BLACK
6
CONTINUOUS
10
23.6314419999999998
20
-13.270448
11
23.8961109999999977
21
-13.407767999999999
0
LINE
8
BLACK
6
CONTINUOUS
10
23.8961109999999977
20
-13.407767999999999
11
24.1419809999999977
21
-13.576452999999999
0
LINE
8
BLACK
6
CONTINUOUS
10
24.1419809999999977
20
-13.576452999999999
11
24.3653440000000003
21
-13.7739599999999989
0
LINE
8
BLACK
6
CONTINUOUS
10
24.3653440000000003
20
-13.7739599999999989
11
24.3653529999999989
21
-13.7739659999999997
0
LINE
8
BLACK
6
CONTINUOUS
10
24.3653529999999989
20
-13.7739659999999997
11
25.1919289999999982
21
-14.600541999999999
0
LINE
8
BLACK
6
CONTINUOUS
10
25.1919289999999982
20
-14.600541999999999
11
25.1919620000000002
21
-14.6005919999999989
0
LINE
8
BLACK
6
CONTINUOUS
10
25.1919620000000002
20
-14.6005919999999989
11
25.2858659999999986
21
-14.6905389999999993
0
LINE
8
BLACK
6
CONTINUOUS
10
25.2858659999999986
20
-14.6905389999999993
11
25.4969249999999974
21
-14.8464209999999994
0
LINE
8
BLACK
6
CONTINUOUS
10
25.4969249999999974
20
-14.8464209999999994
11
25.7260569999999973
21
-14.9742619999999995
0
LINE
8
BLACK
6
CONTINUOUS
10
25.7260569999999973
20
-14.9742619999999995
11
25.9695590000000003
21
-15.0719940000000001
0
LINE
8
BLACK
6
CONTINUOUS
10
25.9695590000000003
20
-15.0719940000000001
11
26.2234939999999987
21
-15.1380379999999999
0
LINE
8
BLACK
6
CONTINUOUS
10
26.2234939999999987
20
-15.1380379999999999
11
26.4837569999999971
21
-15.1713259999999988
0
LINE
8
BLACK
6
CONTINUOUS
10
26.4837569999999971
20
-15.1713259999999988
11
26.6149489999999993
21
-15.1712569999999989
0
LINE
8
BLACK
6
CONTINUOUS
10
26.6149489999999993
20
-15.1712569999999989
11
26.6149529999999999
21
-15.1712579999999999
0
LINE
8
BLACK
6
CONTINUOUS
10
26.6149529999999999
20
-15.1712579999999999
11
26.61496
21
-15.1712569999999989
0
LINE
8
BLACK
6
CONTINUOUS
10
26.61496
20
-15.1712569999999989
11
43.6529549999999986
21
-15.1712569999999989
0
LINE
8
BLACK
6
CONTINUOUS
10
43.6529549999999986
20
-15.1712569999999989
11
43.6529559999999961
21
-15.1712569999999989
0
LINE
8
BLACK
6
CONTINUOUS
10
43.6529559999999961
20
-15.1712569999999989
11
43.9473839999999996
21
-15.187797999999999
0
LINE
8
BLACK
6
CONTINUOUS
10
43.9473839999999996
20
-15.187797999999999
11
44.2381099999999989
21
-15.2371989999999986
0
LINE
8
BLACK
6
CONTINUOUS
10
44.2381099999999989
20
-15.2371989999999986
11
44.5214759999999998
21
-15.3188389999999988
0
LINE
8
BLACK
6
CONTINUOUS
10
44.5214759999999998
20
-15.3188389999999988
11
44.79392
21
-15.431692
0
LINE
8
BLACK
6
CONTINUOUS
10
44.79392
20
-15.431692
11
45.0520159999999947
21
-15.5743379999999991
0
LINE
8
BLACK
6
CONTINUOUS
10
45.0520159999999947
20
-15.5743379999999991
11
45.2925180000000012
21
-15.7449849999999998
0
LINE
8
BLACK
6
CONTINUOUS
10
45.2925180000000012
20
-15.7449849999999998
11
45.5123430000000013
21
-15.9414319999999989
0
LINE
8
BLACK
6
CONTINUOUS
10
45.5123430000000013
20
-15.9414319999999989
11
45.5124110000000002
21
-15.941476999999999
0
LINE
8
BLACK
6
CONTINUOUS
10
45.5124110000000002
20
-15.941476999999999
11
47.8450050000000005
21
-18.2740699999999983
0
LINE
8
BLACK
6
CONTINUOUS
10
47.8450050000000005
20
-18.2740699999999983
11
47.8450190000000006
21
-18.2740550000000006
0
LINE
8
BLACK
6
CONTINUOUS
10
47.8450190000000006
20
-18.2740550000000006
11
47.9454719999999952
21
-18.3745100000000008
0
LINE
8
BLACK
6
CONTINUOUS
10
47.9454719999999952
20
-18.3745100000000008
11
48.1676080000000013
21
-18.5516609999999993
0
LINE
8
BLACK
6
CONTINUOUS
10
48.1676080000000013
20
-18.5516609999999993
11
48.4081830000000011
21
-18.7028269999999992
0
LINE
8
BLACK
6
CONTINUOUS
10
48.4081830000000011
20
-18.7028269999999992
11
48.6641690000000011
21
-18.8261079999999978
0
LINE
8
BLACK
6
CONTINUOUS
10
48.6641690000000011
20
-18.8261079999999978
11
48.932348999999995
21
-18.9199519999999985
0
LINE
8
BLACK
6
CONTINUOUS
10
48.932348999999995
20
-18.9199519999999985
11
49.2093500000000006
21
-18.9831800000000008
0
LINE
8
BLACK
6
CONTINUOUS
10
49.2093500000000006
20
-18.9831800000000008
11
49.4916879999999964
21
-19.0149969999999975
0
LINE
8
BLACK
6
CONTINUOUS
10
49.4916879999999964
20
-19.0149969999999975
11
49.6337509999999966
21
-19.0150000000000006
0
LINE
8
BLACK
6
CONTINUOUS
10
49.6337509999999966
20
-19.0150000000000006
11
49.6631399999999985
21
-19.0245499999999979
0
LINE
8
BLACK
6
CONTINUOUS
10
49.6631399999999985
20
-19.0245499999999979
11
49.6743639999999971
21
-19.0399989999999981
0
LINE
8
BLACK
6
CONTINUOUS
10
49.6743639999999971
20
-19.0399989999999981
11
99.5993840000000006
21
-19.0399969999999996
0
LINE
8
BLACK
6
CONTINUOUS
10
99.5993840000000006
20
-19.0399969999999996
11
99.6106109999999916
21
-19.0245460000000008
0
LINE
8
BLACK
6
CONTINUOUS
10
99.6106109999999916
20
-19.0245460000000008
11
99.6400000000000006
21
-19.0149969999999975
0
LINE
8
BLACK
6
CONTINUOUS
10
99.6400000000000006
20
-19.0149969999999975
11
99.6400000000000006
21
-19.0150249999999978
0
LINE
8
BLACK
6
CONTINUOUS
10
99.6400000000000006
20
-19.0150249999999978
11
99.7062139999999886
21
-19.0150249999999978
0
LINE
8
BLACK
6
CONTINUOUS
10
99.7062139999999886
20
-19.0150249999999978
11
99.8347949999999997
21
-18.9833320000000008
0
LINE
8
BLACK
6
CONTINUOUS
10
99.8347949999999997
20
-18.9833320000000008
11
99.9520550000000014
21
-18.9217899999999979
0
LINE
8
BLACK
6
CONTINUOUS
10
99.9520550000000014
20
-18.9217899999999979
11
100.0511789999999905
21
-18.8339730000000003
0
LINE
8
BLACK
6
CONTINUOUS
10
100.0511789999999905
20
-18.8339730000000003
11
100.1264079999999979
21
-18.7249859999999977
0
LINE
8
BLACK
6
CONTINUOUS
10
100.1264079999999979
20
-18.7249859999999977
11
100.1733669999999989
21
-18.6011629999999997
0
LINE
8
BLACK
6
CONTINUOUS
10
100.1733669999999989
20
-18.6011629999999997
11
100.1893299999999982
21
-18.4696999999999996
0
LINE
8
BLACK
6
CONTINUOUS
10
100.1893299999999982
20
-18.4696999999999996
11
100.1733669999999989
21
-18.3382369999999995
0
LINE
8
BLACK
6
CONTINUOUS
10
100.1733669999999989
20
-18.3382369999999995
11
100.1264079999999979
21
-18.2144139999999979
0
LINE
8
BLACK
6
CONTINUOUS
10
100.1264079999999979
20
-18.2144139999999979
11
100.0511789999999905
21
-18.1054269999999988
0
LINE
8
BLACK
6
CONTINUOUS
10
100.0511789999999905
20
-18.1054269999999988
11
99.9520550000000014
21
-18.0176099999999977
0
LINE
8
BLACK
6
CONTINUOUS
10
99.9520550000000014
20
-18.0176099999999977
11
99.8347949999999997
21
-17.9560679999999984
0
LINE
8
BLACK
6
CONTINUOUS
10
99.8347949999999997
20
-17.9560679999999984
11
99.7062139999999886
21
-17.9243749999999977
0
LINE
8
BLACK
6
CONTINUOUS
10
99.7062139999999886
20
-17.9243749999999977
11
99.6400000000000006
21
-17.9243749999999977
0
LINE
8
BLACK
6
CONTINUOUS
10
99.6400000000000006
20
-17.9243749999999977
11
79.7961999999999989
21
-17.9243689999999987
0
LINE
8
BLACK
6
CONTINUOUS
10
79.7961999999999989
20
-17.9243689999999987
11
79.4985889999999955
21
-17.9060850000000009
0
LINE
8
BLACK
6
CONTINUOUS
10
79.4985889999999955
20
-17.9060850000000009
11
79.2054550000000006
21
-17.851507999999999
0
LINE
8
BLACK
6
CONTINUOUS
10
79.2054550000000006
20
-17.851507999999999
11
78.921205999999998
21
-17.7614579999999975
0
LINE
8
BLACK
6
CONTINUOUS
10
78.921205999999998
20
-17.7614579999999975
11
78.6501169999999945
21
-17.6372900000000001
0
LINE
8
BLACK
6
CONTINUOUS
10
78.6501169999999945
20
-17.6372900000000001
11
78.3962669999999946
21
-17.480871999999998
0
LINE
8
BLACK
6
CONTINUOUS
10
78.3962669999999946
20
-17.480871999999998
11
78.1634729999999962
21
-17.2945569999999975
0
LINE
8
BLACK
6
CONTINUOUS
10
78.1634729999999962
20
-17.2945569999999975
11
77.9552369999999968
21
-17.0811460000000004
0
LINE
8
BLACK
6
CONTINUOUS
10
77.9552369999999968
20
-17.0811460000000004
11
77.7746899999999926
21
-16.8438499999999998
0
LINE
8
BLACK
6
CONTINUOUS
10
77.7746899999999926
20
-16.8438499999999998
11
77.6245490000000018
21
-16.5862370000000006
0
LINE
8
BLACK
6
CONTINUOUS
10
77.6245490000000018
20
-16.5862370000000006
11
77.5070719999999937
21
-16.312183000000001
0
LINE
8
BLACK
6
CONTINUOUS
10
77.5070719999999937
20
-16.312183000000001
11
77.4240250000000003
21
-16.0258099999999999
0
LINE
8
BLACK
6
CONTINUOUS
10
77.4240250000000003
20
-16.0258099999999999
11
77.3766579999999919
21
-15.7314239999999987
0
LINE
8
BLACK
6
CONTINUOUS
10
77.3766579999999919
20
-15.7314239999999987
11
77.36568299999999
21
-15.4334539999999993
0
LINE
8
BLACK
6
CONTINUOUS
10
77.36568299999999
20
-15.4334539999999993
11
77.3912660000000017
21
-15.1363819999999993
0
LINE
8
BLACK
6
CONTINUOUS
10
77.3912660000000017
20
-15.1363819999999993
11
77.4530199999999951
21
-14.8446749999999987
0
LINE
8
BLACK
6
CONTINUOUS
10
77.4530199999999951
20
-14.8446749999999987
11
77.5500189999999918
21
-14.5627219999999991
0
LINE
8
BLACK
6
CONTINUOUS
10
77.5500189999999918
20
-14.5627219999999991
11
77.6808019999999999
21
-14.2947619999999986
0
LINE
8
BLACK
6
CONTINUOUS
10
77.6808019999999999
20
-14.2947619999999986
11
77.8434019999999975
21
-14.0448269999999997
0
LINE
8
BLACK
6
CONTINUOUS
10
77.8434019999999975
20
-14.0448269999999997
11
78.0353750000000019
21
-13.8166759999999993
0
LINE
8
BLACK
6
CONTINUOUS
10
78.0353750000000019
20
-13.8166759999999993
11
78.2538320000000027
21
-13.6137389999999989
0
LINE
8
BLACK
6
CONTINUOUS
10
78.2538320000000027
20
-13.6137389999999989
11
78.4954869999999971
21
-13.4390710000000002
0
LINE
8
BLACK
6
CONTINUOUS
10
78.4954869999999971
20
-13.4390710000000002
11
78.7567069999999916
21
-13.2952969999999997
0
LINE
8
BLACK
6
CONTINUOUS
10
78.7567069999999916
20
-13.2952969999999997
11
79.0335609999999917
21
-13.1845809999999997
0
LINE
8
BLACK
6
CONTINUOUS
10
79.0335609999999917
20
-13.1845809999999997
11
79.3218859999999921
21
-13.108587
0
LINE
8
BLACK
6
CONTINUOUS
10
79.3218859999999921
20
-13.108587
11
79.6173459999999977
21
-13.0684589999999989
0
LINE
8
BLACK
6
CONTINUOUS
10
79.6173459999999977
20
-13.0684589999999989
11
79.9154949999999928
21
-13.0648
0
LINE
8
BLACK
6
CONTINUOUS
10
79.9154949999999928
20
-13.0648
11
80.2118499999999983
21
-13.0976649999999992
0
LINE
8
BLACK
6
CONTINUOUS
10
80.2118499999999983
20
-13.0976649999999992
11
80.5019539999999978
21
-13.1665599999999987
0
LINE
8
BLACK
6
CONTINUOUS
10
80.5019539999999978
20
-13.1665599999999987
11
80.7814419999999984
21
-13.270448
0
LINE
8
BLACK
6
CONTINUOUS
10
80.7814419999999984
20
-13.270448
11
81.0461109999999962
21
-13.407767999999999
0
LINE
8
BLACK
6
CONTINUOUS
10
81.0461109999999962
20
-13.407767999999999
11
81.2919809999999927
21
-13.576452999999999
0
LINE
8
BLACK
6
CONTINUOUS
10
81.2919809999999927
20
-13.576452999999999
11
81.5153439999999989
21
-13.7739599999999989
0
LINE
8
BLACK
6
CONTINUOUS
10
81.5153439999999989
20
-13.7739599999999989
11
81.5153529999999904
21
-13.7739659999999997
0
LINE
8
BLACK
6
CONTINUOUS
10
81.5153529999999904
20
-13.7739659999999997
11
82.3419289999999933
21
-14.600541999999999
0
LINE
8
BLACK
6
CONTINUOUS
10
82.3419289999999933
20
-14.600541999999999
11
82.3419619999999952
21
-14.6005919999999989
0
LINE
8
BLACK
6
CONTINUOUS
10
82.3419619999999952
20
-14.6005919999999989
11
82.4358659999999901
21
-14.6905389999999993
0
LINE
8
BLACK
6
CONTINUOUS
10
82.4358659999999901
20
-14.6905389999999993
11
82.646924999999996
21
-14.8464209999999994
0
LINE
8
BLACK
6
CONTINUOUS
10
82.646924999999996
20
-14.8464209999999994
11
82.876057000000003
21
-14.9742619999999995
0
LINE
8
BLACK
6
CONTINUOUS
10
82.876057000000003
20
-14.9742619999999995
11
83.1195589999999953
21
-15.0719940000000001
0
LINE
8
BLACK
6
CONTINUOUS
10
83.1195589999999953
20
-15.0719940000000001
11
83.3734939999999938
21
-15.1380379999999999
0
LINE
8
BLACK
6
CONTINUOUS
10
83.3734939999999938
20
-15.1380379999999999
11
83.6337570000000028
21
-15.1713259999999988
0
LINE
8
BLACK
6
CONTINUOUS
10
83.6337570000000028
20
-15.1713259999999988
11
83.7649490000000014
21
-15.1712569999999989
0
LINE
8
BLACK
6
CONTINUOUS
10
83.7649490000000014
20
-15.1712569999999989
11
83.7649529999999913
21
-15.1712579999999999
0
LINE
8
BLACK
6
CONTINUOUS
10
83.7649529999999913
20
-15.1712579999999999
11
83.7649600000000021
21
-15.1712569999999989
0
LINE
8
BLACK
6
CONTINUOUS
10
83.7649600000000021
20
-15.1712569999999989
11
100.8029549999999972
21
-15.1712569999999989
0
LINE
8
BLACK
6
CONTINUOUS
10
100.8029549999999972
20
-15.1712569999999989
11
100.8029559999999947
21
-15.1712569999999989
0
LINE
8
BLACK
6
CONTINUOUS
10
100.8029559999999947
20
-15.1712569999999989
11
101.097383999999991
21
-15.187797999999999
0
LINE
8
BLACK
6
CONTINUOUS
10
101.097383999999991
20
-15.187797999999999
11
101.3881099999999975
21
-15.2371989999999986
0
LINE
8
BLACK
6
CONTINUOUS
10
101.3881099999999975
20
-15.2371989999999986
11
101.6714759999999984
21
-15.3188389999999988
0
LINE
8
BLACK
6
CONTINUOUS
10
101.6714759999999984
20
-15.3188389999999988
11
101.9439199999999914
21
-15.431692
0
LINE
8
BLACK
6
CONTINUOUS
10
101.9439199999999914
20
-15.431692
11
102.2020160000000004
21
-15.5743379999999991
0
LINE
8
BLACK
6
CONTINUOUS
10
102.2020160000000004
20
-15.5743379999999991
11
102.4425179999999926
21
-15.7449849999999998
0
LINE
8
BLACK
6
CONTINUOUS
10
102.4425179999999926
20
-15.7449849999999998
11
102.6623429999999928
21
-15.9414319999999989
0
LINE
8
BLACK
6
CONTINUOUS
10
102.6623429999999928
20
-15.9414319999999989
11
102.6624109999999916
21
-15.941476999999999
0
LINE
8
BLACK
6
CONTINUOUS
10
102.6624109999999916
20
-15.941476999999999
11
104.9950049999999919
21
-18.2740699999999983
0
LINE
8
BLACK
6
CONTINUOUS
10
104.9950049999999919
20
-18.2740699999999983
11
104.9950189999999992
21
-18.2740550000000006
0
LINE
8
BLACK
6
CONTINUOUS
10
104.9950189999999992
20
-18.2740550000000006
11
105.0954720000000009
21
-18.3745100000000008
0
LINE
8
BLACK
6
CONTINUOUS
10
105.0954720000000009
20
-18.3745100000000008
11
105.3176079999999928
21
-18.5516609999999993
0
LINE
8
BLACK
6
CONTINUOUS
10
105.3176079999999928
20
-18.5516609999999993
11
105.5581829999999997
21
-18.7028269999999992
0
LINE
8
BLACK
6
CONTINUOUS
10
105.5581829999999997
20
-18.7028269999999992
11
105.8141689999999926
21
-18.8261079999999978
0
LINE
8
BLACK
6
CONTINUOUS
10
105.8141689999999926
20
-18.8261079999999978
11
106.0823489999999936
21
-18.9199519999999985
0
LINE
8
BLACK
6
CONTINUOUS
10
106.0823489999999936
20
-18.9199519999999985
11
106.3593499999999921
21
-18.9831800000000008
0
LINE
8
BLACK
6
CONTINUOUS
10
106.3593499999999921
20
-18.9831800000000008
11
106.641688000000002
21
-19.0149969999999975
0
LINE
8
BLACK
6
CONTINUOUS
10
106.641688000000002
20
-19.0149969999999975
11
106.7837509999999952
21
-19.0150000000000006
0
LINE
8
BLACK
6
CONTINUOUS
10
106.7837509999999952
20
-19.0150000000000006
11
106.81313999999999
21
-19.0245499999999979
0
LINE
8
BLACK
6
CONTINUOUS
10
106.81313999999999
20
-19.0245499999999979
11
106.8243639999999886
21
-19.0399999999999991
0
LINE
8
BLACK
6
CONTINUOUS
10
106.8243639999999886
20
-19.0399999999999991
11
149.6056350000000066
21
-19.0400019999999977
0
LINE
8
BLACK
6
CONTINUOUS
10
149.6056350000000066
20
-19.0400019999999977
11
149.6168600000000026
21
-19.0245529999999974
0
LINE
8
BLACK
6
CONTINUOUS
10
149.6168600000000026
20
-19.0245529999999974
11
149.6462489999999832
21
-19.0150030000000001
0
LINE
8
BLACK
6
CONTINUOUS
10
149.6462489999999832
20
-19.0150030000000001
11
149.6462489999999832
21
-19.0150219999999983
0
LINE
8
BLACK
6
CONTINUOUS
10
149.6462489999999832
20
-19.0150219999999983
11
149.7883129999999881
21
-19.0150189999999988
0
LINE
8
BLACK
6
CONTINUOUS
10
149.7883129999999881
20
-19.0150189999999988
11
150.070652999999993
21
-18.9832019999999986
0
LINE
8
BLACK
6
CONTINUOUS
10
150.070652999999993
20
-18.9832019999999986
11
150.3476560000000006
21
-18.9199739999999998
0
LINE
8
BLACK
6
CONTINUOUS
10
150.3476560000000006
20
-18.9199739999999998
11
150.6158379999999966
21
-18.8261289999999981
0
LINE
8
BLACK
6
CONTINUOUS
10
150.6158379999999966
20
-18.8261289999999981
11
150.8718269999999961
21
-18.7028469999999984
0
LINE
8
BLACK
6
CONTINUOUS
10
150.8718269999999961
20
-18.7028469999999984
11
151.1124030000000005
21
-18.5516799999999975
0
LINE
8
BLACK
6
CONTINUOUS
10
151.1124030000000005
20
-18.5516799999999975
11
151.3345410000000015
21
-18.3745270000000005
0
LINE
8
BLACK
6
CONTINUOUS
10
151.3345410000000015
20
-18.3745270000000005
11
151.4349949999999865
21
-18.2740720000000003
0
LINE
8
BLACK
6
CONTINUOUS
10
151.4349949999999865
20
-18.2740720000000003
11
151.4349949999999865
21
-18.2740729999999978
0
LINE
8
BLACK
6
CONTINUOUS
10
151.4349949999999865
20
-18.2740729999999978
11
151.4349969999999814
21
-18.2740709999999993
0
LINE
8
BLACK
6
CONTINUOUS
10
151.4349969999999814
20
-18.2740709999999993
11
153.7675889999999868
21
-15.9414789999999993
0
LINE
8
BLACK
6
CONTINUOUS
10
153.7675889999999868
20
-15.9414789999999993
11
153.7675930000000051
21
-15.9414759999999998
0
LINE
8
BLACK
6
CONTINUOUS
10
153.7675930000000051
20
-15.9414759999999998
11
153.9874749999999892
21
-15.7449789999999989
0
LINE
8
BLACK
6
CONTINUOUS
10
153.9874749999999892
20
-15.7449789999999989
11
154.2279779999999789
21
-15.574330999999999
0
LINE
8
BLACK
6
CONTINUOUS
10
154.2279779999999789
20
-15.574330999999999
11
154.4860749999999996
21
-15.4316839999999988
0
LINE
8
BLACK
6
CONTINUOUS
10
154.4860749999999996
20
-15.4316839999999988
11
154.7585200000000043
21
-15.3188309999999994
0
LINE
8
BLACK
6
CONTINUOUS
10
154.7585200000000043
20
-15.3188309999999994
11
155.0418880000000001
21
-15.23719
0
LINE
8
BLACK
6
CONTINUOUS
10
155.0418880000000001
20
-15.23719
11
155.3326140000000066
21
-15.1877889999999987
0
LINE
8
BLACK
6
CONTINUOUS
10
155.3326140000000066
20
-15.1877889999999987
11
155.6270439999999837
21
-15.1712479999999985
0
LINE
8
BLACK
6
CONTINUOUS
10
155.6270439999999837
20
-15.1712479999999985
11
155.6270439999999837
21
-15.1712600000000002
0
LINE
8
BLACK
6
CONTINUOUS
10
155.6270439999999837
20
-15.1712600000000002
11
155.6270449999999812
21
-15.1712600000000002
0
LINE
8
BLACK
6
CONTINUOUS
10
155.6270449999999812
20
-15.1712600000000002
11
172.6650400000000047
21
-15.1712600000000002
0
LINE
8
BLACK
6
CONTINUOUS
10
172.6650400000000047
20
-15.1712600000000002
11
172.6650459999999896
21
-15.1712609999999994
0
LINE
8
BLACK
6
CONTINUOUS
10
172.6650459999999896
20
-15.1712609999999994
11
172.6650510000000054
21
-15.1712600000000002
0
LINE
8
BLACK
6
CONTINUOUS
10
172.6650510000000054
20
-15.1712600000000002
11
172.6650510000000054
21
-15.1712319999999998
0
LINE
8
BLACK
6
CONTINUOUS
10
172.6650510000000054
20
-15.1712319999999998
11
172.7962409999999807
21
-15.1713009999999997
0
LINE
8
BLACK
6
CONTINUOUS
10
172.7962409999999807
20
-15.1713009999999997
11
173.0564999999999998
21
-15.1380129999999991
0
LINE
8
BLACK
6
CONTINUOUS
10
173.0564999999999998
20
-15.1380129999999991
11
173.3104319999999916
21
-15.0719699999999985
0
LINE
8
BLACK
6
CONTINUOUS
10
173.3104319999999916
20
-15.0719699999999985
11
173.5539310000000057
21
-14.97424
0
LINE
8
BLACK
6
CONTINUOUS
10
173.5539310000000057
20
-14.97424
11
173.7830610000000036
21
-14.8464010000000002
0
LINE
8
BLACK
6
CONTINUOUS
10
173.7830610000000036
20
-14.8464010000000002
11
173.9941159999999911
21
-14.6905209999999986
0
LINE
8
BLACK
6
CONTINUOUS
10
173.9941159999999911
20
-14.6905209999999986
11
174.0885470000000055
21
-14.6000679999999985
0
LINE
8
BLACK
6
CONTINUOUS
10
174.0885470000000055
20
-14.6000679999999985
11
174.9146439999999814
21
-13.7739709999999995
0
LINE
8
BLACK
6
CONTINUOUS
10
174.9146439999999814
20
-13.7739709999999995
11
174.9146460000000047
21
-13.7739689999999992
0
LINE
8
BLACK
6
CONTINUOUS
10
174.9146460000000047
20
-13.7739689999999992
11
174.9146470000000022
21
-13.7739689999999992
0
LINE
8
BLACK
6
CONTINUOUS
10
174.9146470000000022
20
-13.7739689999999992
11
175.1380159999999933
21
-13.5764549999999993
0
LINE
8
BLACK
6
CONTINUOUS
10
175.1380159999999933
20
-13.5764549999999993
11
175.3838829999999973
21
-13.407769
0
LINE
8
BLACK
6
CONTINUOUS
10
175.3838829999999973
20
-13.407769
11
175.6485500000000002
21
-13.270448
0
LINE
8
BLACK
6
CONTINUOUS
10
175.6485500000000002
20
-13.270448
11
175.9280369999999891
21
-13.1665580000000002
0
LINE
8
BLACK
6
CONTINUOUS
10
175.9280369999999891
20
-13.1665580000000002
11
176.218137999999982
21
-13.0976619999999997
0
LINE
8
BLACK
6
CONTINUOUS
10
176.218137999999982
20
-13.0976619999999997
11
176.51449199999999
21
-13.0647950000000002
0
LINE
8
BLACK
6
CONTINUOUS
10
176.51449199999999
20
-13.0647950000000002
11
176.8126399999999876
21
-13.0684529999999999
0
LINE
8
BLACK
6
CONTINUOUS
10
176.8126399999999876
20
-13.0684529999999999
11
177.1080989999999815
21
-13.1085789999999989
0
LINE
8
BLACK
6
CONTINUOUS
10
177.1080989999999815
20
-13.1085789999999989
11
177.3964229999999986
21
-13.184571
0
LINE
8
BLACK
6
CONTINUOUS
10
177.3964229999999986
20
-13.184571
11
177.6732769999999846
21
-13.295285999999999
0
LINE
8
BLACK
6
CONTINUOUS
10
177.6732769999999846
20
-13.295285999999999
11
177.9344959999999958
21
-13.4390579999999993
0
LINE
8
BLACK
6
CONTINUOUS
10
177.9344959999999958
20
-13.4390579999999993
11
178.1761510000000044
21
-13.6137239999999995
0
LINE
8
BLACK
6
CONTINUOUS
10
178.1761510000000044
20
-13.6137239999999995
11
178.3946080000000052
21
-13.8166589999999996
0
LINE
8
BLACK
6
CONTINUOUS
10
178.3946080000000052
20
-13.8166589999999996
11
178.5865799999999979
21
-14.0448079999999997
0
LINE
8
BLACK
6
CONTINUOUS
10
178.5865799999999979
20
-14.0448079999999997
11
178.749180999999993
21
-14.2947419999999994
0
LINE
8
BLACK
6
CONTINUOUS
10
178.749180999999993
20
-14.2947419999999994
11
178.8799640000000011
21
-14.5626999999999995
0
LINE
8
BLACK
6
CONTINUOUS
10
178.8799640000000011
20
-14.5626999999999995
11
178.9769629999999836
21
-14.844652
0
LINE
8
BLACK
6
CONTINUOUS
10
178.9769629999999836
20
-14.844652
11
179.0387189999999862
21
-15.1363569999999985
0
LINE
8
BLACK
6
CONTINUOUS
10
179.0387189999999862
20
-15.1363569999999985
11
179.0643019999999979
21
-15.4334279999999993
0
LINE
8
BLACK
6
CONTINUOUS
10
179.0643019999999979
20
-15.4334279999999993
11
179.0533279999999934
21
-15.7313969999999994
0
LINE
8
BLACK
6
CONTINUOUS
10
179.0533279999999934
20
-15.7313969999999994
11
179.005960999999985
21
-16.0257809999999985
0
LINE
8
BLACK
6
CONTINUOUS
10
179.005960999999985
20
-16.0257809999999985
11
178.9229159999999865
21
-16.3121529999999986
0
LINE
8
BLACK
6
CONTINUOUS
10
178.9229159999999865
20
-16.3121529999999986
11
178.8054389999999785
21
-16.5862060000000007
0
LINE
8
BLACK
6
CONTINUOUS
10
178.8054389999999785
20
-16.5862060000000007
11
178.6552989999999852
21
-16.8438179999999988
0
LINE
8
BLACK
6
CONTINUOUS
10
178.6552989999999852
20
-16.8438179999999988
11
178.4747539999999901
21
-17.0811129999999984
0
LINE
8
BLACK
6
CONTINUOUS
10
178.4747539999999901
20
-17.0811129999999984
11
178.2665189999999882
21
-17.2945239999999991
0
LINE
8
BLACK
6
CONTINUOUS
10
178.2665189999999882
20
-17.2945239999999991
11
178.0337260000000015
21
-17.4808389999999996
0
LINE
8
BLACK
6
CONTINUOUS
10
178.0337260000000015
20
-17.4808389999999996
11
177.7798779999999965
21
-17.6372560000000007
0
LINE
8
BLACK
6
CONTINUOUS
10
177.7798779999999965
20
-17.6372560000000007
11
177.5087900000000047
21
-17.7614230000000006
0
LINE
8
BLACK
6
CONTINUOUS
10
177.5087900000000047
20
-17.7614230000000006
11
177.2245429999999828
21
-17.8514729999999986
0
LINE
8
BLACK
6
CONTINUOUS
10
177.2245429999999828
20
-17.8514729999999986
11
176.9314090000000022
21
-17.9060500000000005
0
LINE
8
BLACK
6
CONTINUOUS
10
176.9314090000000022
20
-17.9060500000000005
11
176.6340759999999932
21
-17.9243169999999985
0
LINE
8
BLACK
6
CONTINUOUS
10
176.6340759999999932
20
-17.9243169999999985
11
176.6337999999999795
21
-17.9243719999999982
0
LINE
8
BLACK
6
CONTINUOUS
10
176.6337999999999795
20
-17.9243719999999982
11
156.789999999999992
21
-17.9243780000000008
0
LINE
8
BLACK
6
CONTINUOUS
10
156.789999999999992
20
-17.9243780000000008
11
156.789999999999992
21
-17.9243999999999986
0
LINE
8
BLACK
6
CONTINUOUS
10
156.789999999999992
20
-17.9243999999999986
11
156.7237889999999823
21
-17.9243999999999986
0
LINE
8
BLACK
6
CONTINUOUS
10
156.7237889999999823
20
-17.9243999999999986
11
156.5952139999999986
21
-17.9560910000000007
0
LINE
8
BLACK
6
CONTINUOUS
10
156.5952139999999986
20
-17.9560910000000007
11
156.4779589999999985
21
-18.017630999999998
0
LINE
8
BLACK
6
CONTINUOUS
10
156.4779589999999985
20
-18.017630999999998
11
156.3788389999999993
21
-18.1054429999999975
0
LINE
8
BLACK
6
CONTINUOUS
10
156.3788389999999993
20
-18.1054429999999975
11
156.3036149999999793
21
-18.2144249999999985
0
LINE
8
BLACK
6
CONTINUOUS
10
156.3036149999999793
20
-18.2144249999999985
11
156.2566569999999899
21
-18.3382429999999985
0
LINE
8
BLACK
6
CONTINUOUS
10
156.2566569999999899
20
-18.3382429999999985
11
156.2406949999999881
21
-18.4696999999999996
0
LINE
8
BLACK
6
CONTINUOUS
10
156.2406949999999881
20
-18.4696999999999996
11
156.2566569999999899
21
-18.6011570000000006
0
LINE
8
BLACK
6
CONTINUOUS
10
156.2566569999999899
20
-18.6011570000000006
11
156.3036149999999793
21
-18.7249750000000006
0
LINE
8
BLACK
6
CONTINUOUS
10
156.3036149999999793
20
-18.7249750000000006
11
156.3788389999999993
21
-18.8339569999999981
0
LINE
8
BLACK
6
CONTINUOUS
10
156.3788389999999993
20
-18.8339569999999981
11
156.4779589999999985
21
-18.9217689999999976
0
LINE
8
BLACK
6
CONTINUOUS
10
156.4779589999999985
20
-18.9217689999999976
11
156.5952139999999986
21
-18.9833089999999984
0
LINE
8
BLACK
6
CONTINUOUS
10
156.5952139999999986
20
-18.9833089999999984
11
156.7237889999999823
21
-19.0150000000000006
0
LINE
8
BLACK
6
CONTINUOUS
10
156.7237889999999823
20
-19.0150000000000006
11
156.789999999999992
21
-19.0150000000000006
0
LINE
8
BLACK
6
CONTINUOUS
10
156.789999999999992
20
-19.0150000000000006
11
156.819389000000001
21
-19.0245490000000004
0
LINE
8
BLACK
6
CONTINUOUS
10
156.819389000000001
20
-19.0245490000000004
11
156.8306149999999946
21
-19.0399989999999981
0
LINE
8
BLACK
6
CONTINUOUS
10
156.8306149999999946
20
-19.0399989999999981
11
206.7556459999999845
21
-19.0399879999999975
0
LINE
8
BLACK
6
CONTINUOUS
10
206.7556459999999845
20
-19.0399879999999975
11
206.7668599999999799
21
-19.0245529999999974
0
LINE
8
BLACK
6
CONTINUOUS
10
206.7668599999999799
20
-19.0245529999999974
11
206.7962489999999889
21
-19.0150030000000001
0
LINE
8
BLACK
6
CONTINUOUS
10
206.7962489999999889
20
-19.0150030000000001
11
206.7962489999999889
21
-19.0150219999999983
0
LINE
8
BLACK
6
CONTINUOUS
10
206.7962489999999889
20
-19.0150219999999983
11
206.9383129999999937
21
-19.0150189999999988
0
LINE
8
BLACK
6
CONTINUOUS
10
206.9383129999999937
20
-19.0150189999999988
11
207.2206529999999987
21
-18.9832019999999986
0
LINE
8
BLACK
6
CONTINUOUS
10
207.2206529999999987
20
-18.9832019999999986
11
207.4976559999999779
21
-18.9199739999999998
0
LINE
8
BLACK
6
CONTINUOUS
10
207.4976559999999779
20
-18.9199739999999998
11
207.7658380000000022
21
-18.8261289999999981
0
LINE
8
BLACK
6
CONTINUOUS
10
207.7658380000000022
20
-18.8261289999999981
11
208.0218270000000018
21
-18.7028469999999984
0
LINE
8
BLACK
6
CONTINUOUS
10
208.0218270000000018
20
-18.7028469999999984
11
208.2624029999999777
21
-18.5516799999999975
0
LINE
8
BLACK
6
CONTINUOUS
10
208.2624029999999777
20
-18.5516799999999975
11
208.4845409999999788
21
-18.3745270000000005
0
LINE
8
BLACK
6
CONTINUOUS
10
208.4845409999999788
20
-18.3745270000000005
11
208.5849949999999922
21
-18.2740720000000003
0
LINE
8
BLACK
6
CONTINUOUS
10
208.5849949999999922
20
-18.2740720000000003
11
208.5849949999999922
21
-18.2740729999999978
0
LINE
8
BLACK
6
CONTINUOUS
10
208.5849949999999922
20
-18.2740729999999978
11
208.5849969999999871
21
-18.2740709999999993
0
LINE
8
BLACK
6
CONTINUOUS
10
208.5849969999999871
20
-18.2740709999999993
11
210.9175889999999924
21
-15.9414789999999993
0
LINE
8
BLACK
6
CONTINUOUS
10
210.9175889999999924
20
-15.9414789999999993
11
210.9175929999999823
21
-15.9414759999999998
0
LINE
8
BLACK
6
CONTINUOUS
10
210.9175929999999823
20
-15.9414759999999998
11
211.1374749999999949
21
-15.7449789999999989
0
LINE
8
BLACK
6
CONTINUOUS
10
211.1374749999999949
20
-15.7449789999999989
11
211.3779779999999846
21
-15.574330999999999
0
LINE
8
BLACK
6
CONTINUOUS
10
211.3779779999999846
20
-15.574330999999999
11
211.6360749999999769
21
-15.4316839999999988
0
LINE
8
BLACK
6
CONTINUOUS
10
211.6360749999999769
20
-15.4316839999999988
11
211.9085199999999816
21
-15.3188309999999994
0
LINE
8
BLACK
6
CONTINUOUS
10
211.9085199999999816
20
-15.3188309999999994
11
212.1918879999999774
21
-15.23719
0
LINE
8
BLACK
6
CONTINUOUS
10
212.1918879999999774
20
-15.23719
11
212.4826139999999839
21
-15.1877889999999987
0
LINE
8
BLACK
6
CONTINUOUS
10
212.4826139999999839
20
-15.1877889999999987
11
212.7770439999999894
21
-15.1712479999999985
0
LINE
8
BLACK
6
CONTINUOUS
10
212.7770439999999894
20
-15.1712479999999985
11
212.7770439999999894
21
-15.1712600000000002
0
LINE
8
BLACK
6
CONTINUOUS
10
212.7770439999999894
20
-15.1712600000000002
11
212.7770449999999869
21
-15.1712600000000002
0
LINE
8
BLACK
6
CONTINUOUS
10
212.7770449999999869
20
-15.1712600000000002
11
229.815039999999982
21
-15.1712600000000002
0
LINE
8
BLACK
6
CONTINUOUS
10
229.815039999999982
20
-15.1712600000000002
11
229.8150459999999953
21
-15.1712609999999994
0
LINE
8
BLACK
6
CONTINUOUS
10
229.8150459999999953
20
-15.1712609999999994
11
229.8150509999999827
21
-15.1712600000000002
0
LINE
8
BLACK
6
CONTINUOUS
10
229.8150509999999827
20
-15.1712600000000002
11
229.8150509999999827
21
-15.1712319999999998
0
LINE
8
BLACK
6
CONTINUOUS
10
229.8150509999999827
20
-15.1712319999999998
11
229.9462409999999863
21
-15.1713009999999997
0
LINE
8
BLACK
6
CONTINUOUS
10
229.9462409999999863
20
-15.1713009999999997
11
230.206499999999977
21
-15.1380129999999991
0
LINE
8
BLACK
6
CONTINUOUS
10
230.206499999999977
20
-15.1380129999999991
11
230.4604319999999973
21
-15.0719699999999985
0
LINE
8
BLACK
6
CONTINUOUS
10
230.4604319999999973
20
-15.0719699999999985
11
230.703930999999983
21
-14.97424
0
LINE
8
BLACK
6
CONTINUOUS
10
230.703930999999983
20
-14.97424
11
230.9330609999999808
21
-14.8464010000000002
0
LINE
8
BLACK
6
CONTINUOUS
10
230.9330609999999808
20
-14.8464010000000002
11
231.1441159999999968
21
-14.6905209999999986
0
LINE
8
BLACK
6
CONTINUOUS
10
231.1441159999999968
20
-14.6905209999999986
11
231.2385469999999827
21
-14.6000679999999985
0
LINE
8
BLACK
6
CONTINUOUS
10
231.2385469999999827
20
-14.6000679999999985
11
232.064643999999987
21
-13.7739709999999995
0
LINE
8
BLACK
6
CONTINUOUS
10
232.064643999999987
20
-13.7739709999999995
11
232.064645999999982
21
-13.7739689999999992
0
LINE
8
BLACK
6
CONTINUOUS
10
232.064645999999982
20
-13.7739689999999992
11
232.0646469999999795
21
-13.7739689999999992
0
LINE
8
BLACK
6
CONTINUOUS
10
232.0646469999999795
20
-13.7739689999999992
11
232.2880159999999989
21
-13.5764549999999993
0
LINE
8
BLACK
6
CONTINUOUS
10
232.2880159999999989
20
-13.5764549999999993
11
232.533883000000003
21
-13.407769
0
LINE
8
BLACK
6
CONTINUOUS
10
232.533883000000003
20
-13.407769
11
232.7985499999999774
21
-13.270448
0
LINE
8
BLACK
6
CONTINUOUS
10
232.7985499999999774
20
-13.270448
11
233.0780369999999948
21
-13.1665580000000002
0
LINE
8
BLACK
6
CONTINUOUS
10
233.0780369999999948
20
-13.1665580000000002
11
233.3681379999999876
21
-13.0976619999999997
0
LINE
8
BLACK
6
CONTINUOUS
10
233.3681379999999876
20
-13.0976619999999997
11
233.6644919999999956
21
-13.0647950000000002
0
LINE
8
BLACK
6
CONTINUOUS
10
233.6644919999999956
20
-13.0647950000000002
11
233.9626399999999933
21
-13.0684529999999999
0
LINE
8
BLACK
6
CONTINUOUS
10
233.576929999999976
20
-13.1664359999999991
11
233.284639999999996
21
-13.211214
0
LINE
8
BLACK
6
CONTINUOUS
10
233.284639999999996
20
-13.211214
11
233.0003489999999999
21
-13.2925620000000002
0
LINE
8
BLACK
6
CONTINUOUS
10
233.0003489999999999
20
-13.2925620000000002
11
232.7286129999999957
21
-13.4091749999999994
0
LINE
8
BLACK
6
CONTINUOUS
10
232.7286129999999957
20
-13.4091749999999994
11
232.4737879999999848
21
-13.5591840000000001
0
LINE
8
BLACK
6
CONTINUOUS
10
232.4737879999999848
20
-13.5591840000000001
11
232.2399559999999781
21
-13.7401859999999996
0
LINE
8
BLACK
6
CONTINUOUS
10
232.2399559999999781
20
-13.7401859999999996
11
232.1353579999999965
21
-13.8446789999999993
0
LINE
8
BLACK
6
CONTINUOUS
10
232.1353579999999965
20
-13.8446789999999993
11
232.1353549999999757
21
-13.8446799999999985
0
LINE
8
BLACK
6
CONTINUOUS
10
232.1353549999999757
20
-13.8446799999999985
11
231.308780999999982
21
-14.6712549999999986
0
LINE
8
BLACK
6
CONTINUOUS
10
231.308780999999982
20
-14.6712549999999986
11
231.308195999999981
21
-14.6716449999999998
0
LINE
8
BLACK
6
CONTINUOUS
10
231.308195999999981
20
-14.6716449999999998
11
231.307992999999982
21
-14.6720239999999986
0
LINE
8
BLACK
6
CONTINUOUS
10
231.307992999999982
20
-14.6720239999999986
11
231.1293169999999861
21
-14.8252439999999996
0
LINE
8
BLACK
6
CONTINUOUS
10
231.1293169999999861
20
-14.8252439999999996
11
230.9350259999999935
21
-14.958107
0
LINE
8
BLACK
6
CONTINUOUS
10
230.9350259999999935
20
-14.958107
11
230.7274290000000008
21
-15.0690329999999992
0
LINE
8
BLACK
6
CONTINUOUS
10
230.7274290000000008
20
-15.0690329999999992
11
230.5089909999999804
21
-15.1567059999999998
0
LINE
8
BLACK
6
CONTINUOUS
10
230.5089909999999804
20
-15.1567059999999998
11
230.2823080000000004
21
-15.2200819999999997
0
LINE
8
BLACK
6
CONTINUOUS
10
230.2823080000000004
20
-15.2200819999999997
11
230.0500749999999925
21
-15.2584089999999986
0
LINE
8
BLACK
6
CONTINUOUS
10
230.0500749999999925
20
-15.2584089999999986
11
229.8152299999999855
21
-15.2712219999999999
0
LINE
8
BLACK
6
CONTINUOUS
10
229.8152299999999855
20
-15.2712219999999999
11
229.8150489999999877
21
-15.2712579999999996
0
LINE
8
BLACK
6
CONTINUOUS
10
229.8150489999999877
20
-15.2712579999999996
11
229.8150489999999877
21
-15.2712599999999998
0
LINE
8
BLACK
6
CONTINUOUS
10
229.8150489999999877
20
-15.2712599999999998
11
229.8150449999999978
21
-15.2712579999999996
0
LINE
8
BLACK
6
CONTINUOUS
10
229.8150449999999978
20
-15.2712579999999996
11
229.815039999999982
21
-15.2712599999999998
0
LINE
8
BLACK
6
CONTINUOUS
10
229.815039999999982
20
-15.2712599999999998
11
212.7770459999999844
21
-15.2712599999999998
0
LINE
8
BLACK
6
CONTINUOUS
10
212.7770459999999844
20
-15.2712599999999998
11
212.7770449999999869
21
-15.2712599999999998
0
LINE
8
BLACK
6
CONTINUOUS
10
212.7770449999999869
20
-15.2712599999999998
11
212.7769839999999988
21
-15.2712479999999999
0
LINE
8
BLACK
6
CONTINUOUS
10
212.7769839999999988
20
-15.2712479999999999
11
212.634982999999977
21
-15.2712509999999995
0
LINE
8
BLACK
6
CONTINUOUS
10
212.634982999999977
20
-15.2712509999999995
11
212.3526430000000005
21
-15.3030679999999997
0
LINE
8
BLACK
6
CONTINUOUS
10
212.3526430000000005
20
-15.3030679999999997
11
212.0756399999999928
21
-15.3662960000000002
0
LINE
8
BLACK
6
CONTINUOUS
10
212.0756399999999928
20
-15.3662960000000002
11
211.8074579999999969
21
-15.4601399999999991
0
LINE
8
BLACK
6
CONTINUOUS
10
211.8074579999999969
20
-15.4601399999999991
11
211.5514699999999948
21
-15.5834209999999995
0
LINE
8
BLACK
6
CONTINUOUS
10
211.5514699999999948
20
-15.5834209999999995
11
211.310892999999993
21
-15.7345859999999984
0
LINE
8
BLACK
6
CONTINUOUS
10
211.310892999999993
20
-15.7345859999999984
11
211.0887539999999944
21
-15.9117369999999987
0
LINE
8
BLACK
6
CONTINUOUS
10
211.0887539999999944
20
-15.9117369999999987
11
210.9882999999999811
21
-16.0121909999999978
0
LINE
8
BLACK
6
CONTINUOUS
10
210.9882999999999811
20
-16.0121909999999978
11
210.9882989999999836
21
-16.0121900000000004
0
LINE
8
BLACK
6
CONTINUOUS
10
210.9882989999999836
20
-16.0121900000000004
11
208.6557080000000042
21
-18.3447800000000001
0
LINE
8
BLACK
6
CONTINUOUS
10
208.6557080000000042
20
-18.3447800000000001
11
208.6557069999999783
21
-18.3447829999999996
0
LINE
8
BLACK
6
CONTINUOUS
10
208.6557069999999783
20
-18.3447829999999996
11
208.6557059999999808
21
-18.3447829999999996
0
LINE
8
BLACK
6
CONTINUOUS
10
208.6557059999999808
20
-18.3447829999999996
11
208.4358220000000017
21
-18.5412859999999995
0
LINE
8
BLACK
6
CONTINUOUS
10
208.4358220000000017
20
-18.5412859999999995
11
208.1953189999999836
21
-18.7119350000000004
0
LINE
8
BLACK
6
CONTINUOUS
10
208.1953189999999836
20
-18.7119350000000004
11
207.9372219999999913
21
-18.8545839999999991
0
LINE
8
BLACK
6
CONTINUOUS
10
207.9372219999999913
20
-18.8545839999999991
11
207.6647759999999892
21
-18.9674389999999988
0
LINE
8
BLACK
6
CONTINUOUS
10
207.6647759999999892
20
-18.9674389999999988
11
207.3814079999999933
21
-19.04908
0
LINE
8
BLACK
6
CONTINUOUS
10
207.3814079999999933
20
-19.04908
11
207.0906809999999894
21
-19.0984820000000006
0
LINE
8
BLACK
6
CONTINUOUS
10
207.0906809999999894
20
-19.0984820000000006
11
206.7962509999999838
21
-19.1150219999999997
0
LINE
8
BLACK
6
CONTINUOUS
10
206.7962509999999838
20
-19.1150219999999997
11
206.7962509999999838
21
-19.115002999999998
0
LINE
8
BLACK
6
CONTINUOUS
10
206.7962509999999838
20
-19.115002999999998
11
206.7668620000000033
21
-19.1054539999999982
0
LINE
8
BLACK
6
CONTINUOUS
10
206.7668620000000033
20
-19.1054539999999982
11
206.7556229999999857
21
-19.0899879999999982
0
LINE
8
BLACK
6
CONTINUOUS
10
206.7556229999999857
20
-19.0899879999999982
11
156.8306149999999946
21
-19.0899989999999988
0
LINE
8
BLACK
6
CONTINUOUS
10
156.8306149999999946
20
-19.0899989999999988
11
156.819389000000001
21
-19.1054509999999986
0
LINE
8
BLACK
6
CONTINUOUS
10
156.819389000000001
20
-19.1054509999999986
11
156.789999999999992
21
-19.1149999999999984
0
LINE
8
BLACK
6
CONTINUOUS
10
156.789999999999992
20
-19.1149999999999984
11
156.6464069999999822
21
-19.0988209999999974
0
LINE
8
BLACK
6
CONTINUOUS
10
156.6464069999999822
20
-19.0988209999999974
11
156.5100149999999815
21
-19.0510950000000001
0
LINE
8
BLACK
6
CONTINUOUS
10
156.5100149999999815
20
-19.0510950000000001
11
156.3876620000000059
21
-18.9742159999999984
0
LINE
8
BLACK
6
CONTINUOUS
10
156.3876620000000059
20
-18.9742159999999984
11
156.2854839999999967
21
-18.8720379999999999
0
LINE
8
BLACK
6
CONTINUOUS
10
156.2854839999999967
20
-18.8720379999999999
11
156.2086050000000057
21
-18.7496849999999995
0
LINE
8
BLACK
6
CONTINUOUS
10
156.2086050000000057
20
-18.7496849999999995
11
156.1608789999999942
21
-18.6132929999999988
0
LINE
8
BLACK
6
CONTINUOUS
10
156.1608789999999942
20
-18.6132929999999988
11
156.1447000000000003
21
-18.4696999999999996
0
LINE
8
BLACK
6
CONTINUOUS
10
156.1447000000000003
20
-18.4696999999999996
11
156.1608789999999942
21
-18.3261070000000004
0
LINE
8
BLACK
6
CONTINUOUS
10
156.1608789999999942
20
-18.3261070000000004
11
156.2086050000000057
21
-18.1897149999999996
0
LINE
8
BLACK
6
CONTINUOUS
10
156.2086050000000057
20
-18.1897149999999996
11
156.2854839999999967
21
-18.0673619999999993
0
LINE
8
BLACK
6
CONTINUOUS
10
156.2854839999999967
20
-18.0673619999999993
11
156.3876620000000059
21
-17.9651840000000007
0
LINE
8
BLACK
6
CONTINUOUS
10
156.3876620000000059
20
-17.9651840000000007
11
156.5100149999999815
21
-17.888304999999999
0
LINE
8
BLACK
6
CONTINUOUS
10
156.5100149999999815
20
-17.888304999999999
11
156.6464069999999822
21
-17.8405789999999982
0
LINE
8
BLACK
6
CONTINUOUS
10
156.6464069999999822
20
-17.8405789999999982
11
156.7897439999999847
21
-17.8244279999999975
0
LINE
8
BLACK
6
CONTINUOUS
10
156.7897439999999847
20
-17.8244279999999975
11
156.789999999999992
21
-17.8243779999999994
0
LINE
8
BLACK
6
CONTINUOUS
10
156.789999999999992
20
-17.8243779999999994
11
176.6337999999999795
21
-17.8243720000000003
0
LINE
8
BLACK
6
CONTINUOUS
10
176.6337999999999795
20
-17.8243720000000003
11
176.6337999999999795
21
-17.8243340000000003
0
LINE
8
BLACK
6
CONTINUOUS
10
176.6337999999999795
20
-17.8243340000000003
11
176.7816499999999849
21
-17.8242589999999979
0
LINE
8
BLACK
6
CONTINUOUS
10
176.7816499999999849
20
-17.8242589999999979
11
177.0749809999999798
21
-17.7869010000000003
0
LINE
8
BLACK
6
CONTINUOUS
10
177.0749809999999798
20
-17.7869010000000003
11
177.3612420000000043
21
-17.7127820000000007
0
LINE
8
BLACK
6
CONTINUOUS
10
177.3612420000000043
20
-17.7127820000000007
11
177.6358449999999891
21
-17.6030920000000002
0
LINE
8
BLACK
6
CONTINUOUS
10
177.6358449999999891
20
-17.6030920000000002
11
177.8943899999999871
21
-17.4595880000000001
0
LINE
8
BLACK
6
CONTINUOUS
10
177.8943899999999871
20
-17.4595880000000001
11
178.1327330000000018
21
-17.2845689999999976
0
LINE
8
BLACK
6
CONTINUOUS
10
178.1327330000000018
20
-17.2845689999999976
11
178.3470539999999858
21
-17.0808409999999995
0
LINE
8
BLACK
6
CONTINUOUS
10
178.3470539999999858
20
-17.0808409999999995
11
178.5339199999999948
21
-16.8516680000000001
0
LINE
8
BLACK
6
CONTINUOUS
10
178.5339199999999948
20
-16.8516680000000001
11
178.6903339999999787
21
-16.6007239999999996
0
LINE
8
BLACK
6
CONTINUOUS
10
178.6903339999999787
20
-16.6007239999999996
11
178.8137909999999806
21
-16.3320279999999975
0
LINE
8
BLACK
6
CONTINUOUS
10
178.8137909999999806
20
-16.3320279999999975
11
178.9023129999999924
21
-16.0498890000000003
0
LINE
8
BLACK
6
CONTINUOUS
10
178.9023129999999924
20
-16.0498890000000003
11
178.9544789999999921
21
-15.7588259999999991
0
LINE
8
BLACK
6
CONTINUOUS
10
178.9544789999999921
20
-15.7588259999999991
11
178.9694559999999797
21
-15.4635049999999996
0
LINE
8
BLACK
6
CONTINUOUS
10
178.9694559999999797
20
-15.4635049999999996
11
178.9470010000000002
21
-15.1686579999999989
0
LINE
8
BLACK
6
CONTINUOUS
10
178.9470010000000002
20
-15.1686579999999989
11
178.8874759999999924
21
-14.8790110000000002
0
LINE
8
BLACK
6
CONTINUOUS
10
178.8874759999999924
20
-14.8790110000000002
11
178.7918349999999919
21
-14.5992049999999995
0
LINE
8
BLACK
6
CONTINUOUS
10
178.7918349999999919
20
-14.5992049999999995
11
178.6616089999999986
21
-14.3337240000000001
0
LINE
8
BLACK
6
CONTINUOUS
10
178.6616089999999986
20
-14.3337240000000001
11
178.4988859999999988
21
-14.086822999999999
0
LINE
8
BLACK
6
CONTINUOUS
10
178.4988859999999988
20
-14.086822999999999
11
178.3062740000000019
21
-13.8624580000000002
0
LINE
8
BLACK
6
CONTINUOUS
10
178.3062740000000019
20
-13.8624580000000002
11
178.0868600000000015
21
-13.6642259999999993
0
LINE
8
BLACK
6
CONTINUOUS
10
178.0868600000000015
20
-13.6642259999999993
11
177.8441589999999906
21
-13.4953029999999998
0
LINE
8
BLACK
6
CONTINUOUS
10
177.8441589999999906
20
-13.4953029999999998
11
177.5820609999999817
21
-13.3583949999999998
0
LINE
8
BLACK
6
CONTINUOUS
10
177.5820609999999817
20
-13.3583949999999998
11
177.3047669999999982
21
-13.2556979999999989
0
LINE
8
BLACK
6
CONTINUOUS
10
177.3047669999999982
20
-13.2556979999999989
11
177.0167199999999923
21
-13.1888569999999987
0
LINE
8
BLACK
6
CONTINUOUS
10
177.0167199999999923
20
-13.1888569999999987
11
176.722535999999991
21
-13.1589429999999989
0
LINE
8
BLACK
6
CONTINUOUS
10
176.722535999999991
20
-13.1589429999999989
11
176.4269299999999987
21
-13.1664359999999991
0
LINE
8
BLACK
6
CONTINUOUS
10
176.4269299999999987
20
-13.1664359999999991
11
176.1346399999999903
21
-13.211214
0
LINE
8
BLACK
6
CONTINUOUS
10
176.1346399999999903
20
-13.211214
11
175.8503489999999942
21
-13.2925620000000002
0
LINE
8
BLACK
6
CONTINUOUS
10
175.8503489999999942
20
-13.2925620000000002
11
175.5786129999999901
21
-13.4091749999999994
0
LINE
8
BLACK
6
CONTINUOUS
10
175.5786129999999901
20
-13.4091749999999994
11
175.3237879999999791
21
-13.5591840000000001
0
LINE
8
BLACK
6
CONTINUOUS
10
175.3237879999999791
20
-13.5591840000000001
11
175.0899560000000008
21
-13.7401859999999996
0
LINE
8
BLACK
6
CONTINUOUS
10
175.0899560000000008
20
-13.7401859999999996
11
174.9853579999999909
21
-13.8446789999999993
0
LINE
8
BLACK
6
CONTINUOUS
10
174.9853579999999909
20
-13.8446789999999993
11
174.9853549999999984
21
-13.8446799999999985
0
LINE
8
BLACK
6
CONTINUOUS
10
174.9853549999999984
20
-13.8446799999999985
11
174.1587810000000047
21
-14.6712549999999986
0
LINE
8
BLACK
6
CONTINUOUS
10
174.1587810000000047
20
-14.6712549999999986
11
174.1581960000000038
21
-14.6716449999999998
0
LINE
8
BLACK
6
CONTINUOUS
10
174.1581960000000038
20
-14.6716449999999998
11
174.1579930000000047
21
-14.6720239999999986
0
LINE
8
BLACK
6
CONTINUOUS
10
174.1579930000000047
20
-14.6720239999999986
11
173.9793169999999805
21
-14.8252439999999996
0
LINE
8
BLACK
6
CONTINUOUS
10
173.9793169999999805
20
-14.8252439999999996
11
173.7850259999999878
21
-14.958107
0
LINE
8
BLACK
6
CONTINUOUS
10
173.7850259999999878
20
-14.958107
11
173.5774289999999951
21
-15.0690329999999992
0
LINE
8
BLACK
6
CONTINUOUS
10
173.5774289999999951
20
-15.0690329999999992
11
173.3589910000000032
21
-15.1567059999999998
0
LINE
8
BLACK
6
CONTINUOUS
10
173.3589910000000032
20
-15.1567059999999998
11
173.1323079999999948
21
-15.2200819999999997
0
LINE
8
BLACK
6
CONTINUOUS
10
173.1323079999999948
20
-15.2200819999999997
11
172.9000749999999869
21
-15.2584089999999986
0
LINE
8
BLACK
6
CONTINUOUS
10
172.9000749999999869
20
-15.2584089999999986
11
172.6652299999999798
21
-15.2712219999999999
0
LINE
8
BLACK
6
CONTINUOUS
10
172.6652299999999798
20
-15.2712219999999999
11
172.665048999999982
21
-15.2712579999999996
0
LINE
8
BLACK
6
CONTINUOUS
10
172.665048999999982
20
-15.2712579999999996
11
172.665048999999982
21
-15.2712599999999998
0
LINE
8
BLACK
6
CONTINUOUS
10
172.665048999999982
20
-15.2712599999999998
11
172.6650449999999921
21
-15.2712579999999996
0
LINE
8
BLACK
6
CONTINUOUS
10
172.6650449999999921
20
-15.2712579999999996
11
172.6650400000000047
21
-15.2712599999999998
0
LINE
8
BLACK
6
CONTINUOUS
10
172.6650400000000047
20
-15.2712599999999998
11
155.6270460000000071
21
-15.2712599999999998
0
LINE
8
BLACK
6
CONTINUOUS
10
155.6270460000000071
20
-15.2712599999999998
11
155.6270449999999812
21
-15.2712599999999998
0
LINE
8
BLACK
6
CONTINUOUS
10
155.6270449999999812
20
-15.2712599999999998
11
155.6269839999999931
21
-15.2712479999999999
0
LINE
8
BLACK
6
CONTINUOUS
10
155.6269839999999931
20
-15.2712479999999999
11
155.4849829999999997
21
-15.2712509999999995
0
LINE
8
BLACK
6
CONTINUOUS
10
155.4849829999999997
20
-15.2712509999999995
11
155.2026429999999948
21
-15.3030679999999997
0
LINE
8
BLACK
6
CONTINUOUS
10
155.2026429999999948
20
-15.3030679999999997
11
154.9256399999999871
21
-15.3662960000000002
0
LINE
8
BLACK
6
CONTINUOUS
10
154.9256399999999871
20
-15.3662960000000002
11
154.6574579999999912
21
-15.4601399999999991
0
LINE
8
BLACK
6
CONTINUOUS
10
154.6574579999999912
20
-15.4601399999999991
11
154.4014699999999891
21
-15.5834209999999995
0
LINE
8
BLACK
6
CONTINUOUS
10
154.4014699999999891
20
-15.5834209999999995
11
154.1608929999999873
21
-15.7345859999999984
0
LINE
8
BLACK
6
CONTINUOUS
10
154.1608929999999873
20
-15.7345859999999984
11
153.9387539999999888
21
-15.9117369999999987
0
LINE
8
BLACK
6
CONTINUOUS
10
153.9387539999999888
20
-15.9117369999999987
11
153.8383000000000038
21
-16.0121909999999978
0
LINE
8
BLACK
6
CONTINUOUS
10
153.8383000000000038
20
-16.0121909999999978
11
153.8382990000000063
21
-16.0121900000000004
0
LINE
8
BLACK
6
CONTINUOUS
10
153.8382990000000063
20
-16.0121900000000004
11
151.5057079999999985
21
-18.3447800000000001
0
LINE
8
BLACK
6
CONTINUOUS
10
151.5057079999999985
20
-18.3447800000000001
11
151.505707000000001
21
-18.3447829999999996
0
LINE
8
BLACK
6
CONTINUOUS
10
151.505707000000001
20
-18.3447829999999996
11
151.5057060000000035
21
-18.3447829999999996
0
LINE
8
BLACK
6
CONTINUOUS
10
151.5057060000000035
20
-18.3447829999999996
11
151.285821999999996
21
-18.5412859999999995
0
LINE
8
BLACK
6
CONTINUOUS
10
151.285821999999996
20
-18.5412859999999995
11
151.0453190000000063
21
-18.7119350000000004
0
LINE
8
BLACK
6
CONTINUOUS
10
151.0453190000000063
20
-18.7119350000000004
11
150.7872219999999857
21
-18.8545839999999991
0
LINE
8
BLACK
6
CONTINUOUS
10
150.7872219999999857
20
-18.8545839999999991
11
150.5147759999999835
21
-18.9674389999999988
0
LINE
8
BLACK
6
CONTINUOUS
10
150.5147759999999835
20
-18.9674389999999988
11
150.2314079999999876
21
-19.04908
0
LINE
8
BLACK
6
CONTINUOUS
10
150.2314079999999876
20
-19.04908
11
149.9406809999999837
21
-19.0984820000000006
0
LINE
8
BLACK
6
CONTINUOUS
10
149.9406809999999837
20
-19.0984820000000006
11
149.6462510000000066
21
-19.1150219999999997
0
LINE
8
BLACK
6
CONTINUOUS
10
149.6462510000000066
20
-19.1150219999999997
11
149.6462510000000066
21
-19.115002999999998
0
LINE
8
BLACK
6
CONTINUOUS
10
149.6462510000000066
20
-19.115002999999998
11
149.6168619999999976
21
-19.1054539999999982
0
LINE
8
BLACK
6
CONTINUOUS
10
149.6168619999999976
20
-19.1054539999999982
11
149.6056339999999807
21
-19.0900019999999984
0
LINE
8
BLACK
6
CONTINUOUS
10
149.6056339999999807
20
-19.0900019999999984
11
106.8243650000000002
21
-19.0899999999999999
0
LINE
8
BLACK
6
CONTINUOUS
10
106.8243650000000002
20
-19.0899999999999999
11
106.813137999999995
21
-19.1054509999999986
0
LINE
8
BLACK
6
CONTINUOUS
10
106.813137999999995
20
-19.1054509999999986
11
106.7837490000000003
21
-19.1149999999999984
0
LINE
8
BLACK
6
CONTINUOUS
10
106.7837490000000003
20
-19.1149999999999984
11
106.4893209999999897
21
-19.0984599999999993
0
LINE
8
BLACK
6
CONTINUOUS
10
106.4893209999999897
20
-19.0984599999999993
11
106.1985959999999949
21
-19.0490589999999997
0
LINE
8
BLACK
6
CONTINUOUS
10
106.1985959999999949
20
-19.0490589999999997
11
105.915229999999994
21
-18.9674179999999986
0
LINE
8
BLACK
6
CONTINUOUS
10
105.915229999999994
20
-18.9674179999999986
11
105.6427869999999984
21
-18.8545639999999999
0
LINE
8
BLACK
6
CONTINUOUS
10
105.6427869999999984
20
-18.8545639999999999
11
105.3846920000000011
21
-18.7119159999999987
0
LINE
8
BLACK
6
CONTINUOUS
10
105.3846920000000011
20
-18.7119159999999987
11
105.1441909999999922
21
-18.5412679999999988
0
LINE
8
BLACK
6
CONTINUOUS
10
105.1441909999999922
20
-18.5412679999999988
11
104.9244199999999978
21
-18.3448649999999986
0
LINE
8
BLACK
6
CONTINUOUS
10
104.9244199999999978
20
-18.3448649999999986
11
104.9242939999999891
21
-18.3447809999999976
0
LINE
8
BLACK
6
CONTINUOUS
10
104.9242939999999891
20
-18.3447809999999976
11
102.5917010000000005
21
-16.0121870000000008
0
LINE
8
BLACK
6
CONTINUOUS
10
102.5917010000000005
20
-16.0121870000000008
11
102.5916929999999923
21
-16.0121959999999994
0
LINE
8
BLACK
6
CONTINUOUS
10
102.5916929999999923
20
-16.0121959999999994
11
102.4912389999999931
21
-15.9117419999999985
0
LINE
8
BLACK
6
CONTINUOUS
10
102.4912389999999931
20
-15.9117419999999985
11
102.2690999999999946
21
-15.7345929999999985
0
LINE
8
BLACK
6
CONTINUOUS
10
102.2690999999999946
20
-15.7345929999999985
11
102.0285250000000019
21
-15.5834279999999996
0
LINE
8
BLACK
6
CONTINUOUS
10
102.0285250000000019
20
-15.5834279999999996
11
101.7725369999999998
21
-15.4601479999999984
0
LINE
8
BLACK
6
CONTINUOUS
10
101.7725369999999998
20
-15.4601479999999984
11
101.5043569999999988
21
-15.3663049999999988
0
LINE
8
BLACK
6
CONTINUOUS
10
101.5043569999999988
20
-15.3663049999999988
11
101.2273549999999886
21
-15.303077
0
LINE
8
BLACK
6
CONTINUOUS
10
101.2273549999999886
20
-15.303077
11
100.9450169999999929
21
-15.2712599999999998
0
LINE
8
BLACK
6
CONTINUOUS
10
100.9450169999999929
20
-15.2712599999999998
11
100.8029539999999997
21
-15.2712569999999985
0
LINE
8
BLACK
6
CONTINUOUS
10
100.8029539999999997
20
-15.2712569999999985
11
83.7649600000000021
21
-15.2712569999999985
0
LINE
8
BLACK
6
CONTINUOUS
10
83.7649600000000021
20
-15.2712569999999985
11
83.764954000000003
21
-15.271255
0
LINE
8
BLACK
6
CONTINUOUS
10
83.764954000000003
20
-15.271255
11
83.7649509999999964
21
-15.2712569999999985
0
LINE
8
BLACK
6
CONTINUOUS
10
83.7649509999999964
20
-15.2712569999999985
11
83.5299219999999991
21
-15.2584339999999994
0
LINE
8
BLACK
6
CONTINUOUS
10
83.5299219999999991
20
-15.2584339999999994
11
83.2976859999999988
21
-15.2201059999999995
0
LINE
8
BLACK
6
CONTINUOUS
10
83.2976859999999988
20
-15.2201059999999995
11
83.070999999999998
21
-15.1567289999999986
0
LINE
8
BLACK
6
CONTINUOUS
10
83.070999999999998
20
-15.1567289999999986
11
82.8525599999999969
21
-15.0690559999999998
0
LINE
8
BLACK
6
CONTINUOUS
10
82.8525599999999969
20
-15.0690559999999998
11
82.6449590000000001
21
-14.9581269999999993
0
LINE
8
BLACK
6
CONTINUOUS
10
82.6449590000000001
20
-14.9581269999999993
11
82.4506659999999982
21
-14.8252629999999996
0
LINE
8
BLACK
6
CONTINUOUS
10
82.4506659999999982
20
-14.8252629999999996
11
82.2719879999999932
21
-14.6720399999999991
0
LINE
8
BLACK
6
CONTINUOUS
10
82.2719879999999932
20
-14.6720399999999991
11
82.2720070000000021
21
-14.6720209999999991
0
LINE
8
BLACK
6
CONTINUOUS
10
82.2720070000000021
20
-14.6720209999999991
11
82.2718029999999914
21
-14.6716419999999985
0
LINE
8
BLACK
6
CONTINUOUS
10
82.2718029999999914
20
-14.6716419999999985
11
82.2712190000000021
21
-14.6712519999999991
0
LINE
8
BLACK
6
CONTINUOUS
10
82.2712190000000021
20
-14.6712519999999991
11
81.4446429999999992
21
-13.8446759999999998
0
LINE
8
BLACK
6
CONTINUOUS
10
81.4446429999999992
20
-13.8446759999999998
11
81.4446409999999901
21
-13.844678
0
LINE
8
BLACK
6
CONTINUOUS
10
81.4446409999999901
20
-13.844678
11
81.3400419999999968
21
-13.7401839999999993
0
LINE
8
BLACK
6
CONTINUOUS
10
81.3400419999999968
20
-13.7401839999999993
11
81.1062079999999952
21
-13.5591829999999991
0
LINE
8
BLACK
6
CONTINUOUS
10
81.1062079999999952
20
-13.5591829999999991
11
80.8513799999999918
21
-13.4091749999999994
0
LINE
8
BLACK
6
CONTINUOUS
10
80.8513799999999918
20
-13.4091749999999994
11
80.5796429999999901
21
-13.2925629999999995
0
LINE
8
BLACK
6
CONTINUOUS
10
80.5796429999999901
20
-13.2925629999999995
11
80.2953499999999991
21
-13.2112169999999995
0
LINE
8
BLACK
6
CONTINUOUS
10
80.2953499999999991
20
-13.2112169999999995
11
80.0030579999999958
21
-13.1664389999999987
0
LINE
8
BLACK
6
CONTINUOUS
10
80.0030579999999958
20
-13.1664389999999987
11
79.7074509999999918
21
-13.1589489999999998
0
LINE
8
BLACK
6
CONTINUOUS
10
79.7074509999999918
20
-13.1589489999999998
11
79.413265999999993
21
-13.1888639999999988
0
LINE
8
BLACK
6
CONTINUOUS
10
79.413265999999993
20
-13.1888639999999988
11
79.1252179999999896
21
-13.2557069999999992
0
LINE
8
BLACK
6
CONTINUOUS
10
79.1252179999999896
20
-13.2557069999999992
11
78.8479229999999944
21
-13.3584059999999987
0
LINE
8
BLACK
6
CONTINUOUS
10
78.8479229999999944
20
-13.3584059999999987
11
78.5858249999999998
21
-13.4953149999999997
0
LINE
8
BLACK
6
CONTINUOUS
10
78.5858249999999998
20
-13.4953149999999997
11
78.3431229999999914
21
-13.6642399999999995
0
LINE
8
BLACK
6
CONTINUOUS
10
78.3431229999999914
20
-13.6642399999999995
11
78.1237079999999935
21
-13.8624749999999999
0
LINE
8
BLACK
6
CONTINUOUS
10
78.1237079999999935
20
-13.8624749999999999
11
77.9310959999999966
21
-14.0868409999999997
0
LINE
8
BLACK
6
CONTINUOUS
10
77.9310959999999966
20
-14.0868409999999997
11
77.7683739999999943
21
-14.3337439999999994
0
LINE
8
BLACK
6
CONTINUOUS
10
77.7683739999999943
20
-14.3337439999999994
11
77.638148000000001
21
-14.5992259999999998
0
LINE
8
BLACK
6
CONTINUOUS
10
77.638148000000001
20
-14.5992259999999998
11
77.5425070000000005
21
-14.879033999999999
0
LINE
8
BLACK
6
CONTINUOUS
10
77.5425070000000005
20
-14.879033999999999
11
77.4829829999999902
21
-15.1686829999999997
0
LINE
8
BLACK
6
CONTINUOUS
10
77.4829829999999902
20
-15.1686829999999997
11
77.460528999999994
21
-15.4635309999999997
0
LINE
8
BLACK
6
CONTINUOUS
10
77.460528999999994
20
-15.4635309999999997
11
77.4755069999999932
21
-15.7588539999999995
0
LINE
8
BLACK
6
CONTINUOUS
10
77.4755069999999932
20
-15.7588539999999995
11
77.5276739999999904
21
-16.0499170000000007
0
LINE
8
BLACK
6
CONTINUOUS
10
77.5276739999999904
20
-16.0499170000000007
11
77.6161960000000022
21
-16.332058
0
LINE
8
BLACK
6
CONTINUOUS
10
77.6161960000000022
20
-16.332058
11
77.7396549999999991
21
-16.6007539999999985
0
LINE
8
BLACK
6
CONTINUOUS
10
77.7396549999999991
20
-16.6007539999999985
11
77.8960699999999946
21
-16.851700000000001
0
LINE
8
BLACK
6
CONTINUOUS
10
77.8960699999999946
20
-16.851700000000001
11
78.0829370000000011
21
-17.0808739999999979
0
LINE
8
BLACK
6
CONTINUOUS
10
78.0829370000000011
20
-17.0808739999999979
11
78.2972599999999943
21
-17.2846030000000006
0
LINE
8
BLACK
6
CONTINUOUS
10
78.2972599999999943
20
-17.2846030000000006
11
78.5356039999999922
21
-17.4596219999999995
0
LINE
8
BLACK
6
CONTINUOUS
10
78.5356039999999922
20
-17.4596219999999995
11
78.7941500000000019
21
-17.6031270000000006
0
LINE
8
BLACK
6
CONTINUOUS
10
78.7941500000000019
20
-17.6031270000000006
11
79.0687539999999984
21
-17.7128169999999976
0
LINE
8
BLACK
6
CONTINUOUS
10
79.0687539999999984
20
-17.7128169999999976
11
79.355015999999992
21
-17.7869360000000007
0
LINE
8
BLACK
6
CONTINUOUS
10
79.355015999999992
20
-17.7869360000000007
11
79.6483489999999961
21
-17.8242939999999983
0
LINE
8
BLACK
6
CONTINUOUS
10
79.6483489999999961
20
-17.8242939999999983
11
79.7961999999999989
21
-17.8243690000000008
0
LINE
8
BLACK
6
CONTINUOUS
10
79.7961999999999989
20
-17.8243690000000008
11
99.6400000000000006
21
-17.8243749999999999
0
LINE
8
BLACK
6
CONTINUOUS
10
99.6400000000000006
20
-17.8243749999999999
11
99.7835979999999978
21
-17.8405549999999984
0
LINE
8
BLACK
6
CONTINUOUS
10
99.7835979999999978
20
-17.8405549999999984
11
99.9199959999999976
21
-17.8882820000000002
0
LINE
8
BLACK
6
CONTINUOUS
10
99.9199959999999976
20
-17.8882820000000002
11
100.0423539999999889
21
-17.9651649999999989
0
LINE
8
BLACK
6
CONTINUOUS
10
100.0423539999999889
20
-17.9651649999999989
11
100.1445349999999905
21
-18.0673460000000006
0
LINE
8
BLACK
6
CONTINUOUS
10
100.1445349999999905
20
-18.0673460000000006
11
100.2214179999999999
21
-18.189703999999999
0
LINE
8
BLACK
6
CONTINUOUS
10
100.2214179999999999
20
-18.189703999999999
11
100.2691449999999946
21
-18.3261019999999988
0
LINE
8
BLACK
6
CONTINUOUS
10
100.2691449999999946
20
-18.3261019999999988
11
100.2853250000000003
21
-18.4696999999999996
0
LINE
8
BLACK
6
CONTINUOUS
10
100.2853250000000003
20
-18.4696999999999996
11
100.2691449999999946
21
-18.6132980000000003
0
LINE
8
BLACK
6
CONTINUOUS
10
100.2691449999999946
20
-18.6132980000000003
11
100.2214179999999999
21
-18.7496960000000001
0
LINE
8
BLACK
6
CONTINUOUS
10
100.2214179999999999
20
-18.7496960000000001
11
100.1445349999999905
21
-18.8720539999999986
0
LINE
8
BLACK
6
CONTINUOUS
10
100.1445349999999905
20
-18.8720539999999986
11
100.0423539999999889
21
-18.9742350000000002
0
LINE
8
BLACK
6
CONTINUOUS
10
100.0423539999999889
20
-18.9742350000000002
11
99.9199959999999976
21
-19.0511179999999989
0
LINE
8
BLACK
6
CONTINUOUS
10
99.9199959999999976
20
-19.0511179999999989
11
99.7835979999999978
21
-19.0988450000000007
0
LINE
8
BLACK
6
CONTINUOUS
10
99.7835979999999978
20
-19.0988450000000007
11
99.6400000000000006
21
-19.1150249999999993
0
LINE
8
BLACK
6
CONTINUOUS
10
99.6400000000000006
20
-19.1150249999999993
11
99.6400000000000006
21
-19.1149969999999989
0
LINE
8
BLACK
6
CONTINUOUS
10
99.6400000000000006
20
-19.1149969999999989
11
99.6106109999999916
21
-19.1054479999999991
0
LINE
8
BLACK
6
CONTINUOUS
10
99.6106109999999916
20
-19.1054479999999991
11
99.5993840000000006
21
-19.0899970000000003
0
LINE
8
BLACK
6
CONTINUOUS
10
99.5993840000000006
20
-19.0899970000000003
11
49.6743649999999946
21
-19.0899989999999988
0
LINE
8
BLACK
6
CONTINUOUS
10
49.6743649999999946
20
-19.0899989999999988
11
49.6631379999999965
21
-19.1054509999999986
0
LINE
8
BLACK
6
CONTINUOUS
10
49.6631379999999965
20
-19.1054509999999986
11
49.6337489999999946
21
-19.1149999999999984
0
LINE
8
BLACK
6
CONTINUOUS
10
49.6337489999999946
20
-19.1149999999999984
11
49.3393209999999982
21
-19.0984599999999993
0
LINE
8
BLACK
6
CONTINUOUS
10
49.3393209999999982
20
-19.0984599999999993
11
49.0485959999999963
21
-19.0490589999999997
0
LINE
8
BLACK
6
CONTINUOUS
10
49.0485959999999963
20
-19.0490589999999997
11
48.7652299999999954
21
-18.9674179999999986
0
LINE
8
BLACK
6
CONTINUOUS
10
48.7652299999999954
20
-18.9674179999999986
11
48.4927869999999999
21
-18.8545639999999999
0
LINE
8
BLACK
6
CONTINUOUS
10
48.4927869999999999
20
-18.8545639999999999
11
48.2346919999999955
21
-18.7119159999999987
0
LINE
8
BLACK
6
CONTINUOUS
10
48.2346919999999955
20
-18.7119159999999987
11
47.9941910000000007
21
-18.5412679999999988
0
LINE
8
BLACK
6
CONTINUOUS
10
47.9941910000000007
20
-18.5412679999999988
11
47.7744199999999992
21
-18.3448649999999986
0
LINE
8
BLACK
6
CONTINUOUS
10
47.7744199999999992
20
-18.3448649999999986
11
47.7742939999999976
21
-18.3447809999999976
0
LINE
8
BLACK
6
CONTINUOUS
10
47.7742939999999976
20
-18.3447809999999976
11
45.4417009999999948
21
-16.0121870000000008
0
LINE
8
BLACK
6
CONTINUOUS
10
45.4417009999999948
20
-16.0121870000000008
11
45.4416930000000008
21
-16.0121959999999994
0
LINE
8
BLACK
6
CONTINUOUS
10
45.4416930000000008
20
-16.0121959999999994
11
45.3412389999999945
21
-15.9117419999999985
0
LINE
8
BLACK
6
CONTINUOUS
10
45.3412389999999945
20
-15.9117419999999985
11
45.119099999999996
21
-15.7345929999999985
0
LINE
8
BLACK
6
CONTINUOUS
10
45.119099999999996
20
-15.7345929999999985
11
44.8785249999999962
21
-15.5834279999999996
0
LINE
8
BLACK
6
CONTINUOUS
10
44.8785249999999962
20
-15.5834279999999996
11
44.6225370000000012
21
-15.4601479999999984
0
LINE
8
BLACK
6
CONTINUOUS
10
44.6225370000000012
20
-15.4601479999999984
11
44.3543570000000003
21
-15.3663049999999988
0
LINE
8
BLACK
6
CONTINUOUS
10
44.3543570000000003
20
-15.3663049999999988
11
44.0773549999999972
21
-15.303077
0
LINE
8
BLACK
6
CONTINUOUS
10
44.0773549999999972
20
-15.303077
11
43.7950170000000014
21
-15.2712599999999998
0
LINE
8
BLACK
6
CONTINUOUS
10
43.7950170000000014
20
-15.2712599999999998
11
43.6529540000000011
21
-15.2712569999999985
0
LINE
8
BLACK
6
CONTINUOUS
10
43.6529540000000011
20
-15.2712569999999985
11
26.61496
21
-15.2712569999999985
0
LINE
8
BLACK
6
CONTINUOUS
10
26.61496
20
-15.2712569999999985
11
26.6149539999999973
21
-15.271255
0
LINE
8
BLACK
6
CONTINUOUS
10
26.6149539999999973
20
-15.271255
11
26.6149509999999978
21
-15.2712569999999985
0
LINE
8
BLACK
6
CONTINUOUS
10
26.6149509999999978
20
-15.2712569999999985
11
26.3799220000000005
21
-15.2584339999999994
0
LINE
8
BLACK
6
CONTINUOUS
10
26.3799220000000005
20
-15.2584339999999994
11
26.1476860000000002
21
-15.2201059999999995
0
LINE
8
BLACK
6
CONTINUOUS
10
26.1476860000000002
20
-15.2201059999999995
11
25.9209999999999994
21
-15.1567289999999986
0
LINE
8
BLACK
6
CONTINUOUS
10
25.9209999999999994
20
-15.1567289999999986
11
25.7025599999999983
21
-15.0690559999999998
0
LINE
8
BLACK
6
CONTINUOUS
10
25.7025599999999983
20
-15.0690559999999998
11
25.4949589999999979
21
-14.9581269999999993
0
LINE
8
BLACK
6
CONTINUOUS
10
25.4949589999999979
20
-14.9581269999999993
11
25.3006659999999997
21
-14.8252629999999996
0
LINE
8
BLACK
6
CONTINUOUS
10
25.3006659999999997
20
-14.8252629999999996
11
25.1219879999999982
21
-14.6720399999999991
0
LINE
8
BLACK
6
CONTINUOUS
10
25.1219879999999982
20
-14.6720399999999991
11
25.122007
21
-14.6720209999999991
0
LINE
8
BLACK
6
CONTINUOUS
10
25.122007
20
-14.6720209999999991
11
25.1218029999999999
21
-14.6716419999999985
0
LINE
8
BLACK
6
CONTINUOUS
10
25.1218029999999999
20
-14.6716419999999985
11
25.121219
21
-14.6712519999999991
0
LINE
8
BLACK
6
CONTINUOUS
10
25.121219
20
-14.6712519999999991
11
24.2946430000000007
21
-13.8446759999999998
0
LINE
8
BLACK
6
CONTINUOUS
10
24.2946430000000007
20
-13.8446759999999998
11
24.2946409999999986
21
-13.844678
0
LINE
8
BLACK
6
CONTINUOUS
10
24.2946409999999986
20
-13.844678
11
24.1900419999999983
21
-13.7401839999999993
0
LINE
8
BLACK
6
CONTINUOUS
10
24.1900419999999983
20
-13.7401839999999993
11
23.9562080000000002
21
-13.5591829999999991
0
LINE
8
BLACK
6
CONTINUOUS
10
23.9562080000000002
20
-13.5591829999999991
11
23.7013800000000003
21
-13.4091749999999994
0
LINE
8
BLACK
6
CONTINUOUS
10
23.7013800000000003
20
-13.4091749999999994
11
23.4296429999999987
21
-13.2925629999999995
0
LINE
8
BLACK
6
CONTINUOUS
10
23.4296429999999987
20
-13.2925629999999995
11
23.1453500000000005
21
-13.2112169999999995
0
LINE
8
BLACK
6
CONTINUOUS
10
23.1453500000000005
20
-13.2112169999999995
11
22.8530579999999972
21
-13.1664389999999987
0
LINE
8
BLACK
6
CONTINUOUS
10
22.8530579999999972
20
-13.1664389999999987
11
22.5574510000000004
21
-13.1589489999999998
0
LINE
8
BLACK
6
CONTINUOUS
10
22.5574510000000004
20
-13.1589489999999998
11
22.263265999999998
21
-13.1888639999999988
0
LINE
8
BLACK
6
CONTINUOUS
10
22.263265999999998
20
-13.1888639999999988
11
21.9752179999999981
21
-13.2557069999999992
0
LINE
8
BLACK
6
CONTINUOUS
10
21.9752179999999981
20
-13.2557069999999992
11
21.6979229999999994
21
-13.3584059999999987
0
LINE
8
BLACK
6
CONTINUOUS
10
21.6979229999999994
20
-13.3584059999999987
11
21.4358249999999977
21
-13.4953149999999997
0
LINE
8
BLACK
6
CONTINUOUS
10
21.4358249999999977
20
-13.4953149999999997
11
21.1931229999999999
21
-13.6642399999999995
0
LINE
8
BLACK
6
CONTINUOUS
10
21.1931229999999999
20
-13.6642399999999995
11
20.9737079999999985
21
-13.8624749999999999
0
LINE
8
BLACK
6
CONTINUOUS
10
20.9737079999999985
20
-13.8624749999999999
11
20.781095999999998
21
-14.0868409999999997
0
LINE
8
BLACK
6
CONTINUOUS
10
20.781095999999998
20
-14.0868409999999997
11
20.6183739999999993
21
-14.3337439999999994
0
LINE
8
BLACK
6
CONTINUOUS
10
20.6183739999999993
20
-14.3337439999999994
11
20.4881479999999989
21
-14.5992259999999998
0
LINE
8
BLACK
6
CONTINUOUS
10
20.4881479999999989
20
-14.5992259999999998
11
20.3925069999999984
21
-14.879033999999999
0
LINE
8
BLACK
6
CONTINUOUS
10
20.3925069999999984
20
-14.879033999999999
11
20.3329829999999987
21
-15.1686829999999997
0
LINE
8
BLACK
6
CONTINUOUS
10
20.3329829999999987
20
-15.1686829999999997
11
20.3105289999999989
21
-15.4635309999999997
0
LINE
8
BLACK
6
CONTINUOUS
10
20.3105289999999989
20
-15.4635309999999997
11
20.3255069999999982
21
-15.7588539999999995
0
LINE
8
BLACK
6
CONTINUOUS
10
20.3255069999999982
20
-15.7588539999999995
11
20.377673999999999
21
-16.0499170000000007
0
LINE
8
BLACK
6
CONTINUOUS
10
20.377673999999999
20
-16.0499170000000007
11
20.4661960000000001
21
-16.332058
0
LINE
8
BLACK
6
CONTINUOUS
10
20.4661960000000001
20
-16.332058
11
20.5896550000000005
21
-16.6007539999999985
0
LINE
8
BLACK
6
CONTINUOUS
10
20.5896550000000005
20
-16.6007539999999985
11
20.7460699999999996
21
-16.851700000000001
0
LINE
8
BLACK
6
CONTINUOUS
10
20.7460699999999996
20
-16.851700000000001
11
20.932936999999999
21
-17.0808739999999979
0
LINE
8
BLACK
6
CONTINUOUS
10
20.932936999999999
20
-17.0808739999999979
11
21.1472599999999993
21
-17.2846030000000006
0
LINE
8
BLACK
6
CONTINUOUS
10
21.1472599999999993
20
-17.2846030000000006
11
21.3856040000000007
21
-17.4596219999999995
0
LINE
8
BLACK
6
CONTINUOUS
10
21.3856040000000007
20
-17.4596219999999995
11
21.6441499999999998
21
-17.6031270000000006
0
LINE
8
BLACK
6
CONTINUOUS
10
21.6441499999999998
20
-17.6031270000000006
11
21.9187539999999998
21
-17.7128169999999976
0
LINE
8
BLACK
6
CONTINUOUS
10
21.9187539999999998
20
-17.7128169999999976
11
22.2050160000000005
21
-17.7869360000000007
0
LINE
8
BLACK
6
CONTINUOUS
10
22.2050160000000005
20
-17.7869360000000007
11
22.4983489999999975
21
-17.8242939999999983
0
LINE
8
BLACK
6
CONTINUOUS
10
22.4983489999999975
20
-17.8242939999999983
11
22.6462000000000003
21
-17.8243690000000008
0
LINE
8
BLACK
6
CONTINUOUS
10
22.6462000000000003
20
-17.8243690000000008
11
42.4899999999999949
21
-17.8243749999999999
0
LINE
8
BLACK
6
CONTINUOUS
10
42.4899999999999949
20
-17.8243749999999999
11
42.6335979999999992
21
-17.8405549999999984
0
LINE
8
BLACK
6
CONTINUOUS
10
42.6335979999999992
20
-17.8405549999999984
11
42.769995999999999
21
-17.8882820000000002
0
LINE
8
BLACK
6
CONTINUOUS
10
42.769995999999999
20
-17.8882820000000002
11
42.8923539999999974
21
-17.9651649999999989
0
LINE
8
BLACK
6
CONTINUOUS
10
42.8923539999999974
20
-17.9651649999999989
11
42.9945349999999991
21
-18.0673460000000006
0
LINE
8
BLACK
6
CONTINUOUS
10
42.9945349999999991
20
-18.0673460000000006
11
43.0714180000000013
21
-18.189703999999999
0
LINE
8
BLACK
6
CONTINUOUS
10
43.0714180000000013
20
-18.189703999999999
11
43.1191449999999961
21
-18.3261019999999988
0
LINE
8
BLACK
6
CONTINUOUS
10
43.1191449999999961
20
-18.3261019999999988
11
43.1353249999999946
21
-18.4696999999999996
0
LINE
8
BLACK
6
CONTINUOUS
10
43.1353249999999946
20
-18.4696999999999996
11
43.1191449999999961
21
-18.6132980000000003
0
LINE
8
BLACK
6
CONTINUOUS
10
43.1191449999999961
20
-18.6132980000000003
11
43.0714180000000013
21
-18.7496960000000001
0
LINE
8
BLACK
6
CONTINUOUS
10
43.0714180000000013
20
-18.7496960000000001
11
42.9945349999999991
21
-18.8720539999999986
0
LINE
8
BLACK
6
CONTINUOUS
10
42.9945349999999991
20
-18.8720539999999986
11
42.8923539999999974
21
-18.9742350000000002
0
LINE
8
BLACK
6
CONTINUOUS
10
42.8923539999999974
20
-18.9742350000000002
11
42.769995999999999
21
-19.0511179999999989
0
LINE
8
BLACK
6
CONTINUOUS
10
42.769995999999999
20
-19.0511179999999989
11
42.6335979999999992
21
-19.0988450000000007
0
LINE
8
BLACK
6
CONTINUOUS
10
42.6335979999999992
20
-19.0988450000000007
11
42.4899999999999949
21
-19.1150249999999993
0
LINE
8
BLACK
6
CONTINUOUS
10
42.4899999999999949
20
-19.1150249999999993
11
42.4899999999999949
21
-19.1149969999999989
0
LINE
8
BLACK
6
CONTINUOUS
10
42.4899999999999949
20
-19.1149969999999989
11
42.4606110000000001
21
-19.1054479999999991
0
LINE
8
BLACK
6
CONTINUOUS
10
42.4606110000000001
20
-19.1054479999999991
11
42.4493870000000015
21
-19.0899999999999999
0
LINE
8
BLACK
6
CONTINUOUS
10
42.4493870000000015
20
-19.0899999999999999
11
16.9149999999999991
21
-19.0900040000000004
0
LINE
8
BLACK
6
CONTINUOUS
10
16.9149999999999991
20
-19.0900040000000004
11
16.9149799999999999
21
-19.0899999999999999
0
LINE
8
BLACK
6
CONTINUOUS
10
16.9149799999999999
20
-19.0899999999999999
11
16.759087000000001
21
-19.0899999999999999
0
LINE
8
BLACK
6
CONTINUOUS
10
16.759087000000001
20
-19.0899999999999999
11
16.4489689999999982
21
-19.1225939999999994
0
LINE
8
BLACK
6
CONTINUOUS
10
16.4489689999999982
20
-19.1225939999999994
11
16.1439570000000003
21
-19.1874269999999996
0
LINE
8
BLACK
6
CONTINUOUS
10
16.1439570000000003
20
-19.1874269999999996
11
15.8473919999999993
21
-19.2837859999999992
0
LINE
8
BLACK
6
CONTINUOUS
10
15.8473919999999993
20
-19.2837859999999992
11
15.5625249999999991
21
-19.4106179999999995
0
LINE
8
BLACK
6
CONTINUOUS
10
15.5625249999999991
20
-19.4106179999999995
11
15.2924749999999996
21
-19.5665309999999977
0
LINE
8
BLACK
6
CONTINUOUS
10
15.2924749999999996
20
-19.5665309999999977
11
15.040201999999999
21
-19.7498179999999977
0
LINE
8
BLACK
6
CONTINUOUS
10
15.040201999999999
20
-19.7498179999999977
11
14.8084699999999998
21
-19.9584699999999984
0
LINE
8
BLACK
6
CONTINUOUS
10
14.8084699999999998
20
-19.9584699999999984
11
14.5998179999999991
21
-20.1902019999999993
0
LINE
8
BLACK
6
CONTINUOUS
10
14.5998179999999991
20
-20.1902019999999993
11
14.4165309999999991
21
-20.4424749999999982
0
LINE
8
BLACK
6
CONTINUOUS
10
14.4165309999999991
20
-20.4424749999999982
11
14.2606179999999991
21
-20.7125249999999994
0
LINE
8
BLACK
6
CONTINUOUS
10
14.2606179999999991
20
-20.7125249999999994
11
14.1337859999999989
21
-20.9973919999999978
0
LINE
8
BLACK
6
CONTINUOUS
10
14.1337859999999989
20
-20.9973919999999978
11
14.0374269999999992
21
-21.2939569999999989
0
LINE
8
BLACK
6
CONTINUOUS
10
14.0374269999999992
20
-21.2939569999999989
11
13.9725939999999991
21
-21.5989690000000003
0
LINE
8
BLACK
6
CONTINUOUS
10
13.9725939999999991
20
-21.5989690000000003
11
13.9399999999999995
21
-21.9090869999999995
0
LINE
8
BLACK
6
CONTINUOUS
10
13.9399999999999995
20
-21.9090869999999995
11
13.9399999999999995
21
-22.0649999999999977
0
LINE
8
BLACK
6
CONTINUOUS
10
13.9399999999999995
20
-22.0649999999999977
11
13.9399999999999995
21
-92.2650000000000006
0
LINE
8
BLACK
6
CONTINUOUS
10
13.9399999999999995
20
-92.2650000000000006
11
13.9399999999999995
21
-92.4209129999999988
0
LINE
8
BLACK
6
CONTINUOUS
10
13.9399999999999995
20
-92.4209129999999988
11
13.9725939999999991
21
-92.7310310000000015
0
LINE
8
BLACK
6
CONTINUOUS
10
13.9725939999999991
20
-92.7310310000000015
11
14.0374269999999992
21
-93.0360429999999923
0
LINE
8
BLACK
6
CONTINUOUS
10
14.0374269999999992
20
-93.0360429999999923
11
14.1337859999999989
21
-93.3326079999999934
0
LINE
8
BLACK
6
CONTINUOUS
10
14.1337859999999989
20
-93.3326079999999934
11
14.2606179999999991
21
-93.6174749999999989
0
LINE
8
BLACK
6
CONTINUOUS
10
14.2606179999999991
20
-93.6174749999999989
11
14.4165309999999991
21
-93.8875249999999966
0
LINE
8
BLACK
6
CONTINUOUS
10
14.4165309999999991
20
-93.8875249999999966
11
14.5998179999999991
21
-94.139797999999999
0
LINE
8
BLACK
6
CONTINUOUS
10
14.5998179999999991
20
-94.139797999999999
11
14.8084699999999998
21
-94.3715299999999928
0
LINE
8
BLACK
6
CONTINUOUS
10
14.8084699999999998
20
-94.3715299999999928
11
15.040201999999999
21
-94.5801819999999935
0
LINE
8
BLACK
6
CONTINUOUS
10
15.040201999999999
20
-94.5801819999999935
11
15.2924749999999996
21
-94.7634690000000006
0
LINE
8
BLACK
6
CONTINUOUS
10
15.2924749999999996
20
-94.7634690000000006
11
15.5625249999999991
21
-94.9193819999999988
0
LINE
8
BLACK
6
CONTINUOUS
10
15.5625249999999991
20
-94.9193819999999988
11
15.8473919999999993
21
-95.046213999999992
0
LINE
8
BLACK
6
CONTINUOUS
10
15.8473919999999993
20
-95.046213999999992
11
16.1439570000000003
21
-95.1425729999999987
0
LINE
8
BLACK
6
CONTINUOUS
10
16.1439570000000003
20
-95.1425729999999987
11
16.4489689999999982
21
-95.2074059999999918
0
LINE
8
BLACK
6
CONTINUOUS
10
16.4489689999999982
20
-95.2074059999999918
11
16.759087000000001
21
-95.2399999999999949
0
LINE
8
BLACK
6
CONTINUOUS
10
16.759087000000001
20
-95.2399999999999949
11
16.9149999999999991
21
-95.2399999999999949
0
LINE
8
BLACK
6
CONTINUOUS
10
16.9149999999999991
20
-95.2399999999999949
11
42.5931349999999966
21
-95.2399999999999949
0
LINE
8
BLACK
6
CONTINUOUS
10
42.5931349999999966
20
-95.2399999999999949
11
42.6043570000000003
21
-95.2245520000000027
0
LINE
8
BLACK
6
CONTINUOUS
10
42.6043570000000003
20
-95.2245520000000027
11
42.633745999999995
21
-95.2149999999999892
0
LINE
8
BLACK
6
CONTINUOUS
10
42.633745999999995
20
-95.2149999999999892
11
42.7773469999999989
21
-95.2311689999999942
0
LINE
8
BLACK
6
CONTINUOUS
10
42.7773469999999989
20
-95.2311689999999942
11
42.9137500000000003
21
-95.2788879999999949
0
LINE
8
BLACK
6
CONTINUOUS
10
42.9137500000000003
20
-95.2788879999999949
11
43.0361139999999978
21
-95.355764999999991
0
LINE
8
BLACK
6
CONTINUOUS
10
43.0361139999999978
20
-95.355764999999991
11
43.1383009999999985
21
-95.4579439999999977
0
LINE
8
BLACK
6
CONTINUOUS
10
43.1383009999999985
20
-95.4579439999999977
11
43.2151879999999977
21
-95.5803009999999915
0
LINE
8
BLACK
6
CONTINUOUS
10
43.2151879999999977
20
-95.5803009999999915
11
43.2629189999999966
21
-95.7166999999999888
0
LINE
8
BLACK
6
CONTINUOUS
10
43.2629189999999966
20
-95.7166999999999888
11
43.2790999999999997
21
-95.8602999999999952
0
LINE
8
BLACK
6
CONTINUOUS
10
43.2790999999999997
20
-95.8602999999999952
11
43.2629189999999966
21
-96.0039000000000016
0
LINE
8
BLACK
6
CONTINUOUS
10
43.2629189999999966
20
-96.0039000000000016
11
43.2151879999999977
21
-96.1402989999999988
0
LINE
8
BLACK
6
CONTINUOUS
10
43.2151879999999977
20
-96.1402989999999988
11
43.1383009999999985
21
-96.2626559999999927
0
LINE
8
BLACK
6
CONTINUOUS
10
43.1383009999999985
20
-96.2626559999999927
11
43.0361139999999978
21
-96.3648349999999994
0
LINE
8
BLACK
6
CONTINUOUS
10
43.0361139999999978
20
-96.3648349999999994
11
42.9137500000000003
21
-96.4417119999999954
0
LINE
8
BLACK
6
CONTINUOUS
10
42.9137500000000003
20
-96.4417119999999954
11
42.7773469999999989
21
-96.4894309999999962
0
LINE
8
BLACK
6
CONTINUOUS
10
42.7773469999999989
20
-96.4894309999999962
11
42.6340099999999964
21
-96.5055699999999916
0
LINE
8
BLACK
6
CONTINUOUS
10
42.6340099999999964
20
-96.5055699999999916
11
42.6337499999999991
21
-96.5056220000000025
0
LINE
8
BLACK
6
CONTINUOUS
10
42.6337499999999991
20
-96.5056220000000025
11
22.7899499999999975
21
-96.5056280000000015
0
LINE
8
BLACK
6
CONTINUOUS
10
22.7899499999999975
20
-96.5056280000000015
11
22.7899499999999975
21
-96.5056319999999914
0
LINE
8
BLACK
6
CONTINUOUS
10
22.7899499999999975
20
-96.5056319999999914
11
22.6420989999999982
21
-96.505707000000001
0
LINE
8
BLACK
6
CONTINUOUS
10
22.6420989999999982
20
-96.505707000000001
11
22.3487669999999987
21
-96.5430649999999986
0
LINE
8
BLACK
6
CONTINUOUS
10
22.3487669999999987
20
-96.5430649999999986
11
22.0625040000000006
21
-96.6171839999999946
0
LINE
8
BLACK
6
CONTINUOUS
10
22.0625040000000006
20
-96.6171839999999946
11
21.7879000000000005
21
-96.7268739999999951
0
LINE
8
BLACK
6
CONTINUOUS
10
21.7879000000000005
20
-96.7268739999999951
11
21.5293539999999979
21
-96.8703789999999998
0
LINE
8
BLACK
6
CONTINUOUS
10
21.5293539999999979
20
-96.8703789999999998
11
21.29101
21
-97.0453979999999916
0
LINE
8
BLACK
6
CONTINUOUS
10
21.29101
20
-97.0453979999999916
11
21.0766869999999997
21
-97.2491270000000014
0
LINE
8
BLACK
6
CONTINUOUS
10
21.0766869999999997
20
-97.2491270000000014
11
20.8898209999999978
21
-97.4783010000000019
0
LINE
8
BLACK
6
CONTINUOUS
10
20.8898209999999978
20
-97.4783010000000019
11
20.7334049999999976
21
-97.7292459999999892
0
LINE
8
BLACK
6
CONTINUOUS
10
20.7334049999999976
20
-97.7292459999999892
11
20.6099469999999982
21
-97.9979429999999923
0
LINE
8
BLACK
6
CONTINUOUS
10
20.6099469999999982
20
-97.9979429999999923
11
20.5214250000000007
21
-98.2800840000000022
0
LINE
8
BLACK
6
CONTINUOUS
10
20.5214250000000007
20
-98.2800840000000022
11
20.4692569999999989
21
-98.5711469999999963
0
LINE
8
BLACK
6
CONTINUOUS
10
20.4692569999999989
20
-98.5711469999999963
11
20.4542800000000007
21
-98.8664699999999925
0
LINE
8
BLACK
6
CONTINUOUS
10
20.4542800000000007
20
-98.8664699999999925
11
20.4767340000000004
21
-99.1613179999999943
0
LINE
8
BLACK
6
CONTINUOUS
10
20.4767340000000004
20
-99.1613179999999943
11
20.5362580000000001
21
-99.4509669999999915
0
LINE
8
BLACK
6
CONTINUOUS
10
20.5362580000000001
20
-99.4509669999999915
11
20.6318999999999981
21
-99.7307739999999967
0
LINE
8
BLACK
6
CONTINUOUS
10
20.6318999999999981
20
-99.7307739999999967
11
20.7621249999999975
21
-99.9962569999999999
0
LINE
8
BLACK
6
CONTINUOUS
10
20.7621249999999975
20
-99.9962569999999999
11
20.9248480000000008
21
-100.2431599999999889
0
LINE
8
BLACK
6
CONTINUOUS
10
20.9248480000000008
20
-100.2431599999999889
11
21.1174599999999977
21
-100.4675259999999923
0
LINE
8
BLACK
6
CONTINUOUS
10
21.1174599999999977
20
-100.4675259999999923
11
21.3368749999999991
21
-100.6657599999999917
0
LINE
8
BLACK
6
CONTINUOUS
10
21.3368749999999991
20
-100.6657599999999917
11
21.5795759999999994
21
-100.8346849999999932
0
LINE
8
BLACK
6
CONTINUOUS
10
21.5795759999999994
20
-100.8346849999999932
11
21.8416749999999986
21
-100.9715939999999961
0
LINE
8
BLACK
6
CONTINUOUS
10
21.8416749999999986
20
-100.9715939999999961
11
22.1189699999999974
21
-101.0742919999999998
0
LINE
8
BLACK
6
CONTINUOUS
10
22.1189699999999974
20
-101.0742919999999998
11
22.4070179999999972
21
-101.1411349999999914
0
LINE
8
BLACK
6
CONTINUOUS
10
22.4070179999999972
20
-101.1411349999999914
11
22.7012029999999996
21
-101.1710499999999939
0
LINE
8
BLACK
6
CONTINUOUS
10
22.7012029999999996
20
-101.1710499999999939
11
22.99681
21
-101.1635589999999922
0
LINE
8
BLACK
6
CONTINUOUS
10
22.99681
20
-101.1635589999999922
11
23.2891009999999987
21
-101.1187819999999959
0
LINE
8
BLACK
6
CONTINUOUS
10
23.2891009999999987
20
-101.1187819999999959
11
23.5733940000000004
21
-101.0374350000000021
0
LINE
8
BLACK
6
CONTINUOUS
10
23.5733940000000004
20
-101.0374350000000021
11
23.8451319999999996
21
-100.9208229999999986
0
LINE
8
BLACK
6
CONTINUOUS
10
23.8451319999999996
20
-100.9208229999999986
11
24.0999589999999984
21
-100.7708149999999989
0
LINE
8
BLACK
6
CONTINUOUS
10
24.0999589999999984
20
-100.7708149999999989
11
24.333793
21
-100.5898139999999898
0
LINE
8
BLACK
6
CONTINUOUS
10
24.333793
20
-100.5898139999999898
11
24.4383920000000003
21
-100.4853200000000015
0
LINE
8
BLACK
6
CONTINUOUS
10
24.4383920000000003
20
-100.4853200000000015
11
24.4383929999999978
21
-100.485320999999999
0
LINE
8
BLACK
6
CONTINUOUS
10
24.4383929999999978
20
-100.485320999999999
11
25.2649689999999971
21
-99.6587449999999961
0
LINE
8
BLACK
6
CONTINUOUS
10
25.2649689999999971
20
-99.6587449999999961
11
25.2655519999999996
21
-99.6583550000000002
0
LINE
8
BLACK
6
CONTINUOUS
10
25.2655519999999996
20
-99.6583550000000002
11
25.2657559999999997
21
-99.6579759999999908
0
LINE
8
BLACK
6
CONTINUOUS
10
25.2657559999999997
20
-99.6579759999999908
11
25.2657559999999997
21
-99.6579770000000025
0
LINE
8
BLACK
6
CONTINUOUS
10
25.2657559999999997
20
-99.6579770000000025
11
25.444430999999998
21
-99.5047519999999963
0
LINE
8
BLACK
6
CONTINUOUS
10
25.444430999999998
20
-99.5047519999999963
11
25.6387199999999993
21
-99.3718839999999943
0
LINE
8
BLACK
6
CONTINUOUS
10
25.6387199999999993
20
-99.3718839999999943
11
25.8463180000000001
21
-99.2609530000000007
0
LINE
8
BLACK
6
CONTINUOUS
10
25.8463180000000001
20
-99.2609530000000007
11
26.0647549999999981
21
-99.1732760000000013
0
LINE
8
BLACK
6
CONTINUOUS
10
26.0647549999999981
20
-99.1732760000000013
11
26.2914379999999994
21
-99.109893999999997
0
LINE
8
BLACK
6
CONTINUOUS
10
26.2914379999999994
20
-99.109893999999997
11
26.5236729999999987
21
-99.0715609999999884
0
LINE
8
BLACK
6
CONTINUOUS
10
26.5236729999999987
20
-99.0715609999999884
11
26.7586999999999975
21
-99.0587329999999895
0
LINE
8
BLACK
6
CONTINUOUS
10
26.7586999999999975
20
-99.0587329999999895
11
26.7586999999999975
21
-99.0587400000000002
0
LINE
8
BLACK
6
CONTINUOUS
10
26.7586999999999975
20
-99.0587400000000002
11
26.758702999999997
21
-99.0587409999999977
0
LINE
8
BLACK
6
CONTINUOUS
10
26.758702999999997
20
-99.0587409999999977
11
26.7587099999999971
21
-99.0587400000000002
0
LINE
8
BLACK
6
CONTINUOUS
10
26.7587099999999971
20
-99.0587400000000002
11
43.7967049999999958
21
-99.0587400000000002
0
LINE
8
BLACK
6
CONTINUOUS
10
43.7967049999999958
20
-99.0587400000000002
11
43.7967049999999958
21
-99.0587170000000015
0
LINE
8
BLACK
6
CONTINUOUS
10
43.7967049999999958
20
-99.0587170000000015
11
43.9387669999999986
21
-99.0587170000000015
0
LINE
8
BLACK
6
CONTINUOUS
10
43.9387669999999986
20
-99.0587170000000015
11
44.2211059999999989
21
-99.0269049999999993
0
LINE
8
BLACK
6
CONTINUOUS
10
44.2211059999999989
20
-99.0269049999999993
11
44.4981079999999949
21
-98.9636819999999915
0
LINE
8
BLACK
6
CONTINUOUS
10
44.4981079999999949
20
-98.9636819999999915
11
44.7662899999999979
21
-98.8698429999999888
0
LINE
8
BLACK
6
CONTINUOUS
10
44.7662899999999979
20
-98.8698429999999888
11
45.022278
21
-98.7465679999999963
0
LINE
8
BLACK
6
CONTINUOUS
10
45.022278
20
-98.7465679999999963
11
45.2628559999999993
21
-98.5954069999999945
0
LINE
8
BLACK
6
CONTINUOUS
10
45.2628559999999993
20
-98.5954069999999945
11
45.4849959999999953
21
-98.4182610000000011
0
LINE
8
BLACK
6
CONTINUOUS
10
45.4849959999999953
20
-98.4182610000000011
11
45.5854509999999991
21
-98.3178089999999969
0
LINE
8
BLACK
6
CONTINUOUS
10
45.5854509999999991
20
-98.3178089999999969
11
45.5854530000000011
21
-98.3178070000000019
0
LINE
8
BLACK
6
CONTINUOUS
10
45.5854530000000011
20
-98.3178070000000019
11
47.9180439999999948
21
-95.9852159999999941
0
LINE
8
BLACK
6
CONTINUOUS
10
47.9180439999999948
20
-95.9852159999999941
11
47.9180479999999989
21
-95.9852130000000017
0
LINE
8
BLACK
6
CONTINUOUS
10
47.9180479999999989
20
-95.9852130000000017
11
48.1379299999999972
21
-95.7887179999999887
0
LINE
8
BLACK
6
CONTINUOUS
10
48.1379299999999972
20
-95.7887179999999887
11
48.3784339999999986
21
-95.6180729999999954
0
LINE
8
BLACK
6
CONTINUOUS
10
48.3784339999999986
20
-95.6180729999999954
11
48.6365319999999954
21
-95.4754289999999912
0
LINE
8
BLACK
6
CONTINUOUS
10
48.6365319999999954
20
-95.4754289999999912
11
48.9089770000000001
21
-95.3625799999999941
0
LINE
8
BLACK
6
CONTINUOUS
10
48.9089770000000001
20
-95.3625799999999941
11
49.192344999999996
21
-95.280943999999991
0
LINE
8
BLACK
6
CONTINUOUS
10
49.192344999999996
20
-95.280943999999991
11
49.4830709999999954
21
-95.2315479999999894
0
LINE
8
BLACK
6
CONTINUOUS
10
49.4830709999999954
20
-95.2315479999999894
11
49.7774999999999963
21
-95.215012999999999
0
LINE
8
BLACK
6
CONTINUOUS
10
49.7774999999999963
20
-95.215012999999999
11
49.7774999999999963
21
-95.2149969999999968
0
LINE
8
BLACK
6
CONTINUOUS
10
49.7774999999999963
20
-95.2149969999999968
11
49.8068889999999982
21
-95.2245459999999895
0
LINE
8
BLACK
6
CONTINUOUS
10
49.8068889999999982
20
-95.2245459999999895
11
49.8181149999999988
21
-95.2399970000000025
0
LINE
8
BLACK
6
CONTINUOUS
10
49.8181149999999988
20
-95.2399970000000025
11
99.5993840000000006
21
-95.2399989999999974
0
LINE
8
BLACK
6
CONTINUOUS
10
99.5993840000000006
20
-95.2399989999999974
11
99.6106109999999916
21
-95.2245489999999961
0
LINE
8
BLACK
6
CONTINUOUS
10
99.6106109999999916
20
-95.2245489999999961
11
99.6400000000000006
21
-95.2149999999999892
0
LINE
8
BLACK
6
CONTINUOUS
10
99.6400000000000006
20
-95.2149999999999892
11
99.7835929999999962
21
-95.2311789999999974
0
LINE
8
BLACK
6
CONTINUOUS
10
99.7835929999999962
20
-95.2311789999999974
11
99.9199849999999969
21
-95.2789049999999946
0
LINE
8
BLACK
6
CONTINUOUS
10
99.9199849999999969
20
-95.2789049999999946
11
100.0423380000000009
21
-95.3557839999999999
0
LINE
8
BLACK
6
CONTINUOUS
10
100.0423380000000009
20
-95.3557839999999999
11
100.1445159999999959
21
-95.4579619999999949
0
LINE
8
BLACK
6
CONTINUOUS
10
100.1445159999999959
20
-95.4579619999999949
11
100.2213950000000011
21
-95.5803149999999988
0
LINE
8
BLACK
6
CONTINUOUS
10
100.2213950000000011
20
-95.5803149999999988
11
100.2691209999999984
21
-95.7167069999999995
0
LINE
8
BLACK
6
CONTINUOUS
10
100.2691209999999984
20
-95.7167069999999995
11
100.2852999999999923
21
-95.8602999999999952
0
LINE
8
BLACK
6
CONTINUOUS
10
100.2852999999999923
20
-95.8602999999999952
11
100.2691209999999984
21
-96.0038929999999908
0
LINE
8
BLACK
6
CONTINUOUS
10
100.2691209999999984
20
-96.0038929999999908
11
100.2213950000000011
21
-96.1402849999999916
0
LINE
8
BLACK
6
CONTINUOUS
10
100.2213950000000011
20
-96.1402849999999916
11
100.1445159999999959
21
-96.2626379999999955
0
LINE
8
BLACK
6
CONTINUOUS
10
100.1445159999999959
20
-96.2626379999999955
11
100.0423380000000009
21
-96.3648159999999905
0
LINE
8
BLACK
6
CONTINUOUS
10
100.0423380000000009
20
-96.3648159999999905
11
99.9199849999999969
21
-96.4416949999999957
0
LINE
8
BLACK
6
CONTINUOUS
10
99.9199849999999969
20
-96.4416949999999957
11
99.7835929999999962
21
-96.489420999999993
0
LINE
8
BLACK
6
CONTINUOUS
10
99.7835929999999962
20
-96.489420999999993
11
99.6402549999999962
21
-96.5055709999999891
0
LINE
8
BLACK
6
CONTINUOUS
10
99.6402549999999962
20
-96.5055709999999891
11
99.6400000000000006
21
-96.5056220000000025
0
LINE
8
BLACK
6
CONTINUOUS
10
99.6400000000000006
20
-96.5056220000000025
11
79.7961999999999989
21
-96.5056280000000015
0
LINE
8
BLACK
6
CONTINUOUS
10
79.7961999999999989
20
-96.5056280000000015
11
79.7961999999999989
21
-96.5056659999999908
0
LINE
8
BLACK
6
CONTINUOUS
10
79.7961999999999989
20
-96.5056659999999908
11
79.6483499999999935
21
-96.5057410000000004
0
LINE
8
BLACK
6
CONTINUOUS
10
79.6483499999999935
20
-96.5057410000000004
11
79.3550189999999986
21
-96.543098999999998
0
LINE
8
BLACK
6
CONTINUOUS
10
79.3550189999999986
20
-96.543098999999998
11
79.0687580000000025
21
-96.617217999999994
0
LINE
8
BLACK
6
CONTINUOUS
10
79.0687580000000025
20
-96.617217999999994
11
78.7941550000000035
21
-96.7269079999999946
0
LINE
8
BLACK
6
CONTINUOUS
10
78.7941550000000035
20
-96.7269079999999946
11
78.5356099999999913
21
-96.8704120000000017
0
LINE
8
BLACK
6
CONTINUOUS
10
78.5356099999999913
20
-96.8704120000000017
11
78.2972669999999908
21
-97.0454309999999936
0
LINE
8
BLACK
6
CONTINUOUS
10
78.2972669999999908
20
-97.0454309999999936
11
78.0829459999999926
21
-97.2491589999999917
0
LINE
8
BLACK
6
CONTINUOUS
10
78.0829459999999926
20
-97.2491589999999917
11
77.8960799999999978
21
-97.4783319999999947
0
LINE
8
BLACK
6
CONTINUOUS
10
77.8960799999999978
20
-97.4783319999999947
11
77.7396659999999997
21
-97.7292759999999987
0
LINE
8
BLACK
6
CONTINUOUS
10
77.7396659999999997
20
-97.7292759999999987
11
77.6162089999999978
21
-97.9979719999999901
0
LINE
8
BLACK
6
CONTINUOUS
10
77.6162089999999978
20
-97.9979719999999901
11
77.5276870000000002
21
-98.2801109999999909
0
LINE
8
BLACK
6
CONTINUOUS
10
77.5276870000000002
20
-98.2801109999999909
11
77.4755210000000005
21
-98.5711739999999992
0
LINE
8
BLACK
6
CONTINUOUS
10
77.4755210000000005
20
-98.5711739999999992
11
77.4605439999999987
21
-98.8664950000000005
0
LINE
8
BLACK
6
CONTINUOUS
10
77.4605439999999987
20
-98.8664950000000005
11
77.4829989999999924
21
-99.1613419999999905
0
LINE
8
BLACK
6
CONTINUOUS
10
77.4829989999999924
20
-99.1613419999999905
11
77.5425240000000002
21
-99.4509889999999928
0
LINE
8
BLACK
6
CONTINUOUS
10
77.5425240000000002
20
-99.4509889999999928
11
77.6381650000000008
21
-99.7307950000000005
0
LINE
8
BLACK
6
CONTINUOUS
10
77.6381650000000008
20
-99.7307950000000005
11
77.7683909999999941
21
-99.9962759999999946
0
LINE
8
BLACK
6
CONTINUOUS
10
77.7683909999999941
20
-99.9962759999999946
11
77.9311139999999938
21
-100.2431769999999887
0
LINE
8
BLACK
6
CONTINUOUS
10
77.9311139999999938
20
-100.2431769999999887
11
78.1237259999999907
21
-100.4675419999999946
0
LINE
8
BLACK
6
CONTINUOUS
10
78.1237259999999907
20
-100.4675419999999946
11
78.3431399999999911
21
-100.665773999999999
0
LINE
8
BLACK
6
CONTINUOUS
10
78.3431399999999911
20
-100.665773999999999
11
78.5858410000000021
21
-100.8346969999999914
0
LINE
8
BLACK
6
CONTINUOUS
10
78.5858410000000021
20
-100.8346969999999914
11
78.8479389999999967
21
-100.9716049999999967
0
LINE
8
BLACK
6
CONTINUOUS
10
78.8479389999999967
20
-100.9716049999999967
11
79.1252329999999944
21
-101.0743019999999888
0
LINE
8
BLACK
6
CONTINUOUS
10
79.1252329999999944
20
-101.0743019999999888
11
79.4132800000000003
21
-101.1411429999999996
0
LINE
8
BLACK
6
CONTINUOUS
10
79.4132800000000003
20
-101.1411429999999996
11
79.7074640000000016
21
-101.1710569999999905
0
LINE
8
BLACK
6
CONTINUOUS
10
79.7074640000000016
20
-101.1710569999999905
11
80.0030699999999939
21
-101.1635639999999938
0
LINE
8
BLACK
6
CONTINUOUS
10
80.0030699999999939
20
-101.1635639999999938
11
80.2953600000000023
21
-101.1187860000000001
0
LINE
8
BLACK
6
CONTINUOUS
10
80.2953600000000023
20
-101.1187860000000001
11
80.5796509999999984
21
-101.0374379999999945
0
LINE
8
BLACK
6
CONTINUOUS
10
80.5796509999999984
20
-101.0374379999999945
11
80.8513870000000026
21
-100.9208249999999936
0
LINE
8
BLACK
6
CONTINUOUS
10
80.8513870000000026
20
-100.9208249999999936
11
81.1062119999999993
21
-100.7708159999999964
0
LINE
8
BLACK
6
CONTINUOUS
10
81.1062119999999993
20
-100.7708159999999964
11
81.3400439999999918
21
-100.5898139999999898
0
LINE
8
BLACK
6
CONTINUOUS
10
81.3400439999999918
20
-100.5898139999999898
11
81.4446420000000018
21
-100.485320999999999
0
LINE
8
BLACK
6
CONTINUOUS
10
81.4446420000000018
20
-100.485320999999999
11
81.4446439999999967
21
-100.4853189999999898
0
LINE
8
BLACK
6
CONTINUOUS
10
81.4446439999999967
20
-100.4853189999999898
11
82.2712190000000021
21
-99.6587449999999961
0
LINE
8
BLACK
6
CONTINUOUS
10
82.2712190000000021
20
-99.6587449999999961
11
82.2718029999999914
21
-99.6583539999999886
0
LINE
8
BLACK
6
CONTINUOUS
10
82.2718029999999914
20
-99.6583539999999886
11
82.2720070000000021
21
-99.6579759999999908
0
LINE
8
BLACK
6
CONTINUOUS
10
82.2720070000000021
20
-99.6579759999999908
11
82.4506829999999979
21
-99.5047560000000004
0
LINE
8
BLACK
6
CONTINUOUS
10
82.4506829999999979
20
-99.5047560000000004
11
82.6449739999999906
21
-99.371893
0
LINE
8
BLACK
6
CONTINUOUS
10
82.6449739999999906
20
-99.371893
11
82.8525709999999975
21
-99.2609669999999937
0
LINE
8
BLACK
6
CONTINUOUS
10
82.8525709999999975
20
-99.2609669999999937
11
83.0710089999999894
21
-99.1732939999999985
0
LINE
8
BLACK
6
CONTINUOUS
10
83.0710089999999894
20
-99.1732939999999985
11
83.2976919999999978
21
-99.1099179999999933
0
LINE
8
BLACK
6
CONTINUOUS
10
83.2976919999999978
20
-99.1099179999999933
11
83.5299249999999915
21
-99.071590999999998
0
LINE
8
BLACK
6
CONTINUOUS
10
83.5299249999999915
20
-99.071590999999998
11
83.7647690000000011
21
-99.0587769999999921
0
LINE
8
BLACK
6
CONTINUOUS
10
83.7647690000000011
20
-99.0587769999999921
11
83.7649509999999964
21
-99.0587409999999977
0
LINE
8
BLACK
6
CONTINUOUS
10
83.7649509999999964
20
-99.0587409999999977
11
83.7649509999999964
21
-99.0587400000000002
0
LINE
8
BLACK
6
CONTINUOUS
10
83.7649509999999964
20
-99.0587400000000002
11
83.764954000000003
21
-99.0587409999999977
0
LINE
8
BLACK
6
CONTINUOUS
10
83.764954000000003
20
-99.0587409999999977
11
83.7649600000000021
21
-99.0587400000000002
0
LINE
8
BLACK
6
CONTINUOUS
10
83.7649600000000021
20
-99.0587400000000002
11
100.8029549999999972
21
-99.0587400000000002
0
LINE
8
BLACK
6
CONTINUOUS
10
100.8029549999999972
20
-99.0587400000000002
11
100.803015000000002
21
-99.0587510000000009
0
LINE
8
BLACK
6
CONTINUOUS
10
100.803015000000002
20
-99.0587510000000009
11
100.9450169999999929
21
-99.0587489999999917
0
LINE
8
BLACK
6
CONTINUOUS
10
100.9450169999999929
20
-99.0587489999999917
11
101.2273569999999978
21
-99.0269320000000022
0
LINE
8
BLACK
6
CONTINUOUS
10
101.2273569999999978
20
-99.0269320000000022
11
101.5043599999999913
21
-98.9637039999999928
0
LINE
8
BLACK
6
CONTINUOUS
10
101.5043599999999913
20
-98.9637039999999928
11
101.7725420000000014
21
-98.8698599999999885
0
LINE
8
BLACK
6
CONTINUOUS
10
101.7725420000000014
20
-98.8698599999999885
11
102.0285299999999893
21
-98.746578999999997
0
LINE
8
BLACK
6
CONTINUOUS
10
102.0285299999999893
20
-98.746578999999997
11
102.2691069999999911
21
-98.595413999999991
0
LINE
8
BLACK
6
CONTINUOUS
10
102.2691069999999911
20
-98.595413999999991
11
102.4912459999999896
21
-98.4182629999999961
0
LINE
8
BLACK
6
CONTINUOUS
10
102.4912459999999896
20
-98.4182629999999961
11
102.5916999999999888
21
-98.3178089999999969
0
LINE
8
BLACK
6
CONTINUOUS
10
102.5916999999999888
20
-98.3178089999999969
11
102.5917010000000005
21
-98.3178099999999944
0
LINE
8
BLACK
6
CONTINUOUS
10
102.5917010000000005
20
-98.3178099999999944
11
104.9242939999999891
21
-95.9852159999999941
0
LINE
8
BLACK
6
CONTINUOUS
10
104.9242939999999891
20
-95.9852159999999941
11
104.9242979999999932
21
-95.9852130000000017
0
LINE
8
BLACK
6
CONTINUOUS
10
104.9242979999999932
20
-95.9852130000000017
11
105.1441779999999966
21
-95.7887139999999988
0
LINE
8
BLACK
6
CONTINUOUS
10
105.1441779999999966
20
-95.7887139999999988
11
105.3846810000000005
21
-95.6180650000000014
0
LINE
8
BLACK
6
CONTINUOUS
10
105.3846810000000005
20
-95.6180650000000014
11
105.6427779999999927
21
-95.4754159999999956
0
LINE
8
BLACK
6
CONTINUOUS
10
105.6427779999999927
20
-95.4754159999999956
11
105.9152239999999949
21
-95.3625609999999995
0
LINE
8
BLACK
6
CONTINUOUS
10
105.9152239999999949
20
-95.3625609999999995
11
106.1985919999999908
21
-95.2809199999999947
0
LINE
8
BLACK
6
CONTINUOUS
10
106.1985919999999908
20
-95.2809199999999947
11
106.4893189999999947
21
-95.2315179999999941
0
LINE
8
BLACK
6
CONTINUOUS
10
106.4893189999999947
20
-95.2315179999999941
11
106.7837490000000003
21
-95.2149780000000021
0
LINE
8
BLACK
6
CONTINUOUS
10
106.7837490000000003
20
-95.2149780000000021
11
106.7837490000000003
21
-95.2149969999999968
0
LINE
8
BLACK
6
CONTINUOUS
10
106.7837490000000003
20
-95.2149969999999968
11
106.813137999999995
21
-95.2245459999999895
0
LINE
8
BLACK
6
CONTINUOUS
10
106.813137999999995
20
-95.2245459999999895
11
106.8243650000000002
21
-95.2399970000000025
0
LINE
8
BLACK
6
CONTINUOUS
10
106.8243650000000002
20
-95.2399970000000025
11
149.6056339999999807
21
-95.2399989999999974
0
LINE
8
BLACK
6
CONTINUOUS
10
149.6056339999999807
20
-95.2399989999999974
11
149.6168619999999976
21
-95.2245489999999961
0
LINE
8
BLACK
6
CONTINUOUS
10
149.6168619999999976
20
-95.2245489999999961
11
149.6462510000000066
21
-95.2149999999999892
0
LINE
8
BLACK
6
CONTINUOUS
10
149.6462510000000066
20
-95.2149999999999892
11
149.9406789999999887
21
-95.2315399999999954
0
LINE
8
BLACK
6
CONTINUOUS
10
149.9406789999999887
20
-95.2315399999999954
11
150.2314039999999977
21
-95.2809409999999986
0
LINE
8
BLACK
6
CONTINUOUS
10
150.2314039999999977
20
-95.2809409999999986
11
150.5147699999999986
21
-95.3625819999999891
0
LINE
8
BLACK
6
CONTINUOUS
10
150.5147699999999986
20
-95.3625819999999891
11
150.78721299999998
21
-95.475436000000002
0
LINE
8
BLACK
6
CONTINUOUS
10
150.78721299999998
20
-95.475436000000002
11
151.0453080000000057
21
-95.6180839999999961
0
LINE
8
BLACK
6
CONTINUOUS
10
151.0453080000000057
20
-95.6180839999999961
11
151.2858090000000004
21
-95.788731999999996
0
LINE
8
BLACK
6
CONTINUOUS
10
151.2858090000000004
20
-95.788731999999996
11
151.5055830000000014
21
-95.9851379999999921
0
LINE
8
BLACK
6
CONTINUOUS
10
151.5055830000000014
20
-95.9851379999999921
11
151.5057060000000035
21
-95.9852199999999982
0
LINE
8
BLACK
6
CONTINUOUS
10
151.5057060000000035
20
-95.9852199999999982
11
151.505707000000001
21
-95.9852199999999982
0
LINE
8
BLACK
6
CONTINUOUS
10
151.505707000000001
20
-95.9852199999999982
11
151.5057079999999985
21
-95.9852219999999932
0
LINE
8
BLACK
6
CONTINUOUS
10
151.5057079999999985
20
-95.9852219999999932
11
153.8382990000000063
21
-98.3178119999999893
0
LINE
8
BLACK
6
CONTINUOUS
10
153.8382990000000063
20
-98.3178119999999893
11
153.8383069999999861
21
-98.3178039999999953
0
LINE
8
BLACK
6
CONTINUOUS
10
153.8383069999999861
20
-98.3178039999999953
11
153.9387609999999995
21
-98.4182579999999945
0
LINE
8
BLACK
6
CONTINUOUS
10
153.9387609999999995
20
-98.4182579999999945
11
154.160899999999998
21
-98.5954069999999945
0
LINE
8
BLACK
6
CONTINUOUS
10
154.160899999999998
20
-98.5954069999999945
11
154.4014750000000049
21
-98.7465720000000005
0
LINE
8
BLACK
6
CONTINUOUS
10
154.4014750000000049
20
-98.7465720000000005
11
154.657463000000007
21
-98.8698519999999945
0
LINE
8
BLACK
6
CONTINUOUS
10
154.657463000000007
20
-98.8698519999999945
11
154.9256429999999796
21
-98.9636950000000013
0
LINE
8
BLACK
6
CONTINUOUS
10
154.9256429999999796
20
-98.9636950000000013
11
155.2026449999999897
21
-99.0269229999999965
0
LINE
8
BLACK
6
CONTINUOUS
10
155.2026449999999897
20
-99.0269229999999965
11
155.4849829999999997
21
-99.0587400000000002
0
LINE
8
BLACK
6
CONTINUOUS
10
155.4849829999999997
20
-99.0587400000000002
11
155.6270460000000071
21
-99.0587429999999927
0
LINE
8
BLACK
6
CONTINUOUS
10
155.6270460000000071
20
-99.0587429999999927
11
172.6650400000000047
21
-99.0587429999999927
0
LINE
8
BLACK
6
CONTINUOUS
10
172.6650400000000047
20
-99.0587429999999927
11
172.6650449999999921
21
-99.0587439999999901
0
LINE
8
BLACK
6
CONTINUOUS
10
172.6650449999999921
20
-99.0587439999999901
11
172.665048999999982
21
-99.0587429999999927
0
LINE
8
BLACK
6
CONTINUOUS
10
172.665048999999982
20
-99.0587429999999927
11
172.9000779999999793
21
-99.07156599999999
0
LINE
8
BLACK
6
CONTINUOUS
10
172.9000779999999793
20
-99.07156599999999
11
173.1323139999999796
21
-99.109893999999997
0
LINE
8
BLACK
6
CONTINUOUS
10
173.1323139999999796
20
-99.109893999999997
11
173.3589999999999804
21
-99.1732709999999997
0
LINE
8
BLACK
6
CONTINUOUS
10
173.3589999999999804
20
-99.1732709999999997
11
173.5774399999999957
21
-99.260943999999995
0
LINE
8
BLACK
6
CONTINUOUS
10
173.5774399999999957
20
-99.260943999999995
11
173.7850409999999783
21
-99.3718729999999937
0
LINE
8
BLACK
6
CONTINUOUS
10
173.7850409999999783
20
-99.3718729999999937
11
173.9793339999999944
21
-99.5047369999999916
0
LINE
8
BLACK
6
CONTINUOUS
10
173.9793339999999944
20
-99.5047369999999916
11
174.1580119999999852
21
-99.6579599999999886
0
LINE
8
BLACK
6
CONTINUOUS
10
174.1580119999999852
20
-99.6579599999999886
11
174.1579930000000047
21
-99.6579789999999974
0
LINE
8
BLACK
6
CONTINUOUS
10
174.1579930000000047
20
-99.6579789999999974
11
174.1581960000000038
21
-99.6583569999999952
0
LINE
8
BLACK
6
CONTINUOUS
10
174.1581960000000038
20
-99.6583569999999952
11
174.1587810000000047
21
-99.6587479999999886
0
LINE
8
BLACK
6
CONTINUOUS
10
174.1587810000000047
20
-99.6587479999999886
11
174.9853549999999984
21
-100.4853219999999965
0
LINE
8
BLACK
6
CONTINUOUS
10
174.9853549999999984
20
-100.4853219999999965
11
174.9853579999999909
21
-100.4853239999999914
0
LINE
8
BLACK
6
CONTINUOUS
10
174.9853579999999909
20
-100.4853239999999914
11
174.9853569999999934
21
-100.4853239999999914
0
LINE
8
BLACK
6
CONTINUOUS
10
174.9853569999999934
20
-100.4853239999999914
11
174.9854469999999935
21
-100.4854589999999916
0
LINE
8
BLACK
6
CONTINUOUS
10
174.9854469999999935
20
-100.4854589999999916
11
175.0899339999999995
21
-100.5898419999999902
0
LINE
8
BLACK
6
CONTINUOUS
10
175.0899339999999995
20
-100.5898419999999902
11
175.3237699999999961
21
-100.7708459999999917
0
LINE
8
BLACK
6
CONTINUOUS
10
175.3237699999999961
20
-100.7708459999999917
11
175.578598999999997
21
-100.920856999999998
0
LINE
8
BLACK
6
CONTINUOUS
10
175.578598999999997
20
-100.920856999999998
11
175.8503389999999911
21
-101.0374709999999965
0
LINE
8
BLACK
6
CONTINUOUS
10
175.8503389999999911
20
-101.0374709999999965
11
176.1346340000000055
21
-101.1188199999999995
0
LINE
8
BLACK
6
CONTINUOUS
10
176.1346340000000055
20
-101.1188199999999995
11
176.4269290000000012
21
-101.1635989999999907
0
LINE
8
BLACK
6
CONTINUOUS
10
176.4269290000000012
20
-101.1635989999999907
11
176.7225389999999834
21
-101.1710920000000016
0
LINE
8
BLACK
6
CONTINUOUS
10
176.7225389999999834
20
-101.1710920000000016
11
177.016727000000003
21
-101.141176999999999
0
LINE
8
BLACK
6
CONTINUOUS
10
177.016727000000003
20
-101.141176999999999
11
177.3047779999999989
21
-101.0743349999999907
0
LINE
8
BLACK
6
CONTINUOUS
10
177.3047779999999989
20
-101.0743349999999907
11
177.5820760000000007
21
-100.9716359999999895
0
LINE
8
BLACK
6
CONTINUOUS
10
177.5820760000000007
20
-100.9716359999999895
11
177.8441779999999994
21
-100.8347270000000009
0
LINE
8
BLACK
6
CONTINUOUS
10
177.8441779999999994
20
-100.8347270000000009
11
178.0868820000000028
21
-100.6658010000000019
0
LINE
8
BLACK
6
CONTINUOUS
10
178.0868820000000028
20
-100.6658010000000019
11
178.3062999999999931
21
-100.4675649999999933
0
LINE
8
BLACK
6
CONTINUOUS
10
178.3062999999999931
20
-100.4675649999999933
11
178.4989149999999825
21
-100.2431979999999925
0
LINE
8
BLACK
6
CONTINUOUS
10
178.4989149999999825
20
-100.2431979999999925
11
178.6616400000000056
21
-99.9962929999999943
0
LINE
8
BLACK
6
CONTINUOUS
10
178.6616400000000056
20
-99.9962929999999943
11
178.7918669999999963
21
-99.7308079999999961
0
LINE
8
BLACK
6
CONTINUOUS
10
178.7918669999999963
20
-99.7308079999999961
11
178.8875099999999918
21
-99.4509979999999985
0
LINE
8
BLACK
6
CONTINUOUS
10
178.8875099999999918
20
-99.4509979999999985
11
178.9470359999999971
21
-99.1613459999999947
0
LINE
8
BLACK
6
CONTINUOUS
10
178.9470359999999971
20
-99.1613459999999947
11
178.969491000000005
21
-98.8664950000000005
0
LINE
8
BLACK
6
CONTINUOUS
10
178.969491000000005
20
-98.8664950000000005
11
178.954513999999989
21
-98.5711689999999976
0
LINE
8
BLACK
6
CONTINUOUS
10
178.954513999999989
20
-98.5711689999999976
11
178.9023459999999943
21
-98.2801019999999994
0
LINE
8
BLACK
6
CONTINUOUS
10
178.9023459999999943
20
-98.2801019999999994
11
178.8138239999999826
21
-97.9979589999999945
0
LINE
8
BLACK
6
CONTINUOUS
10
178.8138239999999826
20
-97.9979589999999945
11
178.6903649999999857
21
-97.729258999999999
0
LINE
8
BLACK
6
CONTINUOUS
10
178.6903649999999857
20
-97.729258999999999
11
178.533947999999981
21
-97.4783109999999908
0
LINE
8
BLACK
6
CONTINUOUS
10
178.533947999999981
20
-97.4783109999999908
11
178.3470800000000054
21
-97.2491349999999954
0
LINE
8
BLACK
6
CONTINUOUS
10
178.3470800000000054
20
-97.2491349999999954
11
178.1327550000000031
21
-97.0454039999999907
0
LINE
8
BLACK
6
CONTINUOUS
10
178.1327550000000031
20
-97.0454039999999907
11
177.894408999999996
21
-96.8703819999999922
0
LINE
8
BLACK
6
CONTINUOUS
10
177.894408999999996
20
-96.8703819999999922
11
177.6358599999999797
21
-96.7268759999999901
0
LINE
8
BLACK
6
CONTINUOUS
10
177.6358599999999797
20
-96.7268759999999901
11
177.3612530000000049
21
-96.6171839999999946
0
LINE
8
BLACK
6
CONTINUOUS
10
177.3612530000000049
20
-96.6171839999999946
11
177.0749879999999905
21
-96.5430649999999986
0
LINE
8
BLACK
6
CONTINUOUS
10
177.0749879999999905
20
-96.5430649999999986
11
176.7816519999999798
21
-96.5057059999999893
0
LINE
8
BLACK
6
CONTINUOUS
10
176.7816519999999798
20
-96.5057059999999893
11
176.6337999999999795
21
-96.5056309999999939
0
LINE
8
BLACK
6
CONTINUOUS
10
176.6337999999999795
20
-96.5056309999999939
11
156.789999999999992
21
-96.5056249999999949
0
LINE
8
BLACK
6
CONTINUOUS
10
156.789999999999992
20
-96.5056249999999949
11
156.6464019999999948
21
-96.4894449999999892
0
LINE
8
BLACK
6
CONTINUOUS
10
156.6464019999999948
20
-96.4894449999999892
11
156.5100039999999808
21
-96.4417179999999945
0
LINE
8
BLACK
6
CONTINUOUS
10
156.5100039999999808
20
-96.4417179999999945
11
156.3876459999999895
21
-96.3648349999999994
0
LINE
8
BLACK
6
CONTINUOUS
10
156.3876459999999895
20
-96.3648349999999994
11
156.2854649999999879
21
-96.2626539999999977
0
LINE
8
BLACK
6
CONTINUOUS
10
156.2854649999999879
20
-96.2626539999999977
11
156.2085820000000069
21
-96.1402959999999922
0
LINE
8
BLACK
6
CONTINUOUS
10
156.2085820000000069
20
-96.1402959999999922
11
156.160854999999998
21
-96.0038979999999924
0
LINE
8
BLACK
6
CONTINUOUS
10
156.160854999999998
20
-96.0038979999999924
11
156.1446750000000065
21
-95.8602999999999952
0
LINE
8
BLACK
6
CONTINUOUS
10
156.1446750000000065
20
-95.8602999999999952
11
156.160854999999998
21
-95.716701999999998
0
LINE
8
BLACK
6
CONTINUOUS
10
156.160854999999998
20
-95.716701999999998
11
156.2085820000000069
21
-95.5803039999999982
0
LINE
8
BLACK
6
CONTINUOUS
10
156.2085820000000069
20
-95.5803039999999982
11
156.2854649999999879
21
-95.4579459999999926
0
LINE
8
BLACK
6
CONTINUOUS
10
156.2854649999999879
20
-95.4579459999999926
11
156.3876459999999895
21
-95.355764999999991
0
LINE
8
BLACK
6
CONTINUOUS
10
156.3876459999999895
20
-95.355764999999991
11
156.5100039999999808
21
-95.2788819999999959
0
LINE
8
BLACK
6
CONTINUOUS
10
156.5100039999999808
20
-95.2788819999999959
11
156.6464019999999948
21
-95.2311550000000011
0
LINE
8
BLACK
6
CONTINUOUS
10
156.6464019999999948
20
-95.2311550000000011
11
156.789999999999992
21
-95.2149749999999955
0
LINE
8
BLACK
6
CONTINUOUS
10
156.789999999999992
20
-95.2149749999999955
11
156.789999999999992
21
-95.2150029999999958
0
LINE
8
BLACK
6
CONTINUOUS
10
156.789999999999992
20
-95.2150029999999958
11
156.819389000000001
21
-95.2245520000000027
0
LINE
8
BLACK
6
CONTINUOUS
10
156.819389000000001
20
-95.2245520000000027
11
156.8305949999999882
21
-95.2399759999999986
0
LINE
8
BLACK
6
CONTINUOUS
10
156.8305949999999882
20
-95.2399759999999986
11
206.7556339999999864
21
-95.2399989999999974
0
LINE
8
BLACK
6
CONTINUOUS
10
206.7556339999999864
20
-95.2399989999999974
11
206.7668620000000033
21
-95.2245489999999961
0
LINE
8
BLACK
6
CONTINUOUS
10
206.7668620000000033
20
-95.2245489999999961
11
206.7962509999999838
21
-95.2149999999999892
0
LINE
8
BLACK
6
CONTINUOUS
10
206.7962509999999838
20
-95.2149999999999892
11
207.0906789999999944
21
-95.2315399999999954
0
LINE
8
BLACK
6
CONTINUOUS
10
207.0906789999999944
20
-95.2315399999999954
11
207.3814040000000034
21
-95.2809409999999986
0
LINE
8
BLACK
6
CONTINUOUS
10
207.3814040000000034
20
-95.2809409999999986
11
207.6647700000000043
21
-95.3625819999999891
0
LINE
8
BLACK
6
CONTINUOUS
10
207.6647700000000043
20
-95.3625819999999891
11
207.9372129999999856
21
-95.475436000000002
0
LINE
8
BLACK
6
CONTINUOUS
10
207.9372129999999856
20
-95.475436000000002
11
208.1953079999999829
21
-95.6180839999999961
0
LINE
8
BLACK
6
CONTINUOUS
10
208.1953079999999829
20
-95.6180839999999961
11
208.4358089999999777
21
-95.788731999999996
0
LINE
8
BLACK
6
CONTINUOUS
10
208.4358089999999777
20
-95.788731999999996
11
208.6555829999999787
21
-95.9851379999999921
0
LINE
8
BLACK
6
CONTINUOUS
10
208.6555829999999787
20
-95.9851379999999921
11
208.6557059999999808
21
-95.9852199999999982
0
LINE
8
BLACK
6
CONTINUOUS
10
208.6557059999999808
20
-95.9852199999999982
11
208.6557069999999783
21
-95.9852199999999982
0
LINE
8
BLACK
6
CONTINUOUS
10
208.6557069999999783
20
-95.9852199999999982
11
208.6557080000000042
21
-95.9852219999999932
0
LINE
8
BLACK
6
CONTINUOUS
10
208.6557080000000042
20
-95.9852219999999932
11
210.9882989999999836
21
-98.3178119999999893
0
LINE
8
BLACK
6
CONTINUOUS
10
210.9882989999999836
20
-98.3178119999999893
11
210.9883069999999918
21
-98.3178039999999953
0
LINE
8
BLACK
6
CONTINUOUS
10
210.9883069999999918
20
-98.3178039999999953
11
211.0887609999999768
21
-98.4182579999999945
0
LINE
8
BLACK
6
CONTINUOUS
10
211.0887609999999768
20
-98.4182579999999945
11
211.3109000000000037
21
-98.5954069999999945
0
LINE
8
BLACK
6
CONTINUOUS
10
211.3109000000000037
20
-98.5954069999999945
11
211.5514749999999822
21
-98.7465720000000005
0
LINE
8
BLACK
6
CONTINUOUS
10
211.5514749999999822
20
-98.7465720000000005
11
211.8074629999999843
21
-98.8698519999999945
0
LINE
8
BLACK
6
CONTINUOUS
10
211.8074629999999843
20
-98.8698519999999945
11
212.0756429999999852
21
-98.9636950000000013
0
LINE
8
BLACK
6
CONTINUOUS
10
212.0756429999999852
20
-98.9636950000000013
11
212.3526449999999954
21
-99.0269229999999965
0
LINE
8
BLACK
6
CONTINUOUS
10
212.3526449999999954
20
-99.0269229999999965
11
212.634982999999977
21
-99.0587400000000002
0
LINE
8
BLACK
6
CONTINUOUS
10
212.634982999999977
20
-99.0587400000000002
11
212.7770459999999844
21
-99.0587429999999927
0
LINE
8
BLACK
6
CONTINUOUS
10
212.7770459999999844
20
-99.0587429999999927
11
229.815039999999982
21
-99.0587429999999927
0
LINE
8
BLACK
6
CONTINUOUS
10
229.815039999999982
20
-99.0587429999999927
11
229.8150449999999978
21
-99.0587439999999901
0
LINE
8
BLACK
6
CONTINUOUS
10
229.8150449999999978
20
-99.0587439999999901
11
229.8150489999999877
21
-99.0587429999999927
0
LINE
8
BLACK
6
CONTINUOUS
10
229.8150489999999877
20
-99.0587429999999927
11
230.050077999999985
21
-99.07156599999999
0
LINE
8
BLACK
6
CONTINUOUS
10
230.050077999999985
20
-99.07156599999999
11
230.2823139999999853
21
-99.109893999999997
0
LINE
8
BLACK
6
CONTINUOUS
10
230.2823139999999853
20
-99.109893999999997
11
230.5089999999999861
21
-99.1732709999999997
0
LINE
8
BLACK
6
CONTINUOUS
10
230.5089999999999861
20
-99.1732709999999997
11
230.7274400000000014
21
-99.260943999999995
0
LINE
8
BLACK
6
CONTINUOUS
10
230.7274400000000014
20
-99.260943999999995
11
230.935040999999984
21
-99.3718729999999937
0
LINE
8
BLACK
6
CONTINUOUS
10
230.935040999999984
20
-99.3718729999999937
11
231.1293340000000001
21
-99.5047369999999916
0
LINE
8
BLACK
6
CONTINUOUS
10
231.1293340000000001
20
-99.5047369999999916
11
231.3080119999999908
21
-99.6579599999999886
0
LINE
8
BLACK
6
CONTINUOUS
10
231.3080119999999908
20
-99.6579599999999886
11
231.307992999999982
21
-99.6579789999999974
0
LINE
8
BLACK
6
CONTINUOUS
10
231.307992999999982
20
-99.6579789999999974
11
231.308195999999981
21
-99.6583569999999952
0
LINE
8
BLACK
6
CONTINUOUS
10
231.308195999999981
20
-99.6583569999999952
11
231.308780999999982
21
-99.6587479999999886
0
LINE
8
BLACK
6
CONTINUOUS
10
231.308780999999982
20
-99.6587479999999886
11
232.1353549999999757
21
-100.4853219999999965
0
LINE
8
BLACK
6
CONTINUOUS
10
232.1353549999999757
20
-100.4853219999999965
11
232.1353579999999965
21
-100.4853239999999914
0
LINE
8
BLACK
6
CONTINUOUS
10
232.1353579999999965
20
-100.4853239999999914
11
232.1353569999999991
21
-100.4853239999999914
0
LINE
8
BLACK
6
CONTINUOUS
10
232.1353569999999991
20
-100.4853239999999914
11
232.1354469999999992
21
-100.4854589999999916
0
LINE
8
BLACK
6
CONTINUOUS
10
232.1354469999999992
20
-100.4854589999999916
11
232.2399339999999768
21
-100.5898419999999902
0
LINE
8
BLACK
6
CONTINUOUS
10
232.2399339999999768
20
-100.5898419999999902
11
232.4737700000000018
21
-100.7708459999999917
0
LINE
8
BLACK
6
CONTINUOUS
10
232.4737700000000018
20
-100.7708459999999917
11
232.7285990000000027
21
-100.920856999999998
0
LINE
8
BLACK
6
CONTINUOUS
10
232.7285990000000027
20
-100.920856999999998
11
233.0003389999999968
21
-101.0374709999999965
0
LINE
8
BLACK
6
CONTINUOUS
10
233.0003389999999968
20
-101.0374709999999965
11
233.2846339999999827
21
-101.1188199999999995
0
LINE
8
BLACK
6
CONTINUOUS
10
233.2846339999999827
20
-101.1188199999999995
11
233.5769289999999785
21
-101.1635989999999907
0
LINE
8
BLACK
6
CONTINUOUS
10
233.5769289999999785
20
-101.1635989999999907
11
233.8725389999999891
21
-101.1710920000000016
0
LINE
8
BLACK
6
CONTINUOUS
10
233.8725389999999891
20
-101.1710920000000016
11
234.1667269999999803
21
-101.141176999999999
0
LINE
8
BLACK
6
CONTINUOUS
10
234.1667269999999803
20
-101.141176999999999
11
234.4547779999999761
21
-101.0743349999999907
0
LINE
8
BLACK
6
CONTINUOUS
10
234.4547779999999761
20
-101.0743349999999907
11
234.732075999999978
21
-100.9716359999999895
0
LINE
8
BLACK
6
CONTINUOUS
10
234.732075999999978
20
-100.9716359999999895
11
234.9941779999999767
21
-100.8347270000000009
0
LINE
8
BLACK
6
CONTINUOUS
10
234.9941779999999767
20
-100.8347270000000009
11
235.2368819999999801
21
-100.6658010000000019
0
LINE
8
BLACK
6
CONTINUOUS
10
235.2368819999999801
20
-100.6658010000000019
11
235.4562999999999988
21
-100.4675649999999933
0
LINE
8
BLACK
6
CONTINUOUS
10
235.4562999999999988
20
-100.4675649999999933
11
235.6489149999999881
21
-100.2431979999999925
0
LINE
8
BLACK
6
CONTINUOUS
10
235.6489149999999881
20
-100.2431979999999925
11
235.8116399999999828
21
-99.9962929999999943
0
LINE
8
BLACK
6
CONTINUOUS
10
235.8116399999999828
20
-99.9962929999999943
11
235.941867000000002
21
-99.7308079999999961
0
LINE
8
BLACK
6
CONTINUOUS
10
235.941867000000002
20
-99.7308079999999961
11
236.0375099999999975
21
-99.4509979999999985
0
LINE
8
BLACK
6
CONTINUOUS
10
236.0375099999999975
20
-99.4509979999999985
11
236.0970360000000028
21
-99.1613459999999947
0
LINE
8
BLACK
6
CONTINUOUS
10
236.0970360000000028
20
-99.1613459999999947
11
236.1194909999999823
21
-98.8664950000000005
0
LINE
8
BLACK
6
CONTINUOUS
10
236.1194909999999823
20
-98.8664950000000005
11
236.1045139999999947
21
-98.5711689999999976
0
LINE
8
BLACK
6
CONTINUOUS
10
236.1045139999999947
20
-98.5711689999999976
11
236.052346
21
-98.2801019999999994
0
LINE
8
BLACK
6
CONTINUOUS
10
236.052346
20
-98.2801019999999994
11
235.9638239999999882
21
-97.9979589999999945
0
LINE
8
BLACK
6
CONTINUOUS
10
235.9638239999999882
20
-97.9979589999999945
11
235.8403649999999914
21
-97.729258999999999
0
LINE
8
BLACK
6
CONTINUOUS
10
235.8403649999999914
20
-97.729258999999999
11
235.6839479999999867
21
-97.4783109999999908
0
LINE
8
BLACK
6
CONTINUOUS
10
235.6839479999999867
20
-97.4783109999999908
11
235.4970799999999826
21
-97.2491349999999954
0
LINE
8
BLACK
6
CONTINUOUS
10
235.4970799999999826
20
-97.2491349999999954
11
235.2827549999999803
21
-97.0454039999999907
0
LINE
8
BLACK
6
CONTINUOUS
10
235.2827549999999803
20
-97.0454039999999907
11
235.0444090000000017
21
-96.8703819999999922
0
LINE
8
BLACK
6
CONTINUOUS
10
235.0444090000000017
20
-96.8703819999999922
11
234.7858599999999853
21
-96.7268759999999901
0
LINE
8
BLACK
6
CONTINUOUS
10
234.7858599999999853
20
-96.7268759999999901
11
234.5112529999999822
21
-96.6171839999999946
0
LINE
8
BLACK
6
CONTINUOUS
10
234.5112529999999822
20
-96.6171839999999946
11
234.2249879999999962
21
-96.5430649999999986
0
LINE
8
BLACK
6
CONTINUOUS
10
234.2249879999999962
20
-96.5430649999999986
11
233.9316519999999855
21
-96.5057059999999893
0
LINE
8
BLACK
6
CONTINUOUS
10
233.9316519999999855
20
-96.5057059999999893
11
233.7837999999999852
21
-96.5056309999999939
0
LINE
8
BLACK
6
CONTINUOUS
10
233.7837999999999852
20
-96.5056309999999939
11
213.9399999999999977
21
-96.5056249999999949
0
LINE
8
BLACK
6
CONTINUOUS
10
213.9399999999999977
20
-96.5056249999999949
11
213.7964020000000005
21
-96.4894449999999892
0
LINE
8
BLACK
6
CONTINUOUS
10
213.7964020000000005
20
-96.4894449999999892
11
213.6600039999999865
21
-96.4417179999999945
0
LINE
8
BLACK
6
CONTINUOUS
10
213.6600039999999865
20
-96.4417179999999945
11
213.5376459999999952
21
-96.3648349999999994
0
LINE
8
BLACK
6
CONTINUOUS
10
213.5376459999999952
20
-96.3648349999999994
11
213.4354649999999936
21
-96.2626539999999977
0
LINE
8
BLACK
6
CONTINUOUS
10
213.4354649999999936
20
-96.2626539999999977
11
213.3585819999999842
21
-96.1402959999999922
0
LINE
8
BLACK
6
CONTINUOUS
10
213.3585819999999842
20
-96.1402959999999922
11
213.3108550000000037
21
-96.0038979999999924
0
LINE
8
BLACK
6
CONTINUOUS
10
213.3108550000000037
20
-96.0038979999999924
11
213.2946749999999838
21
-95.8602999999999952
0
LINE
8
BLACK
6
CONTINUOUS
10
213.2946749999999838
20
-95.8602999999999952
11
213.3108550000000037
21
-95.716701999999998
0
LINE
8
BLACK
6
CONTINUOUS
10
213.3108550000000037
20
-95.716701999999998
11
213.3585819999999842
21
-95.5803039999999982
0
LINE
8
BLACK
6
CONTINUOUS
10
213.3585819999999842
20
-95.5803039999999982
11
213.4354649999999936
21
-95.4579459999999926
0
LINE
8
BLACK
6
CONTINUOUS
10
213.4354649999999936
20
-95.4579459999999926
11
213.5376459999999952
21
-95.355764999999991
0
LINE
8
BLACK
6
CONTINUOUS
10
213.5376459999999952
20
-95.355764999999991
11
213.6600039999999865
21
-95.2788819999999959
0
LINE
8
BLACK
6
CONTINUOUS
10
213.6600039999999865
20
-95.2788819999999959
11
213.7964020000000005
21
-95.2311550000000011
0
LINE
8
BLACK
6
CONTINUOUS
10
213.7964020000000005
20
-95.2311550000000011
11
213.9399999999999977
21
-95.2149749999999955
0
LINE
8
BLACK
6
CONTINUOUS
10
213.9399999999999977
20
-95.2149749999999955
11
213.9399999999999977
21
-95.2150029999999958
0
LINE
8
BLACK
6
CONTINUOUS
10
213.9399999999999977
20
-95.2150029999999958
11
213.9693889999999783
21
-95.2245520000000027
0
LINE
8
BLACK
6
CONTINUOUS
10
213.9693889999999783
20
-95.2245520000000027
11
213.9806150000000002
21
-95.2400019999999898
0
LINE
8
BLACK
6
CONTINUOUS
10
213.9806150000000002
20
-95.2400019999999898
11
239.5149999999999864
21
-95.2399999999999949
0
LINE
8
BLACK
6
CONTINUOUS
10
239.5149999999999864
20
-95.2399999999999949
11
239.6709129999999845
21
-95.2399999999999949
0
LINE
8
BLACK
6
CONTINUOUS
10
239.6709129999999845
20
-95.2399999999999949
11
239.9810310000000015
21
-95.2074059999999918
0
LINE
8
BLACK
6
CONTINUOUS
10
239.9810310000000015
20
-95.2074059999999918
11
240.2860429999999781
21
-95.1425729999999987
0
LINE
8
BLACK
6
CONTINUOUS
10
240.2860429999999781
20
-95.1425729999999987
11
240.5826079999999934
21
-95.046213999999992
0
LINE
8
BLACK
6
CONTINUOUS
10
240.5826079999999934
20
-95.046213999999992
11
240.8674749999999847
21
-94.9193819999999988
0
LINE
8
BLACK
6
CONTINUOUS
10
240.8674749999999847
20
-94.9193819999999988
11
241.1375249999999824
21
-94.7634690000000006
0
LINE
8
BLACK
6
CONTINUOUS
10
241.1375249999999824
20
-94.7634690000000006
11
241.3897979999999848
21
-94.5801819999999935
0
LINE
8
BLACK
6
CONTINUOUS
10
241.3897979999999848
20
-94.5801819999999935
11
241.6215299999999786
21
-94.3715299999999928
0
LINE
8
BLACK
6
CONTINUOUS
10
241.6215299999999786
20
-94.3715299999999928
11
241.8301819999999793
21
-94.139797999999999
0
LINE
8
BLACK
6
CONTINUOUS
10
241.8301819999999793
20
-94.139797999999999
11
242.0134689999999864
21
-93.8875249999999966
0
LINE
8
BLACK
6
CONTINUOUS
10
242.0134689999999864
20
-93.8875249999999966
11
242.1693819999999846
21
-93.6174749999999989
0
LINE
8
BLACK
6
CONTINUOUS
10
242.1693819999999846
20
-93.6174749999999989
11
242.296213999999992
21
-93.3326079999999934
0
LINE
8
BLACK
6
CONTINUOUS
10
242.296213999999992
20
-93.3326079999999934
11
242.3925729999999987
21
-93.0360429999999923
0
LINE
8
BLACK
6
CONTINUOUS
10
242.3925729999999987
20
-93.0360429999999923
11
242.4574059999999918
21
-92.7310310000000015
0
LINE
8
BLACK
6
CONTINUOUS
10
242.4574059999999918
20
-92.7310310000000015
11
242.4899999999999807
21
-92.4209129999999988
0
LINE
8
BLACK
6
CONTINUOUS
10
242.4899999999999807
20
-92.4209129999999988
11
242.4899999999999807
21
-92.2650000000000006
0
LINE
8
BLACK
6
CONTINUOUS
10
242.4899999999999807
20
-92.2650000000000006
11
242.4899999999999807
21
-22.0649999999999977
0
LINE
8
BLACK
6
CONTINUOUS
10
242.4899999999999807
20
-22.0649999999999977
11
242.4899999999999807
21
-21.9090869999999995
0
LINE
8
BLACK
6
CONTINUOUS
10
242.4899999999999807
20
-21.9090869999999995
11
242.4574059999999918
21
-21.5989690000000003
0
LINE
8
BLACK
6
CONTINUOUS
10
242.4574059999999918
20
-21.5989690000000003
11
242.3925729999999987
21
-21.2939569999999989
0
LINE
8
BLACK
6
CONTINUOUS
10
242.3925729999999987
20
-21.2939569999999989
11
242.296213999999992
21
-20.9973919999999978
0
LINE
8
BLACK
6
CONTINUOUS
10
242.296213999999992
20
-20.9973919999999978
11
242.1693819999999846
21
-20.7125249999999994
0
LINE
8
BLACK
6
CONTINUOUS
10
242.1693819999999846
20
-20.7125249999999994
11
242.0134689999999864
21
-20.4424749999999982
0
LINE
8
BLACK
6
CONTINUOUS
10
242.0134689999999864
20
-20.4424749999999982
11
241.8301819999999793
21
-20.1902019999999993
0
LINE
8
BLACK
6
CONTINUOUS
10
241.8301819999999793
20
-20.1902019999999993
11
241.6215299999999786
21
-19.9584699999999984
0
LINE
8
BLACK
6
CONTINUOUS
10
241.6215299999999786
20
-19.9584699999999984
11
241.3897979999999848
21
-19.7498179999999977
0
LINE
8
BLACK
6
CONTINUOUS
10
241.3897979999999848
20
-19.7498179999999977
11
241.1375249999999824
21
-19.5665309999999977
0
LINE
8
BLACK
6
CONTINUOUS
10
241.1375249999999824
20
-19.5665309999999977
11
240.8674749999999847
21
-19.4106179999999995
0
LINE
8
BLACK
6
CONTINUOUS
10
240.8674749999999847
20
-19.4106179999999995
11
240.5826079999999934
21
-19.2837859999999992
0
LINE
8
BLACK
6
CONTINUOUS
10
240.5826079999999934
20
-19.2837859999999992
11
240.2860429999999781
21
-19.1874269999999996
0
LINE
8
BLACK
6
CONTINUOUS
10
240.2860429999999781
20
-19.1874269999999996
11
239.9810310000000015
21
-19.1225939999999994
0
LINE
8
BLACK
6
CONTINUOUS
10
239.9810310000000015
20
-19.1225939999999994
11
239.6709129999999845
21
-19.0899999999999999
0
LINE
8
BLACK
6
CONTINUOUS
10
239.6709129999999845
20
-19.0899999999999999
11
239.5149999999999864
21
-19.0899999999999999
0
LINE
8
BLACK
6
CONTINUOUS
10
239.5149999999999864
20
-19.0899999999999999
11
213.9806150000000002
21
-19.0899999999999999
0
LINE
8
BLACK
6
CONTINUOUS
10
213.9806150000000002
20
-19.0899999999999999
11
213.9693889999999783
21
-19.1054509999999986
0
LINE
8
BLACK
6
CONTINUOUS
10
213.9693889999999783
20
-19.1054509999999986
11
213.9399999999999977
21
-19.1149999999999984
0
LINE
8
BLACK
6
CONTINUOUS
10
213.9399999999999977
20
-19.1149999999999984
11
213.7964069999999879
21
-19.0988209999999974
0
LINE
8
BLACK
6
CONTINUOUS
10
213.7964069999999879
20
-19.0988209999999974
11
213.6600149999999871
21
-19.0510950000000001
0
LINE
8
BLACK
6
CONTINUOUS
10
213.6600149999999871
20
-19.0510950000000001
11
213.5376619999999832
21
-18.9742159999999984
0
LINE
8
BLACK
6
CONTINUOUS
10
213.5376619999999832
20
-18.9742159999999984
11
213.4354840000000024
21
-18.8720379999999999
0
LINE
8
BLACK
6
CONTINUOUS
10
213.4354840000000024
20
-18.8720379999999999
11
213.358604999999983
21
-18.7496849999999995
0
LINE
8
BLACK
6
CONTINUOUS
10
213.358604999999983
20
-18.7496849999999995
11
213.3108789999999999
21
-18.6132929999999988
0
LINE
8
BLACK
6
CONTINUOUS
10
213.3108789999999999
20
-18.6132929999999988
11
213.2946999999999775
21
-18.4696999999999996
0
LINE
8
BLACK
6
CONTINUOUS
10
213.2946999999999775
20
-18.4696999999999996
11
213.3108789999999999
21
-18.3261070000000004
0
LINE
8
BLACK
6
CONTINUOUS
10
213.3108789999999999
20
-18.3261070000000004
11
213.358604999999983
21
-18.1897149999999996
0
LINE
8
BLACK
6
CONTINUOUS
10
213.358604999999983
20
-18.1897149999999996
11
213.4354840000000024
21
-18.0673619999999993
0
LINE
8
BLACK
6
CONTINUOUS
10
213.4354840000000024
20
-18.0673619999999993
11
213.5376619999999832
21
-17.9651840000000007
0
LINE
8
BLACK
6
CONTINUOUS
10
213.5376619999999832
20
-17.9651840000000007
11
213.6600149999999871
21
-17.888304999999999
0
LINE
8
BLACK
6
CONTINUOUS
10
213.6600149999999871
20
-17.888304999999999
11
213.7964069999999879
21
-17.8405789999999982
0
LINE
8
BLACK
6
CONTINUOUS
10
213.7964069999999879
20
-17.8405789999999982
11
213.9397439999999904
21
-17.8244279999999975
0
LINE
8
BLACK
6
CONTINUOUS
10
213.9397439999999904
20
-17.8244279999999975
11
213.9399999999999977
21
-17.8243779999999994
0
LINE
8
BLACK
6
CONTINUOUS
10
213.9399999999999977
20
-17.8243779999999994
11
233.7837999999999852
21
-17.8243720000000003
0
LINE
8
BLACK
6
CONTINUOUS
10
233.7837999999999852
20
-17.8243720000000003
11
233.7837999999999852
21
-17.8243340000000003
0
LINE
8
BLACK
6
CONTINUOUS
10
233.7837999999999852
20
-17.8243340000000003
11
233.9316499999999905
21
-17.8242589999999979
0
LINE
8
BLACK
6
CONTINUOUS
10
233.9316499999999905
20
-17.8242589999999979
11
234.2249809999999854
21
-17.7869010000000003
0
LINE
8
BLACK
6
CONTINUOUS
10
234.2249809999999854
20
-17.7869010000000003
11
234.5112419999999815
21
-17.7127820000000007
0
LINE
8
BLACK
6
CONTINUOUS
10
234.5112419999999815
20
-17.7127820000000007
11
234.7858449999999948
21
-17.6030920000000002
0
LINE
8
BLACK
6
CONTINUOUS
10
234.7858449999999948
20
-17.6030920000000002
11
235.0443899999999928
21
-17.4595880000000001
0
LINE
8
BLACK
6
CONTINUOUS
10
235.0443899999999928
20
-17.4595880000000001
11
235.282732999999979
21
-17.2845689999999976
0
LINE
8
BLACK
6
CONTINUOUS
10
235.282732999999979
20
-17.2845689999999976
11
235.4970539999999914
21
-17.0808409999999995
0
LINE
8
BLACK
6
CONTINUOUS
10
235.4970539999999914
20
-17.0808409999999995
11
235.6839200000000005
21
-16.8516680000000001
0
LINE
8
BLACK
6
CONTINUOUS
10
235.6839200000000005
20
-16.8516680000000001
11
235.8403339999999844
21
-16.6007239999999996
0
LINE
8
BLACK
6
CONTINUOUS
10
235.8403339999999844
20
-16.6007239999999996
11
235.9637909999999863
21
-16.3320279999999975
0
LINE
8
BLACK
6
CONTINUOUS
10
235.9637909999999863
20
-16.3320279999999975
11
236.0523129999999981
21
-16.0498890000000003
0
LINE
8
BLACK
6
CONTINUOUS
10
236.0523129999999981
20
-16.0498890000000003
11
236.1044789999999978
21
-15.7588259999999991
0
LINE
8
BLACK
6
CONTINUOUS
10
236.1044789999999978
20
-15.7588259999999991
11
236.1194559999999854
21
-15.4635049999999996
0
LINE
8
BLACK
6
CONTINUOUS
10
236.1194559999999854
20
-15.4635049999999996
11
236.0970009999999775
21
-15.1686579999999989
0
LINE
8
BLACK
6
CONTINUOUS
10
236.0970009999999775
20
-15.1686579999999989
11
236.0374759999999981
21
-14.8790110000000002
0
LINE
8
BLACK
6
CONTINUOUS
10
236.0374759999999981
20
-14.8790110000000002
11
235.9418349999999975
21
-14.5992049999999995
0
LINE
8
BLACK
6
CONTINUOUS
10
235.9418349999999975
20
-14.5992049999999995
11
235.8116089999999758
21
-14.3337240000000001
0
LINE
8
BLACK
6
CONTINUOUS
10
235.8116089999999758
20
-14.3337240000000001
11
235.6488859999999761
21
-14.086822999999999
0
LINE
8
BLACK
6
CONTINUOUS
10
235.6488859999999761
20
-14.086822999999999
11
235.4562739999999792
21
-13.8624580000000002
0
LINE
8
BLACK
6
CONTINUOUS
10
235.4562739999999792
20
-13.8624580000000002
11
235.2368599999999788
21
-13.6642259999999993
0
LINE
8
BLACK
6
CONTINUOUS
10
235.2368599999999788
20
-13.6642259999999993
11
234.9941589999999962
21
-13.4953029999999998
0
LINE
8
BLACK
6
CONTINUOUS
10
234.9941589999999962
20
-13.4953029999999998
11
234.7320609999999874
21
-13.3583949999999998
0
LINE
8
BLACK
6
CONTINUOUS
10
234.7320609999999874
20
-13.3583949999999998
11
234.4547669999999755
21
-13.2556979999999989
0
LINE
8
BLACK
6
CONTINUOUS
10
234.4547669999999755
20
-13.2556979999999989
11
234.166719999999998
21
-13.1888569999999987
0
LINE
8
BLACK
6
CONTINUOUS
10
234.166719999999998
20
-13.1888569999999987
11
233.8725359999999966
21
-13.1589429999999989
0
LINE
8
BLACK
6
CONTINUOUS
10
233.8725359999999966
20
-13.1589429999999989
11
233.576929999999976
21
-13.1664359999999991
  0
ENDSEC
  0
EOF
